%TF.GenerationSoftware,KiCad,Pcbnew,(6.0.0)*%
%TF.CreationDate,2022-08-16T21:22:32+02:00*%
%TF.ProjectId,pigame_pico,70696761-6d65-45f7-9069-636f2e6b6963,rev?*%
%TF.SameCoordinates,Original*%
%TF.FileFunction,Paste,Bot*%
%TF.FilePolarity,Positive*%
%FSLAX46Y46*%
G04 Gerber Fmt 4.6, Leading zero omitted, Abs format (unit mm)*
G04 Created by KiCad (PCBNEW (6.0.0)) date 2022-08-16 21:22:32*
%MOMM*%
%LPD*%
G01*
G04 APERTURE LIST*
%TA.AperFunction,Profile*%
%ADD10C,0.100000*%
%TD*%
%ADD11R,3.150000X1.000000*%
%ADD12R,5.100000X6.400000*%
G04 APERTURE END LIST*
D10*
X196850002Y-71120002D02*
X217170000Y-71120000D01*
X118110000Y-59690000D02*
X152400000Y-59690000D01*
X186690000Y-59690000D02*
X152400000Y-59690000D01*
X82550000Y-119380000D02*
G75*
G03*
X87630000Y-124460000I5080002J2D01*
G01*
X87630000Y-71120000D02*
X107950002Y-71120002D01*
X152400000Y-124460000D02*
X217170000Y-124460000D01*
X222250000Y-119380000D02*
X222250000Y-76200000D01*
X191770000Y-64770000D02*
X191770002Y-66040002D01*
X217170000Y-124460000D02*
G75*
G03*
X222250000Y-119380000I-2J5080002D01*
G01*
X113030000Y-64770000D02*
X113030002Y-66040002D01*
X107950002Y-71120002D02*
G75*
G03*
X113030002Y-66040002I-2J5080002D01*
G01*
X191770000Y-64770000D02*
G75*
G03*
X186690000Y-59690000I-5080002J-2D01*
G01*
X191770002Y-66040002D02*
G75*
G03*
X196850002Y-71120002I5080002J2D01*
G01*
X222250000Y-76200000D02*
G75*
G03*
X217170000Y-71120000I-5080002J-2D01*
G01*
X82550000Y-76200000D02*
X82550000Y-119380000D01*
X87630000Y-71120000D02*
G75*
G03*
X82550000Y-76200000I2J-5080002D01*
G01*
X118110000Y-59690000D02*
G75*
G03*
X113030000Y-64770000I2J-5080002D01*
G01*
X152400000Y-124460000D02*
X87630000Y-124460000D01*
D11*
%TO.C,J2*%
X185913000Y-63754000D03*
X180863000Y-63754000D03*
X185913000Y-66294000D03*
X180863000Y-66294000D03*
X185913000Y-68834000D03*
X180863000Y-68834000D03*
%TD*%
D12*
%TO.C,J1*%
X147244000Y-120269000D03*
X147244000Y-63881000D03*
X136068000Y-63881000D03*
X136068000Y-120269000D03*
%TD*%
M02*
