%TF.GenerationSoftware,KiCad,Pcbnew,(6.0.0)*%
%TF.CreationDate,2022-08-16T21:22:32+02:00*%
%TF.ProjectId,pigame_pico,70696761-6d65-45f7-9069-636f2e6b6963,rev?*%
%TF.SameCoordinates,Original*%
%TF.FileFunction,Soldermask,Bot*%
%TF.FilePolarity,Negative*%
%FSLAX46Y46*%
G04 Gerber Fmt 4.6, Leading zero omitted, Abs format (unit mm)*
G04 Created by KiCad (PCBNEW (6.0.0)) date 2022-08-16 21:22:32*
%MOMM*%
%LPD*%
G01*
G04 APERTURE LIST*
G04 Aperture macros list*
%AMOutline5P*
0 Free polygon, 5 corners , with rotation*
0 The origin of the aperture is its center*
0 number of corners: always 5*
0 $1 to $10 corner X, Y*
0 $11 Rotation angle, in degrees counterclockwise*
0 create outline with 5 corners*
4,1,5,$1,$2,$3,$4,$5,$6,$7,$8,$9,$10,$1,$2,$11*%
%AMOutline6P*
0 Free polygon, 6 corners , with rotation*
0 The origin of the aperture is its center*
0 number of corners: always 6*
0 $1 to $12 corner X, Y*
0 $13 Rotation angle, in degrees counterclockwise*
0 create outline with 6 corners*
4,1,6,$1,$2,$3,$4,$5,$6,$7,$8,$9,$10,$11,$12,$1,$2,$13*%
%AMOutline7P*
0 Free polygon, 7 corners , with rotation*
0 The origin of the aperture is its center*
0 number of corners: always 7*
0 $1 to $14 corner X, Y*
0 $15 Rotation angle, in degrees counterclockwise*
0 create outline with 7 corners*
4,1,7,$1,$2,$3,$4,$5,$6,$7,$8,$9,$10,$11,$12,$13,$14,$1,$2,$15*%
%AMOutline8P*
0 Free polygon, 8 corners , with rotation*
0 The origin of the aperture is its center*
0 number of corners: always 8*
0 $1 to $16 corner X, Y*
0 $17 Rotation angle, in degrees counterclockwise*
0 create outline with 8 corners*
4,1,8,$1,$2,$3,$4,$5,$6,$7,$8,$9,$10,$11,$12,$13,$14,$15,$16,$1,$2,$17*%
G04 Aperture macros list end*
%TA.AperFunction,Profile*%
%ADD10C,0.100000*%
%TD*%
%ADD11C,1.524000*%
%ADD12R,3.150000X1.000000*%
%ADD13C,2.200000*%
%ADD14Outline8P,-0.900000X0.450000X-0.450000X0.900000X0.450000X0.900000X0.900000X0.450000X0.900000X-0.450000X0.450000X-0.900000X-0.450000X-0.900000X-0.900000X-0.450000X180.000000*%
%ADD15O,2.500000X3.000000*%
%ADD16C,2.800000*%
%ADD17R,5.100000X6.400000*%
%ADD18O,1.700000X1.700000*%
%ADD19R,1.700000X1.700000*%
G04 APERTURE END LIST*
D10*
X196850002Y-71120002D02*
X217170000Y-71120000D01*
X118110000Y-59690000D02*
X152400000Y-59690000D01*
X186690000Y-59690000D02*
X152400000Y-59690000D01*
X82550000Y-119380000D02*
G75*
G03*
X87630000Y-124460000I5080002J2D01*
G01*
X87630000Y-71120000D02*
X107950002Y-71120002D01*
X152400000Y-124460000D02*
X217170000Y-124460000D01*
X222250000Y-119380000D02*
X222250000Y-76200000D01*
X191770000Y-64770000D02*
X191770002Y-66040002D01*
X217170000Y-124460000D02*
G75*
G03*
X222250000Y-119380000I-2J5080002D01*
G01*
X113030000Y-64770000D02*
X113030002Y-66040002D01*
X107950002Y-71120002D02*
G75*
G03*
X113030002Y-66040002I-2J5080002D01*
G01*
X191770000Y-64770000D02*
G75*
G03*
X186690000Y-59690000I-5080002J-2D01*
G01*
X191770002Y-66040002D02*
G75*
G03*
X196850002Y-71120002I5080002J2D01*
G01*
X222250000Y-76200000D02*
G75*
G03*
X217170000Y-71120000I-5080002J-2D01*
G01*
X82550000Y-76200000D02*
X82550000Y-119380000D01*
X87630000Y-71120000D02*
G75*
G03*
X82550000Y-76200000I2J-5080002D01*
G01*
X118110000Y-59690000D02*
G75*
G03*
X113030000Y-64770000I2J-5080002D01*
G01*
X152400000Y-124460000D02*
X87630000Y-124460000D01*
%TO.C,G\u002A\u002A\u002A*%
G36*
X191567945Y-122142468D02*
G01*
X191566927Y-122203393D01*
X191565124Y-122251497D01*
X191562314Y-122288730D01*
X191558273Y-122317040D01*
X191552777Y-122338378D01*
X191545603Y-122354692D01*
X191536528Y-122367931D01*
X191525329Y-122380044D01*
X191511783Y-122392981D01*
X191497141Y-122405620D01*
X191447744Y-122432512D01*
X191390610Y-122441231D01*
X191364719Y-122444051D01*
X191319342Y-122458984D01*
X191277350Y-122483137D01*
X191247062Y-122512386D01*
X191237976Y-122529200D01*
X191225582Y-122565344D01*
X191216880Y-122607328D01*
X191209083Y-122650855D01*
X191194542Y-122695332D01*
X191172711Y-122729537D01*
X191140837Y-122758965D01*
X191104052Y-122787048D01*
X190867681Y-122792060D01*
X190797267Y-122793631D01*
X190738046Y-122795285D01*
X190693444Y-122797179D01*
X190660648Y-122799600D01*
X190636843Y-122802835D01*
X190619212Y-122807172D01*
X190604941Y-122812899D01*
X190591215Y-122820304D01*
X190552302Y-122848026D01*
X190523603Y-122884643D01*
X190504976Y-122934015D01*
X190500152Y-122982312D01*
X190511271Y-123034788D01*
X190537240Y-123081909D01*
X190575528Y-123119231D01*
X190623603Y-123142310D01*
X190626489Y-123142989D01*
X190651544Y-123146109D01*
X190692205Y-123148812D01*
X190744789Y-123150943D01*
X190805613Y-123152343D01*
X190870998Y-123152857D01*
X190922397Y-123152903D01*
X190980194Y-123153222D01*
X191023164Y-123154108D01*
X191054365Y-123155862D01*
X191076857Y-123158783D01*
X191093699Y-123163174D01*
X191107952Y-123169333D01*
X191122673Y-123177561D01*
X191128512Y-123181064D01*
X191166047Y-123210252D01*
X191191023Y-123246346D01*
X191208094Y-123295783D01*
X191210711Y-123308012D01*
X191211351Y-123364836D01*
X191194359Y-123418125D01*
X191161671Y-123463677D01*
X191115227Y-123497286D01*
X191107481Y-123500579D01*
X191095009Y-123504017D01*
X191077669Y-123506755D01*
X191053562Y-123508851D01*
X191020791Y-123510363D01*
X190977460Y-123511349D01*
X190921672Y-123511868D01*
X190851528Y-123511978D01*
X190765133Y-123511736D01*
X190660589Y-123511200D01*
X190238803Y-123508753D01*
X190201995Y-123480670D01*
X190176954Y-123458758D01*
X190152893Y-123426258D01*
X190136803Y-123384847D01*
X190125929Y-123329032D01*
X190121479Y-123304292D01*
X190109548Y-123262738D01*
X190094973Y-123233004D01*
X190081890Y-123217773D01*
X190046560Y-123190366D01*
X190005714Y-123170546D01*
X189967641Y-123162880D01*
X189966764Y-123162877D01*
X189909990Y-123154485D01*
X189858059Y-123131963D01*
X189815780Y-123098172D01*
X189787958Y-123055972D01*
X189785404Y-123046845D01*
X189783120Y-123031242D01*
X189781154Y-123008082D01*
X189779486Y-122976114D01*
X189778093Y-122934091D01*
X189776955Y-122880762D01*
X189776051Y-122814880D01*
X189775359Y-122735196D01*
X189774857Y-122640459D01*
X189774525Y-122529423D01*
X189774342Y-122400837D01*
X189774285Y-122253453D01*
X189774288Y-122199900D01*
X189774324Y-122063994D01*
X189774365Y-122019453D01*
X190497403Y-122019453D01*
X190497723Y-122112008D01*
X190498778Y-122185970D01*
X190500579Y-122241970D01*
X190503140Y-122280636D01*
X190506472Y-122302599D01*
X190510907Y-122316172D01*
X190537281Y-122361388D01*
X190576081Y-122397914D01*
X190621757Y-122420095D01*
X190642638Y-122425553D01*
X190671260Y-122429877D01*
X190697430Y-122426867D01*
X190731547Y-122416152D01*
X190775567Y-122392061D01*
X190813458Y-122351724D01*
X190836744Y-122301091D01*
X190839777Y-122280380D01*
X190842364Y-122238471D01*
X190844156Y-122176591D01*
X190845152Y-122094770D01*
X190845351Y-121993041D01*
X190844754Y-121871435D01*
X190841807Y-121482467D01*
X190816920Y-121446164D01*
X190808712Y-121435077D01*
X190766925Y-121396967D01*
X190717820Y-121374840D01*
X190665280Y-121368696D01*
X190613189Y-121378535D01*
X190565430Y-121404358D01*
X190525889Y-121446164D01*
X190501002Y-121482467D01*
X190498056Y-121871435D01*
X190497805Y-121907676D01*
X190497403Y-122019453D01*
X189774365Y-122019453D01*
X189774432Y-121946260D01*
X189774643Y-121845319D01*
X189774989Y-121759791D01*
X189775501Y-121688296D01*
X189776212Y-121629455D01*
X189777153Y-121581889D01*
X189778356Y-121544218D01*
X189779853Y-121515062D01*
X189781676Y-121493042D01*
X189783857Y-121476778D01*
X189786427Y-121464891D01*
X189789419Y-121456002D01*
X189792864Y-121448731D01*
X189798916Y-121438288D01*
X189837205Y-121396063D01*
X189890833Y-121366267D01*
X189959203Y-121349256D01*
X190005763Y-121340023D01*
X190054572Y-121319619D01*
X190089367Y-121287816D01*
X190112644Y-121242094D01*
X190126895Y-121179937D01*
X190131855Y-121152822D01*
X190152951Y-121091124D01*
X190185985Y-121044599D01*
X190231704Y-121012046D01*
X190233720Y-121011060D01*
X190244640Y-121006404D01*
X190257492Y-121002611D01*
X190274290Y-120999595D01*
X190297045Y-120997267D01*
X190327771Y-120995538D01*
X190368480Y-120994321D01*
X190421185Y-120993528D01*
X190487899Y-120993070D01*
X190570635Y-120992860D01*
X190671405Y-120992810D01*
X190691967Y-120992811D01*
X190789167Y-120992885D01*
X190868714Y-120993135D01*
X190932620Y-120993650D01*
X190982899Y-120994516D01*
X191021563Y-120995823D01*
X191050624Y-120997659D01*
X191072097Y-121000111D01*
X191087993Y-121003267D01*
X191100324Y-121007216D01*
X191111105Y-121012046D01*
X191129673Y-121022620D01*
X191170577Y-121060239D01*
X191199075Y-121112278D01*
X191215914Y-121179937D01*
X191225682Y-121227579D01*
X191246366Y-121277341D01*
X191277919Y-121312530D01*
X191322835Y-121335662D01*
X191383606Y-121349256D01*
X191399200Y-121351758D01*
X191464515Y-121371491D01*
X191514963Y-121403934D01*
X191549945Y-121448731D01*
X191551194Y-121451138D01*
X191555577Y-121461262D01*
X191559157Y-121473853D01*
X191562012Y-121490864D01*
X191564225Y-121514249D01*
X191565875Y-121545960D01*
X191567044Y-121587952D01*
X191567813Y-121642177D01*
X191568262Y-121710589D01*
X191568472Y-121795142D01*
X191568524Y-121897788D01*
X191568522Y-121974362D01*
X191568498Y-121993041D01*
X191568402Y-122066774D01*
X191567945Y-122142468D01*
G37*
G36*
X203818678Y-120276215D02*
G01*
X203892170Y-120277099D01*
X203949687Y-120279441D01*
X203993792Y-120283878D01*
X204027047Y-120291052D01*
X204052014Y-120301600D01*
X204071259Y-120316163D01*
X204087342Y-120335380D01*
X204102827Y-120359891D01*
X204128445Y-120403605D01*
X204125813Y-121545991D01*
X204123180Y-122688376D01*
X204096321Y-122723589D01*
X204091280Y-122729803D01*
X204064126Y-122756180D01*
X204036179Y-122775203D01*
X204025906Y-122779461D01*
X204008733Y-122783860D01*
X203984834Y-122787104D01*
X203951546Y-122789357D01*
X203906204Y-122790786D01*
X203846145Y-122791556D01*
X203768705Y-122791832D01*
X203697876Y-122791826D01*
X203639310Y-122791495D01*
X203595315Y-122790607D01*
X203563066Y-122788935D01*
X203539740Y-122786254D01*
X203522514Y-122782337D01*
X203508563Y-122776957D01*
X203495064Y-122769889D01*
X203487804Y-122765451D01*
X203457134Y-122740376D01*
X203433557Y-122712252D01*
X203432165Y-122710004D01*
X203427773Y-122702328D01*
X203424033Y-122693678D01*
X203420877Y-122682463D01*
X203418237Y-122667095D01*
X203416046Y-122645984D01*
X203414235Y-122617540D01*
X203412735Y-122580175D01*
X203411480Y-122532299D01*
X203410401Y-122472323D01*
X203409431Y-122398658D01*
X203408500Y-122309714D01*
X203407542Y-122203902D01*
X203406488Y-122079632D01*
X203401476Y-121482476D01*
X203376589Y-121446169D01*
X203368368Y-121435066D01*
X203326582Y-121396960D01*
X203277478Y-121374837D01*
X203224939Y-121368696D01*
X203172850Y-121378537D01*
X203125095Y-121404362D01*
X203085558Y-121446169D01*
X203060671Y-121482476D01*
X203055659Y-122079632D01*
X203055342Y-122117311D01*
X203054322Y-122236116D01*
X203053379Y-122336920D01*
X203052444Y-122421313D01*
X203051449Y-122490883D01*
X203050327Y-122547221D01*
X203049008Y-122591915D01*
X203047426Y-122626554D01*
X203045513Y-122652729D01*
X203043199Y-122672028D01*
X203040418Y-122686040D01*
X203037102Y-122696355D01*
X203033181Y-122704563D01*
X203028589Y-122712252D01*
X203023545Y-122719560D01*
X202997022Y-122747727D01*
X202966193Y-122770388D01*
X202961990Y-122772730D01*
X202949025Y-122779267D01*
X202935250Y-122784175D01*
X202917919Y-122787644D01*
X202894282Y-122789864D01*
X202861592Y-122791025D01*
X202817101Y-122791317D01*
X202758061Y-122790930D01*
X202681724Y-122790054D01*
X202437592Y-122787048D01*
X202402219Y-122760049D01*
X202398186Y-122756991D01*
X202384952Y-122746907D01*
X202373671Y-122737127D01*
X202364187Y-122726087D01*
X202356345Y-122712221D01*
X202349988Y-122693963D01*
X202344962Y-122669748D01*
X202341111Y-122638009D01*
X202338278Y-122597183D01*
X202336308Y-122545702D01*
X202335045Y-122482002D01*
X202334334Y-122404517D01*
X202334019Y-122311681D01*
X202333944Y-122201929D01*
X202333954Y-122073696D01*
X202333959Y-122014785D01*
X202334023Y-121899422D01*
X202334199Y-121801781D01*
X202334534Y-121720266D01*
X202335075Y-121653278D01*
X202335870Y-121599221D01*
X202336966Y-121556497D01*
X202338411Y-121523511D01*
X202340253Y-121498664D01*
X202342538Y-121480360D01*
X202345315Y-121467001D01*
X202348631Y-121456990D01*
X202352532Y-121448731D01*
X202358474Y-121438473D01*
X202396661Y-121396283D01*
X202450021Y-121366411D01*
X202517584Y-121349438D01*
X202572543Y-121337600D01*
X202620032Y-121314958D01*
X202653915Y-121280355D01*
X202676282Y-121231557D01*
X202689229Y-121166333D01*
X202691445Y-121151788D01*
X202710998Y-121093376D01*
X202745017Y-121045790D01*
X202791372Y-121012244D01*
X202792664Y-121011617D01*
X202807682Y-121005514D01*
X202826059Y-121000731D01*
X202850577Y-120997020D01*
X202884017Y-120994138D01*
X202929161Y-120991837D01*
X202988789Y-120989872D01*
X203065682Y-120987996D01*
X203128800Y-120986524D01*
X203195528Y-120984404D01*
X203246857Y-120981450D01*
X203285416Y-120976999D01*
X203313836Y-120970388D01*
X203334748Y-120960953D01*
X203350784Y-120948032D01*
X203364573Y-120930961D01*
X203378746Y-120909077D01*
X203385904Y-120896625D01*
X203391485Y-120883277D01*
X203395728Y-120866348D01*
X203398908Y-120843096D01*
X203401299Y-120810774D01*
X203403177Y-120766640D01*
X203404814Y-120707949D01*
X203406488Y-120631957D01*
X203407555Y-120582270D01*
X203409361Y-120514067D01*
X203411639Y-120461575D01*
X203414890Y-120422086D01*
X203419615Y-120392894D01*
X203426314Y-120371292D01*
X203435488Y-120354572D01*
X203447636Y-120340029D01*
X203463261Y-120324954D01*
X203470076Y-120318703D01*
X203486410Y-120305018D01*
X203503041Y-120294630D01*
X203522792Y-120287083D01*
X203548483Y-120281926D01*
X203582937Y-120278704D01*
X203628973Y-120276965D01*
X203689414Y-120276253D01*
X203767080Y-120276117D01*
X203818678Y-120276215D01*
G37*
G36*
X215055349Y-122332069D02*
G01*
X215024667Y-122374597D01*
X214981604Y-122409292D01*
X214931019Y-122432665D01*
X214877768Y-122441231D01*
X214843112Y-122445226D01*
X214795617Y-122465958D01*
X214756840Y-122502502D01*
X214728783Y-122552744D01*
X214713454Y-122614569D01*
X214708684Y-122645939D01*
X214701814Y-122678085D01*
X214695170Y-122697835D01*
X214688017Y-122708640D01*
X214664584Y-122734911D01*
X214635390Y-122761197D01*
X214607948Y-122780390D01*
X214606422Y-122781091D01*
X214585842Y-122785128D01*
X214549326Y-122788267D01*
X214500418Y-122790522D01*
X214442663Y-122791907D01*
X214379606Y-122792436D01*
X214314792Y-122792122D01*
X214251765Y-122790978D01*
X214194071Y-122789020D01*
X214145254Y-122786259D01*
X214108860Y-122782711D01*
X214088432Y-122778388D01*
X214045963Y-122750452D01*
X214012120Y-122707826D01*
X213989707Y-122655052D01*
X213981359Y-122596598D01*
X213978141Y-122573338D01*
X213960647Y-122531563D01*
X213931816Y-122492681D01*
X213896062Y-122463574D01*
X213860829Y-122448845D01*
X213807115Y-122442188D01*
X213753558Y-122450969D01*
X213706931Y-122474784D01*
X213692145Y-122486656D01*
X213670495Y-122508915D01*
X213655410Y-122535019D01*
X213644199Y-122570352D01*
X213634171Y-122620294D01*
X213621423Y-122672281D01*
X213595699Y-122725878D01*
X213559054Y-122763176D01*
X213510632Y-122784972D01*
X213449579Y-122792060D01*
X213433087Y-122791389D01*
X213376034Y-122777732D01*
X213327930Y-122747947D01*
X213292232Y-122703971D01*
X213269787Y-122664035D01*
X213269787Y-122270459D01*
X213997386Y-122270459D01*
X214008603Y-122320011D01*
X214034482Y-122364601D01*
X214075155Y-122400186D01*
X214123035Y-122420849D01*
X214175877Y-122426360D01*
X214226732Y-122416295D01*
X214272204Y-122392479D01*
X214308891Y-122356736D01*
X214333396Y-122310891D01*
X214342320Y-122256768D01*
X214338828Y-122221266D01*
X214319956Y-122171157D01*
X214287488Y-122131201D01*
X214244571Y-122103201D01*
X214194350Y-122088962D01*
X214139972Y-122090287D01*
X214084582Y-122108982D01*
X214050407Y-122132450D01*
X214018419Y-122172636D01*
X214000702Y-122219987D01*
X213997386Y-122270459D01*
X213269787Y-122270459D01*
X213269787Y-121482883D01*
X213298506Y-121437598D01*
X213317593Y-121411974D01*
X213353471Y-121381843D01*
X213400622Y-121361332D01*
X213463086Y-121348248D01*
X213506630Y-121339141D01*
X213552586Y-121318337D01*
X213586263Y-121285496D01*
X213609916Y-121238204D01*
X213625795Y-121174052D01*
X213636187Y-121127623D01*
X213656901Y-121076685D01*
X213686726Y-121039201D01*
X213727804Y-121011762D01*
X213728375Y-121011480D01*
X213739190Y-121006740D01*
X213751840Y-121002874D01*
X213768347Y-120999793D01*
X213790734Y-120997411D01*
X213821027Y-120995637D01*
X213861248Y-120994383D01*
X213913422Y-120993562D01*
X213979572Y-120993085D01*
X214061721Y-120992864D01*
X214161894Y-120992810D01*
X214184086Y-120992822D01*
X214271129Y-120993097D01*
X214352118Y-120993707D01*
X214424721Y-120994610D01*
X214486604Y-120995765D01*
X214535437Y-120997130D01*
X214568887Y-120998664D01*
X214584622Y-121000325D01*
X214619018Y-121015319D01*
X214658962Y-121049044D01*
X214689058Y-121094012D01*
X214707245Y-121145724D01*
X214711464Y-121199685D01*
X214699654Y-121251398D01*
X214688801Y-121271364D01*
X214657342Y-121308029D01*
X214617233Y-121338987D01*
X214575645Y-121358071D01*
X214573988Y-121358488D01*
X214550186Y-121361689D01*
X214510568Y-121364470D01*
X214458901Y-121366666D01*
X214398950Y-121368111D01*
X214334480Y-121368642D01*
X214276213Y-121368829D01*
X214211273Y-121369926D01*
X214161441Y-121372516D01*
X214123861Y-121377174D01*
X214095673Y-121384471D01*
X214074022Y-121394981D01*
X214056050Y-121409277D01*
X214038900Y-121427933D01*
X214029523Y-121440015D01*
X214004050Y-121491327D01*
X213996952Y-121545727D01*
X214008244Y-121599550D01*
X214037943Y-121649131D01*
X214047974Y-121660793D01*
X214061940Y-121674821D01*
X214077309Y-121685543D01*
X214096742Y-121693479D01*
X214122903Y-121699147D01*
X214158456Y-121703064D01*
X214206063Y-121705751D01*
X214268389Y-121707724D01*
X214348096Y-121709503D01*
X214388097Y-121710339D01*
X214454759Y-121711861D01*
X214505506Y-121713435D01*
X214543093Y-121715371D01*
X214570274Y-121717983D01*
X214589805Y-121721582D01*
X214604442Y-121726480D01*
X214616938Y-121732988D01*
X214630050Y-121741418D01*
X214644358Y-121752215D01*
X214679979Y-121792978D01*
X214704236Y-121842469D01*
X214713196Y-121893493D01*
X214713488Y-121901105D01*
X214723245Y-121944833D01*
X214743599Y-121988584D01*
X214770133Y-122022361D01*
X214772254Y-122024223D01*
X214809241Y-122047242D01*
X214854890Y-122063924D01*
X214898712Y-122070355D01*
X214904482Y-122070465D01*
X214956179Y-122081585D01*
X215001115Y-122108554D01*
X215036884Y-122147961D01*
X215061085Y-122196393D01*
X215071313Y-122250439D01*
X215070621Y-122256768D01*
X215065166Y-122306685D01*
X215055349Y-122332069D01*
G37*
G36*
X216899578Y-120276215D02*
G01*
X216973070Y-120277099D01*
X217030587Y-120279441D01*
X217074692Y-120283878D01*
X217107946Y-120291052D01*
X217132914Y-120301600D01*
X217152158Y-120316163D01*
X217168242Y-120335380D01*
X217183727Y-120359891D01*
X217209345Y-120403605D01*
X217206712Y-121545991D01*
X217204080Y-122688376D01*
X217177221Y-122723589D01*
X217172179Y-122729803D01*
X217145025Y-122756180D01*
X217117078Y-122775203D01*
X217106806Y-122779461D01*
X217089633Y-122783860D01*
X217065734Y-122787104D01*
X217032446Y-122789357D01*
X216987104Y-122790786D01*
X216927045Y-122791556D01*
X216849604Y-122791832D01*
X216778776Y-122791826D01*
X216720210Y-122791495D01*
X216676215Y-122790607D01*
X216643966Y-122788935D01*
X216620640Y-122786254D01*
X216603414Y-122782337D01*
X216589463Y-122776957D01*
X216575964Y-122769889D01*
X216568704Y-122765451D01*
X216538034Y-122740376D01*
X216514457Y-122712252D01*
X216513065Y-122710004D01*
X216508673Y-122702328D01*
X216504933Y-122693678D01*
X216501777Y-122682463D01*
X216499137Y-122667095D01*
X216496946Y-122645984D01*
X216495134Y-122617540D01*
X216493635Y-122580175D01*
X216492380Y-122532299D01*
X216491301Y-122472323D01*
X216490331Y-122398658D01*
X216489400Y-122309714D01*
X216488442Y-122203902D01*
X216487387Y-122079632D01*
X216482375Y-121482476D01*
X216457488Y-121446169D01*
X216449268Y-121435066D01*
X216407482Y-121396960D01*
X216358378Y-121374837D01*
X216305839Y-121368696D01*
X216253750Y-121378537D01*
X216205995Y-121404362D01*
X216166457Y-121446169D01*
X216141570Y-121482476D01*
X216136559Y-122079632D01*
X216136242Y-122117311D01*
X216135222Y-122236116D01*
X216134279Y-122336920D01*
X216133344Y-122421313D01*
X216132349Y-122490883D01*
X216131226Y-122547221D01*
X216129908Y-122591915D01*
X216128326Y-122626554D01*
X216126413Y-122652729D01*
X216124099Y-122672028D01*
X216121318Y-122686040D01*
X216118001Y-122696355D01*
X216114081Y-122704563D01*
X216109489Y-122712252D01*
X216104445Y-122719560D01*
X216077922Y-122747727D01*
X216047093Y-122770388D01*
X216042890Y-122772730D01*
X216029924Y-122779267D01*
X216016150Y-122784175D01*
X215998819Y-122787644D01*
X215975182Y-122789864D01*
X215942492Y-122791025D01*
X215898001Y-122791317D01*
X215838961Y-122790930D01*
X215762623Y-122790054D01*
X215518492Y-122787048D01*
X215483119Y-122760049D01*
X215479086Y-122756991D01*
X215465851Y-122746907D01*
X215454570Y-122737127D01*
X215445087Y-122726087D01*
X215437244Y-122712221D01*
X215430888Y-122693963D01*
X215425862Y-122669748D01*
X215422010Y-122638009D01*
X215419177Y-122597183D01*
X215417207Y-122545702D01*
X215415945Y-122482002D01*
X215415234Y-122404517D01*
X215414919Y-122311681D01*
X215414844Y-122201929D01*
X215414854Y-122073696D01*
X215414859Y-122014785D01*
X215414923Y-121899422D01*
X215415099Y-121801781D01*
X215415433Y-121720266D01*
X215415974Y-121653278D01*
X215416769Y-121599221D01*
X215417866Y-121556497D01*
X215419311Y-121523511D01*
X215421153Y-121498664D01*
X215423438Y-121480360D01*
X215426215Y-121467001D01*
X215429530Y-121456990D01*
X215433432Y-121448731D01*
X215439374Y-121438473D01*
X215477561Y-121396283D01*
X215530921Y-121366411D01*
X215598484Y-121349438D01*
X215653443Y-121337600D01*
X215700932Y-121314958D01*
X215734814Y-121280355D01*
X215757182Y-121231557D01*
X215770128Y-121166333D01*
X215772345Y-121151788D01*
X215791897Y-121093376D01*
X215825917Y-121045790D01*
X215872272Y-121012244D01*
X215873564Y-121011617D01*
X215888581Y-121005514D01*
X215906959Y-121000731D01*
X215931477Y-120997020D01*
X215964917Y-120994138D01*
X216010061Y-120991837D01*
X216069689Y-120989872D01*
X216146582Y-120987996D01*
X216209699Y-120986524D01*
X216276428Y-120984404D01*
X216327756Y-120981450D01*
X216366315Y-120976999D01*
X216394736Y-120970388D01*
X216415648Y-120960953D01*
X216431683Y-120948032D01*
X216445472Y-120930961D01*
X216459646Y-120909077D01*
X216466803Y-120896625D01*
X216472385Y-120883277D01*
X216476628Y-120866348D01*
X216479808Y-120843096D01*
X216482199Y-120810774D01*
X216484076Y-120766640D01*
X216485714Y-120707949D01*
X216487387Y-120631957D01*
X216488454Y-120582270D01*
X216490261Y-120514067D01*
X216492539Y-120461575D01*
X216495790Y-120422086D01*
X216500515Y-120392894D01*
X216507214Y-120371292D01*
X216516387Y-120354572D01*
X216528536Y-120340029D01*
X216544161Y-120324954D01*
X216550976Y-120318703D01*
X216567309Y-120305018D01*
X216583941Y-120294630D01*
X216603692Y-120287083D01*
X216629383Y-120281926D01*
X216663836Y-120278704D01*
X216709873Y-120276965D01*
X216770314Y-120276253D01*
X216847980Y-120276117D01*
X216899578Y-120276215D01*
G37*
G36*
X194866240Y-120997893D02*
G01*
X194924692Y-120998277D01*
X194968571Y-120999206D01*
X195000720Y-121000918D01*
X195023984Y-121003645D01*
X195041208Y-121007622D01*
X195055235Y-121013085D01*
X195068911Y-121020267D01*
X195075622Y-121024378D01*
X195107656Y-121051592D01*
X195133105Y-121084105D01*
X195157362Y-121125496D01*
X195154675Y-121906154D01*
X195151989Y-122686811D01*
X195128629Y-122719563D01*
X195126024Y-122723043D01*
X195099246Y-122750185D01*
X195068487Y-122771744D01*
X195062347Y-122774832D01*
X195048331Y-122780376D01*
X195031033Y-122784531D01*
X195007658Y-122787499D01*
X194975413Y-122789487D01*
X194931503Y-122790700D01*
X194873134Y-122791341D01*
X194797513Y-122791617D01*
X194723875Y-122791677D01*
X194666046Y-122791390D01*
X194622658Y-122790526D01*
X194590885Y-122788858D01*
X194567898Y-122786160D01*
X194550870Y-122782205D01*
X194536975Y-122776765D01*
X194523385Y-122769615D01*
X194516366Y-122765297D01*
X194484550Y-122738201D01*
X194459372Y-122706086D01*
X194435296Y-122665003D01*
X194435296Y-121902231D01*
X194435377Y-121772109D01*
X194435723Y-121621548D01*
X194436344Y-121490737D01*
X194437241Y-121379507D01*
X194438418Y-121287693D01*
X194439875Y-121215126D01*
X194441616Y-121161640D01*
X194443643Y-121127067D01*
X194445957Y-121111241D01*
X194446975Y-121108705D01*
X194462483Y-121081327D01*
X194483546Y-121054563D01*
X194492313Y-121045437D01*
X194508674Y-121030180D01*
X194525695Y-121018585D01*
X194546147Y-121010151D01*
X194572799Y-121004375D01*
X194608420Y-121000755D01*
X194655779Y-120998791D01*
X194717647Y-120997980D01*
X194796792Y-120997822D01*
X194866240Y-120997893D01*
G37*
G36*
X186635133Y-120907609D02*
G01*
X186666393Y-120907641D01*
X186727725Y-120908056D01*
X186772981Y-120909121D01*
X186804951Y-120911050D01*
X186826431Y-120914062D01*
X186840212Y-120918372D01*
X186849088Y-120924198D01*
X186856895Y-120933647D01*
X186862281Y-120948131D01*
X186865483Y-120971210D01*
X186867022Y-121006697D01*
X186867419Y-121058407D01*
X186867774Y-121106903D01*
X186869312Y-121144336D01*
X186872589Y-121169556D01*
X186878158Y-121186647D01*
X186886572Y-121199691D01*
X186905724Y-121223354D01*
X187269393Y-121226228D01*
X187375221Y-121227330D01*
X187469308Y-121228949D01*
X187543415Y-121231023D01*
X187597574Y-121233553D01*
X187631816Y-121236540D01*
X187646175Y-121239984D01*
X187651836Y-121250301D01*
X187656125Y-121274467D01*
X187658535Y-121314171D01*
X187659289Y-121371642D01*
X187659084Y-121409168D01*
X187657785Y-121451876D01*
X187654912Y-121480609D01*
X187650029Y-121499015D01*
X187642700Y-121510746D01*
X187639806Y-121513607D01*
X187633060Y-121517925D01*
X187622519Y-121521358D01*
X187606151Y-121524009D01*
X187581926Y-121525975D01*
X187547811Y-121527360D01*
X187501775Y-121528261D01*
X187441786Y-121528781D01*
X187365813Y-121529020D01*
X187271824Y-121529077D01*
X187185903Y-121529234D01*
X187101947Y-121529401D01*
X187034650Y-121528846D01*
X186982186Y-121526829D01*
X186942731Y-121522612D01*
X186914458Y-121515456D01*
X186895542Y-121504623D01*
X186884159Y-121489372D01*
X186878483Y-121468966D01*
X186876688Y-121442666D01*
X186876950Y-121409732D01*
X186877443Y-121369425D01*
X186877437Y-121324198D01*
X186876028Y-121284586D01*
X186870889Y-121255203D01*
X186859690Y-121234524D01*
X186840100Y-121221024D01*
X186809789Y-121213178D01*
X186766427Y-121209462D01*
X186707683Y-121208351D01*
X186631227Y-121208319D01*
X186614918Y-121208310D01*
X186549987Y-121207969D01*
X186501799Y-121206989D01*
X186467634Y-121205163D01*
X186444772Y-121202288D01*
X186430495Y-121198157D01*
X186422081Y-121192567D01*
X186418769Y-121188572D01*
X186412698Y-121174310D01*
X186408881Y-121150558D01*
X186406898Y-121113806D01*
X186406330Y-121060543D01*
X186406181Y-121021146D01*
X186406830Y-120981389D01*
X186410653Y-120952156D01*
X186420060Y-120931836D01*
X186437458Y-120918822D01*
X186465256Y-120911501D01*
X186505862Y-120908265D01*
X186561685Y-120907505D01*
X186635133Y-120907609D01*
G37*
G36*
X194873638Y-120271182D02*
G01*
X194928360Y-120271585D01*
X194969092Y-120272587D01*
X194998759Y-120274458D01*
X195020285Y-120277469D01*
X195036595Y-120281892D01*
X195050614Y-120287997D01*
X195065264Y-120296057D01*
X195108538Y-120330210D01*
X195138957Y-120374839D01*
X195154867Y-120425201D01*
X195156641Y-120477698D01*
X195144653Y-120528732D01*
X195119276Y-120574704D01*
X195080884Y-120612016D01*
X195029850Y-120637071D01*
X195026201Y-120637892D01*
X195002478Y-120640274D01*
X194963188Y-120642162D01*
X194911752Y-120643458D01*
X194851591Y-120644068D01*
X194786124Y-120643896D01*
X194720257Y-120643171D01*
X194662689Y-120642039D01*
X194619561Y-120640334D01*
X194587906Y-120637810D01*
X194564760Y-120634222D01*
X194547157Y-120629325D01*
X194532132Y-120622873D01*
X194530052Y-120621821D01*
X194487040Y-120589241D01*
X194456567Y-120544988D01*
X194439497Y-120493528D01*
X194436698Y-120439325D01*
X194449034Y-120386842D01*
X194477373Y-120340544D01*
X194487682Y-120328950D01*
X194505900Y-120310328D01*
X194524236Y-120296201D01*
X194545535Y-120285949D01*
X194572647Y-120278951D01*
X194608417Y-120274588D01*
X194655692Y-120272240D01*
X194717320Y-120271285D01*
X194796148Y-120271105D01*
X194802004Y-120271105D01*
X194873638Y-120271182D01*
G37*
G36*
X199305280Y-121017761D02*
G01*
X199332967Y-121037804D01*
X199365739Y-121074152D01*
X199388505Y-121114983D01*
X199397072Y-121154069D01*
X199402143Y-121198799D01*
X199420920Y-121250775D01*
X199450859Y-121294762D01*
X199489112Y-121326798D01*
X199532831Y-121342922D01*
X199538965Y-121343857D01*
X199604190Y-121356172D01*
X199653135Y-121371302D01*
X199689266Y-121391099D01*
X199716052Y-121417421D01*
X199736961Y-121452122D01*
X199739940Y-121458446D01*
X199744629Y-121470059D01*
X199748422Y-121483459D01*
X199751412Y-121500678D01*
X199753695Y-121523742D01*
X199755366Y-121554681D01*
X199756521Y-121595524D01*
X199757253Y-121648299D01*
X199757658Y-121715035D01*
X199757832Y-121797761D01*
X199757869Y-121898505D01*
X199757862Y-121945615D01*
X199757769Y-122038185D01*
X199757493Y-122113613D01*
X199756940Y-122173912D01*
X199756020Y-122221092D01*
X199754640Y-122257167D01*
X199752708Y-122284149D01*
X199750132Y-122304049D01*
X199746821Y-122318880D01*
X199742682Y-122330654D01*
X199737623Y-122341383D01*
X199734380Y-122347355D01*
X199700885Y-122388013D01*
X199655496Y-122419018D01*
X199605008Y-122435546D01*
X199604497Y-122435623D01*
X199567919Y-122441200D01*
X199532631Y-122446642D01*
X199526489Y-122447828D01*
X199486524Y-122464983D01*
X199449210Y-122494913D01*
X199421756Y-122532062D01*
X199414160Y-122551893D01*
X199404986Y-122586902D01*
X199397831Y-122625964D01*
X199394081Y-122648073D01*
X199376909Y-122702209D01*
X199349050Y-122742344D01*
X199308502Y-122771744D01*
X199304242Y-122773917D01*
X199293774Y-122778343D01*
X199280952Y-122781946D01*
X199263812Y-122784816D01*
X199240386Y-122787038D01*
X199208709Y-122788698D01*
X199166815Y-122789884D01*
X199112738Y-122790682D01*
X199044511Y-122791179D01*
X198960169Y-122791462D01*
X198857746Y-122791617D01*
X198759455Y-122791633D01*
X198671033Y-122791395D01*
X198599194Y-122790837D01*
X198542138Y-122789899D01*
X198498068Y-122788527D01*
X198465186Y-122786662D01*
X198441694Y-122784246D01*
X198425793Y-122781224D01*
X198415686Y-122777537D01*
X198391969Y-122761944D01*
X198358927Y-122729635D01*
X198333120Y-122692364D01*
X198319965Y-122656955D01*
X198319904Y-122656561D01*
X198314316Y-122620718D01*
X198308606Y-122584069D01*
X198306953Y-122574884D01*
X198286723Y-122521927D01*
X198250559Y-122480564D01*
X198199310Y-122451516D01*
X198133825Y-122435506D01*
X198120495Y-122433642D01*
X198072418Y-122422464D01*
X198035269Y-122403847D01*
X198001857Y-122374466D01*
X197982239Y-122349978D01*
X197958867Y-122298102D01*
X197954314Y-122241637D01*
X197969024Y-122183167D01*
X197986776Y-122148065D01*
X198015306Y-122115289D01*
X198056951Y-122088825D01*
X198065174Y-122084858D01*
X198079323Y-122079573D01*
X198096586Y-122075739D01*
X198119783Y-122073186D01*
X198151738Y-122071742D01*
X198195270Y-122071235D01*
X198253202Y-122071495D01*
X198328356Y-122072350D01*
X198346652Y-122072588D01*
X198416831Y-122073596D01*
X198470378Y-122074730D01*
X198510082Y-122076281D01*
X198538732Y-122078538D01*
X198559116Y-122081792D01*
X198574023Y-122086331D01*
X198586243Y-122092446D01*
X198598564Y-122100426D01*
X198630117Y-122130266D01*
X198658002Y-122171638D01*
X198677804Y-122216780D01*
X198685335Y-122258083D01*
X198692894Y-122306122D01*
X198716292Y-122352659D01*
X198752030Y-122390251D01*
X198796542Y-122416146D01*
X198846259Y-122427591D01*
X198897614Y-122421835D01*
X198906896Y-122418948D01*
X198951959Y-122399819D01*
X198984047Y-122374015D01*
X199009176Y-122336958D01*
X199014705Y-122326035D01*
X199019472Y-122314009D01*
X199023271Y-122299345D01*
X199026241Y-122279867D01*
X199028519Y-122253400D01*
X199030245Y-122217766D01*
X199031555Y-122170790D01*
X199032588Y-122110296D01*
X199033483Y-122034107D01*
X199034377Y-121940047D01*
X199034525Y-121923422D01*
X199035296Y-121819132D01*
X199035525Y-121732652D01*
X199035089Y-121662031D01*
X199033862Y-121605318D01*
X199031721Y-121560560D01*
X199028541Y-121525807D01*
X199024196Y-121499107D01*
X199018562Y-121478508D01*
X199011515Y-121462059D01*
X199002929Y-121447809D01*
X198979946Y-121417983D01*
X198947731Y-121391359D01*
X198908659Y-121377615D01*
X198856728Y-121373710D01*
X198828866Y-121374178D01*
X198798615Y-121377593D01*
X198775651Y-121386080D01*
X198752349Y-121401682D01*
X198742859Y-121409114D01*
X198718649Y-121431979D01*
X198702803Y-121457057D01*
X198692346Y-121490290D01*
X198684303Y-121537619D01*
X198681939Y-121552285D01*
X198662275Y-121616101D01*
X198629751Y-121666144D01*
X198585255Y-121700948D01*
X198581148Y-121703047D01*
X198567521Y-121708568D01*
X198550452Y-121712714D01*
X198527174Y-121715677D01*
X198494919Y-121717648D01*
X198450921Y-121718819D01*
X198392412Y-121719382D01*
X198316624Y-121719527D01*
X198311437Y-121719526D01*
X198232447Y-121719212D01*
X198171071Y-121718251D01*
X198125017Y-121716517D01*
X198091991Y-121713887D01*
X198069700Y-121710237D01*
X198055852Y-121705443D01*
X198013672Y-121674468D01*
X197979723Y-121629170D01*
X197959484Y-121576164D01*
X197954709Y-121520179D01*
X197967149Y-121465950D01*
X197971378Y-121456823D01*
X198003020Y-121414287D01*
X198048099Y-121380007D01*
X198101526Y-121357106D01*
X198158211Y-121348706D01*
X198164909Y-121348470D01*
X198209047Y-121336386D01*
X198249709Y-121308923D01*
X198283256Y-121270132D01*
X198306052Y-121224061D01*
X198314459Y-121174761D01*
X198314460Y-121174248D01*
X198318499Y-121138616D01*
X198328002Y-121105098D01*
X198344690Y-121077346D01*
X198374738Y-121044355D01*
X198409630Y-121016621D01*
X198442445Y-121000472D01*
X198444581Y-121000046D01*
X198465025Y-120998380D01*
X198502605Y-120996854D01*
X198554984Y-120995511D01*
X198619826Y-120994393D01*
X198694794Y-120993542D01*
X198777551Y-120993000D01*
X198865761Y-120992810D01*
X199261697Y-120992810D01*
X199305280Y-121017761D01*
G37*
G36*
X210408027Y-123410082D02*
G01*
X210381167Y-123445294D01*
X210376126Y-123451508D01*
X210348972Y-123477885D01*
X210321025Y-123496908D01*
X210310752Y-123501166D01*
X210293579Y-123505565D01*
X210269681Y-123508809D01*
X210236392Y-123511062D01*
X210191050Y-123512491D01*
X210130991Y-123513260D01*
X210053551Y-123513537D01*
X209982722Y-123513531D01*
X209924156Y-123513199D01*
X209880161Y-123512311D01*
X209847912Y-123510640D01*
X209824586Y-123507959D01*
X209807360Y-123504042D01*
X209793409Y-123498662D01*
X209779910Y-123491593D01*
X209772650Y-123487156D01*
X209741980Y-123462081D01*
X209718403Y-123433957D01*
X209711923Y-123422660D01*
X209706387Y-123409403D01*
X209702161Y-123392468D01*
X209698977Y-123369129D01*
X209696569Y-123336657D01*
X209694671Y-123292323D01*
X209693014Y-123233400D01*
X209691334Y-123157160D01*
X209690531Y-123118750D01*
X209689002Y-123051707D01*
X209687427Y-123000639D01*
X209685496Y-122962795D01*
X209682898Y-122935421D01*
X209679324Y-122915764D01*
X209674465Y-122901069D01*
X209668011Y-122888585D01*
X209659651Y-122875558D01*
X209654140Y-122867404D01*
X209637693Y-122846112D01*
X209619669Y-122829586D01*
X209597427Y-122817168D01*
X209568331Y-122808203D01*
X209529741Y-122802036D01*
X209479019Y-122798009D01*
X209413528Y-122795468D01*
X209330628Y-122793756D01*
X209326908Y-122793694D01*
X209253000Y-122792295D01*
X209196149Y-122790688D01*
X209153490Y-122788625D01*
X209122162Y-122785856D01*
X209099299Y-122782131D01*
X209082039Y-122777201D01*
X209067518Y-122770815D01*
X209054982Y-122763664D01*
X209015657Y-122727353D01*
X208987714Y-122675326D01*
X208970774Y-122606940D01*
X208961938Y-122563585D01*
X208941451Y-122513342D01*
X208909923Y-122477766D01*
X208864847Y-122454359D01*
X208803718Y-122440626D01*
X208788124Y-122438124D01*
X208722808Y-122418391D01*
X208672361Y-122385948D01*
X208637379Y-122341151D01*
X208636318Y-122339114D01*
X208631887Y-122329014D01*
X208628269Y-122316517D01*
X208626705Y-122307381D01*
X209345517Y-122307381D01*
X209370404Y-122343701D01*
X209374441Y-122349240D01*
X209401777Y-122378165D01*
X209431911Y-122400603D01*
X209465867Y-122414917D01*
X209520037Y-122421608D01*
X209573631Y-122411215D01*
X209622263Y-122384826D01*
X209661550Y-122343533D01*
X209686322Y-122307381D01*
X209686322Y-121895675D01*
X209686301Y-121797623D01*
X209686175Y-121713405D01*
X209685845Y-121645382D01*
X209685215Y-121591589D01*
X209684188Y-121550063D01*
X209682667Y-121518839D01*
X209680555Y-121495954D01*
X209677756Y-121479441D01*
X209674172Y-121467339D01*
X209669707Y-121457682D01*
X209664264Y-121448505D01*
X209644209Y-121422546D01*
X209601967Y-121390566D01*
X209552592Y-121373108D01*
X209500274Y-121370173D01*
X209449205Y-121381761D01*
X209403575Y-121407872D01*
X209367575Y-121448505D01*
X209362323Y-121457330D01*
X209357822Y-121466932D01*
X209354206Y-121478904D01*
X209351378Y-121495208D01*
X209349242Y-121517811D01*
X209347700Y-121548675D01*
X209346655Y-121589766D01*
X209346012Y-121643047D01*
X209345672Y-121710483D01*
X209345539Y-121794038D01*
X209345517Y-121895675D01*
X209345517Y-122307381D01*
X208626705Y-122307381D01*
X208625383Y-122299664D01*
X208623147Y-122276491D01*
X208621478Y-122245040D01*
X208620296Y-122203347D01*
X208619519Y-122149452D01*
X208619065Y-122081393D01*
X208618853Y-121997210D01*
X208618800Y-121894941D01*
X208618802Y-121871456D01*
X208618882Y-121773219D01*
X208619139Y-121692648D01*
X208619655Y-121627783D01*
X208620512Y-121576662D01*
X208621791Y-121537323D01*
X208623574Y-121507807D01*
X208625943Y-121486150D01*
X208628979Y-121470393D01*
X208632763Y-121458574D01*
X208637379Y-121448731D01*
X208643430Y-121438288D01*
X208681719Y-121396063D01*
X208735347Y-121366267D01*
X208803718Y-121349256D01*
X208850278Y-121340023D01*
X208899086Y-121319619D01*
X208933882Y-121287816D01*
X208957158Y-121242094D01*
X208971410Y-121179937D01*
X208976370Y-121152822D01*
X208997466Y-121091124D01*
X209030499Y-121044599D01*
X209076218Y-121012046D01*
X209078234Y-121011060D01*
X209089155Y-121006404D01*
X209102007Y-121002611D01*
X209118804Y-120999595D01*
X209141560Y-120997267D01*
X209172285Y-120995538D01*
X209212994Y-120994321D01*
X209265699Y-120993528D01*
X209332413Y-120993070D01*
X209415149Y-120992860D01*
X209515919Y-120992810D01*
X209536481Y-120992811D01*
X209633681Y-120992885D01*
X209713228Y-120993135D01*
X209777135Y-120993650D01*
X209827413Y-120994516D01*
X209866077Y-120995823D01*
X209895139Y-120997659D01*
X209916611Y-121000111D01*
X209932507Y-121003267D01*
X209944839Y-121007216D01*
X209955620Y-121012046D01*
X209974188Y-121022620D01*
X210015092Y-121060239D01*
X210043589Y-121112278D01*
X210060429Y-121179937D01*
X210070197Y-121227579D01*
X210090881Y-121277341D01*
X210122434Y-121312530D01*
X210167349Y-121335662D01*
X210228121Y-121349256D01*
X210243509Y-121351720D01*
X210308939Y-121371448D01*
X210359473Y-121403943D01*
X210394579Y-121448887D01*
X210395397Y-121450454D01*
X210398418Y-121457186D01*
X210401072Y-121465617D01*
X210403378Y-121476970D01*
X210405356Y-121492469D01*
X210407025Y-121513335D01*
X210408405Y-121540793D01*
X210409516Y-121576066D01*
X210410377Y-121620377D01*
X210411009Y-121674950D01*
X210411430Y-121741007D01*
X210411662Y-121819772D01*
X210411722Y-121912468D01*
X210411632Y-122020318D01*
X210411410Y-122144545D01*
X210411077Y-122286374D01*
X210411021Y-122307381D01*
X210410651Y-122447026D01*
X210408027Y-123410082D01*
G37*
G36*
X192842293Y-120992844D02*
G01*
X192906324Y-120993390D01*
X192963882Y-120994515D01*
X193011574Y-120996117D01*
X193046006Y-120998088D01*
X193063785Y-121000325D01*
X193072804Y-121003418D01*
X193109159Y-121024617D01*
X193143703Y-121056007D01*
X193168858Y-121091046D01*
X193176424Y-121110375D01*
X193185835Y-121146149D01*
X193192627Y-121185418D01*
X193198876Y-121218827D01*
X193221554Y-121273918D01*
X193257104Y-121314678D01*
X193304344Y-121339968D01*
X193362093Y-121348650D01*
X193368001Y-121348562D01*
X193425100Y-121337752D01*
X193473356Y-121310541D01*
X193510574Y-121269286D01*
X193534564Y-121216343D01*
X193543132Y-121154069D01*
X193548105Y-121125368D01*
X193567250Y-121084981D01*
X193596656Y-121047606D01*
X193631910Y-121019912D01*
X193642799Y-121014229D01*
X193698246Y-120997105D01*
X193754090Y-120997084D01*
X193806372Y-121013086D01*
X193851129Y-121044029D01*
X193884400Y-121088832D01*
X193887811Y-121095894D01*
X193891037Y-121104291D01*
X193893803Y-121114806D01*
X193896138Y-121128819D01*
X193898072Y-121147707D01*
X193899632Y-121172851D01*
X193900849Y-121205630D01*
X193901752Y-121247423D01*
X193902369Y-121299608D01*
X193902731Y-121363566D01*
X193902865Y-121440675D01*
X193902801Y-121532315D01*
X193902569Y-121639864D01*
X193902197Y-121764702D01*
X193901715Y-121908208D01*
X193899029Y-122688380D01*
X193872169Y-122723591D01*
X193867129Y-122729803D01*
X193839975Y-122756180D01*
X193812027Y-122775203D01*
X193801755Y-122779461D01*
X193784582Y-122783860D01*
X193760683Y-122787104D01*
X193727394Y-122789357D01*
X193682052Y-122790786D01*
X193621993Y-122791556D01*
X193544553Y-122791832D01*
X193473724Y-122791826D01*
X193415159Y-122791495D01*
X193371163Y-122790607D01*
X193338915Y-122788935D01*
X193315589Y-122786254D01*
X193298362Y-122782337D01*
X193284411Y-122776957D01*
X193270913Y-122769889D01*
X193263653Y-122765451D01*
X193232983Y-122740376D01*
X193209406Y-122712252D01*
X193208014Y-122710004D01*
X193203622Y-122702328D01*
X193199882Y-122693678D01*
X193196726Y-122682463D01*
X193194086Y-122667095D01*
X193191894Y-122645984D01*
X193190083Y-122617540D01*
X193188584Y-122580175D01*
X193187329Y-122532299D01*
X193186250Y-122472323D01*
X193185279Y-122398658D01*
X193184349Y-122309714D01*
X193183390Y-122203902D01*
X193182336Y-122079632D01*
X193177324Y-121482476D01*
X193152437Y-121446169D01*
X193144217Y-121435066D01*
X193102431Y-121396960D01*
X193053327Y-121374837D01*
X193000788Y-121368696D01*
X192948699Y-121378537D01*
X192900944Y-121404362D01*
X192861406Y-121446169D01*
X192836519Y-121482476D01*
X192831507Y-122079632D01*
X192831191Y-122117311D01*
X192830171Y-122236116D01*
X192829227Y-122336920D01*
X192828292Y-122421313D01*
X192827297Y-122490883D01*
X192826175Y-122547221D01*
X192824857Y-122591915D01*
X192823275Y-122626554D01*
X192821361Y-122652729D01*
X192819048Y-122672028D01*
X192816267Y-122686040D01*
X192812950Y-122696355D01*
X192809030Y-122704563D01*
X192804437Y-122712252D01*
X192799394Y-122719560D01*
X192772870Y-122747727D01*
X192742042Y-122770388D01*
X192737838Y-122772730D01*
X192724873Y-122779267D01*
X192711099Y-122784175D01*
X192693767Y-122787644D01*
X192670131Y-122789864D01*
X192637441Y-122791025D01*
X192592950Y-122791317D01*
X192533909Y-122790930D01*
X192457572Y-122790054D01*
X192213440Y-122787048D01*
X192178067Y-122760049D01*
X192174034Y-122756991D01*
X192160800Y-122746907D01*
X192149519Y-122737127D01*
X192140035Y-122726087D01*
X192132193Y-122712221D01*
X192125837Y-122693963D01*
X192120811Y-122669748D01*
X192116959Y-122638009D01*
X192114126Y-122597183D01*
X192112156Y-122545702D01*
X192110894Y-122482002D01*
X192110183Y-122404517D01*
X192109868Y-122311681D01*
X192109793Y-122201929D01*
X192109802Y-122073696D01*
X192109808Y-122014785D01*
X192109872Y-121899422D01*
X192110047Y-121801781D01*
X192110382Y-121720266D01*
X192110923Y-121653278D01*
X192111718Y-121599221D01*
X192112815Y-121556497D01*
X192114260Y-121523511D01*
X192116101Y-121498664D01*
X192118387Y-121480360D01*
X192121164Y-121467001D01*
X192124479Y-121456990D01*
X192128381Y-121448731D01*
X192134433Y-121438288D01*
X192172722Y-121396063D01*
X192226350Y-121366267D01*
X192294720Y-121349256D01*
X192341280Y-121340023D01*
X192390089Y-121319619D01*
X192424884Y-121287816D01*
X192448161Y-121242094D01*
X192462412Y-121179937D01*
X192467372Y-121152822D01*
X192488468Y-121091124D01*
X192521502Y-121044599D01*
X192567221Y-121012046D01*
X192567626Y-121011846D01*
X192582465Y-121005444D01*
X192599483Y-121000645D01*
X192621658Y-120997223D01*
X192651968Y-120994955D01*
X192693390Y-120993613D01*
X192748903Y-120992973D01*
X192821484Y-120992810D01*
X192842293Y-120992844D01*
G37*
G36*
X197245356Y-120990086D02*
G01*
X197307168Y-120994759D01*
X197355661Y-121003327D01*
X197393155Y-121016404D01*
X197421972Y-121034604D01*
X197444431Y-121058542D01*
X197462853Y-121088832D01*
X197466264Y-121095894D01*
X197469490Y-121104291D01*
X197472256Y-121114806D01*
X197474591Y-121128819D01*
X197476525Y-121147707D01*
X197478085Y-121172851D01*
X197479302Y-121205630D01*
X197480205Y-121247423D01*
X197480822Y-121299608D01*
X197481184Y-121363566D01*
X197481318Y-121440675D01*
X197481254Y-121532315D01*
X197481022Y-121639864D01*
X197480650Y-121764702D01*
X197480168Y-121908208D01*
X197477482Y-122688380D01*
X197450622Y-122723591D01*
X197445582Y-122729803D01*
X197418428Y-122756180D01*
X197390480Y-122775203D01*
X197380208Y-122779461D01*
X197363035Y-122783860D01*
X197339136Y-122787104D01*
X197305847Y-122789357D01*
X197260505Y-122790786D01*
X197200446Y-122791556D01*
X197123006Y-122791832D01*
X197052177Y-122791826D01*
X196993612Y-122791495D01*
X196949616Y-122790607D01*
X196917368Y-122788935D01*
X196894042Y-122786254D01*
X196876815Y-122782337D01*
X196862864Y-122776957D01*
X196849366Y-122769889D01*
X196842106Y-122765451D01*
X196811436Y-122740376D01*
X196787859Y-122712252D01*
X196781975Y-122702108D01*
X196776246Y-122688916D01*
X196771877Y-122672271D01*
X196768592Y-122649408D01*
X196766116Y-122617562D01*
X196764174Y-122573966D01*
X196762490Y-122515856D01*
X196760789Y-122440466D01*
X196760151Y-122410503D01*
X196758590Y-122342470D01*
X196757006Y-122290651D01*
X196755079Y-122252254D01*
X196752489Y-122224487D01*
X196748917Y-122204558D01*
X196744042Y-122189674D01*
X196737545Y-122177044D01*
X196729107Y-122163876D01*
X196718394Y-122149440D01*
X196677556Y-122114049D01*
X196629047Y-122093776D01*
X196577034Y-122088623D01*
X196525684Y-122098588D01*
X196479165Y-122123672D01*
X196441643Y-122163876D01*
X196438261Y-122169007D01*
X196430581Y-122181649D01*
X196424724Y-122194791D01*
X196420371Y-122211223D01*
X196417201Y-122233738D01*
X196414894Y-122265127D01*
X196413132Y-122308184D01*
X196411594Y-122365699D01*
X196409960Y-122440466D01*
X196408561Y-122503447D01*
X196406894Y-122564509D01*
X196405020Y-122610552D01*
X196402662Y-122644339D01*
X196399546Y-122668638D01*
X196395395Y-122686213D01*
X196389935Y-122699829D01*
X196382890Y-122712252D01*
X196378411Y-122718816D01*
X196352049Y-122747183D01*
X196321384Y-122769889D01*
X196308714Y-122776565D01*
X196294865Y-122782046D01*
X196277912Y-122786051D01*
X196255030Y-122788808D01*
X196223396Y-122790544D01*
X196180186Y-122791486D01*
X196122576Y-122791860D01*
X196047743Y-122791895D01*
X195974213Y-122791764D01*
X195916356Y-122791326D01*
X195872946Y-122790348D01*
X195841156Y-122788594D01*
X195818160Y-122785831D01*
X195801130Y-122781824D01*
X195787239Y-122776338D01*
X195773661Y-122769138D01*
X195741864Y-122745025D01*
X195709903Y-122701474D01*
X195691598Y-122649410D01*
X195688410Y-122593518D01*
X195701798Y-122538484D01*
X195715910Y-122513421D01*
X195747906Y-122478086D01*
X195786802Y-122450636D01*
X195825867Y-122436600D01*
X195886576Y-122425527D01*
X195939427Y-122410912D01*
X195975004Y-122394499D01*
X195982884Y-122388624D01*
X196010728Y-122354717D01*
X196032149Y-122306882D01*
X196044921Y-122249730D01*
X196054248Y-122202668D01*
X196077185Y-122150411D01*
X196113177Y-122111937D01*
X196163816Y-122085710D01*
X196230690Y-122070192D01*
X196267354Y-122062650D01*
X196323537Y-122038752D01*
X196365171Y-122002754D01*
X196391043Y-121955881D01*
X196399937Y-121899361D01*
X196397604Y-121867937D01*
X196380313Y-121815652D01*
X196346757Y-121774545D01*
X196297627Y-121745325D01*
X196233614Y-121728703D01*
X196180848Y-121717848D01*
X196127320Y-121695010D01*
X196088499Y-121660455D01*
X196062386Y-121612254D01*
X196046980Y-121548476D01*
X196036524Y-121498184D01*
X196014422Y-121445436D01*
X195981193Y-121407553D01*
X195934797Y-121382418D01*
X195873197Y-121367912D01*
X195818194Y-121355625D01*
X195761760Y-121328927D01*
X195721108Y-121290152D01*
X195696515Y-121239583D01*
X195688255Y-121177506D01*
X195688624Y-121164714D01*
X195701249Y-121106363D01*
X195731374Y-121057550D01*
X195778361Y-121019392D01*
X195823575Y-120992810D01*
X196049108Y-120992810D01*
X196083464Y-120992830D01*
X196154332Y-120993238D01*
X196209179Y-120994605D01*
X196250861Y-120997497D01*
X196282232Y-121002478D01*
X196306147Y-121010110D01*
X196325462Y-121020960D01*
X196343031Y-121035589D01*
X196361710Y-121054563D01*
X196372776Y-121066911D01*
X196385472Y-121084676D01*
X196394920Y-121105174D01*
X196401593Y-121131288D01*
X196405961Y-121165906D01*
X196408497Y-121211911D01*
X196409673Y-121272189D01*
X196409960Y-121349625D01*
X196410204Y-121418258D01*
X196411150Y-121477974D01*
X196412976Y-121522924D01*
X196415856Y-121555881D01*
X196419964Y-121579622D01*
X196425474Y-121596922D01*
X196442743Y-121630684D01*
X196480331Y-121674181D01*
X196528081Y-121700600D01*
X196585375Y-121709503D01*
X196620539Y-121706348D01*
X196672236Y-121686984D01*
X196714021Y-121650363D01*
X196745275Y-121596922D01*
X196750298Y-121581603D01*
X196754539Y-121558634D01*
X196757535Y-121526727D01*
X196759459Y-121483107D01*
X196760485Y-121424998D01*
X196760789Y-121349625D01*
X196760918Y-121293512D01*
X196761777Y-121228384D01*
X196763855Y-121178395D01*
X196767624Y-121140661D01*
X196773555Y-121112295D01*
X196782120Y-121090414D01*
X196793791Y-121072132D01*
X196809039Y-121054563D01*
X196820227Y-121043039D01*
X196839403Y-121025908D01*
X196859677Y-121013169D01*
X196884208Y-121004087D01*
X196916154Y-120997927D01*
X196958674Y-120993955D01*
X197014925Y-120991434D01*
X197088064Y-120989632D01*
X197167904Y-120988694D01*
X197245356Y-120990086D01*
G37*
G36*
X187167379Y-121538906D02*
G01*
X187266136Y-121539100D01*
X187324816Y-121539135D01*
X187408620Y-121539386D01*
X187475596Y-121539951D01*
X187527760Y-121540916D01*
X187567129Y-121542365D01*
X187595722Y-121544384D01*
X187615555Y-121547057D01*
X187628646Y-121550469D01*
X187637012Y-121554704D01*
X187643938Y-121560083D01*
X187651048Y-121569215D01*
X187655544Y-121583496D01*
X187658021Y-121606648D01*
X187659071Y-121642397D01*
X187659289Y-121694467D01*
X187659195Y-121733134D01*
X187658450Y-121773281D01*
X187656452Y-121799739D01*
X187652610Y-121816234D01*
X187646327Y-121826489D01*
X187637012Y-121834230D01*
X187631904Y-121837126D01*
X187620688Y-121840783D01*
X187603437Y-121843683D01*
X187578151Y-121845909D01*
X187542828Y-121847544D01*
X187495465Y-121848670D01*
X187434062Y-121849372D01*
X187356615Y-121849733D01*
X187261124Y-121849834D01*
X187176320Y-121849680D01*
X187092261Y-121849510D01*
X187024878Y-121850058D01*
X186972345Y-121852063D01*
X186932833Y-121856267D01*
X186904517Y-121863411D01*
X186885570Y-121874236D01*
X186874164Y-121889482D01*
X186868473Y-121909890D01*
X186866669Y-121936201D01*
X186866927Y-121969157D01*
X186867419Y-122009497D01*
X186867287Y-122039342D01*
X186866113Y-122084424D01*
X186863387Y-122114719D01*
X186858706Y-122133694D01*
X186851667Y-122144817D01*
X186849446Y-122146775D01*
X186839574Y-122151808D01*
X186823050Y-122155486D01*
X186797197Y-122158004D01*
X186759336Y-122159560D01*
X186706788Y-122160349D01*
X186636874Y-122160568D01*
X186612104Y-122160548D01*
X186548123Y-122160165D01*
X186500638Y-122159148D01*
X186466969Y-122157301D01*
X186444439Y-122154428D01*
X186430370Y-122150332D01*
X186422081Y-122144817D01*
X186418769Y-122140822D01*
X186412698Y-122126559D01*
X186408881Y-122102808D01*
X186406898Y-122066056D01*
X186406330Y-122012792D01*
X186406215Y-121979285D01*
X186406685Y-121937602D01*
X186410096Y-121906916D01*
X186418890Y-121885551D01*
X186435508Y-121871831D01*
X186462393Y-121864078D01*
X186501986Y-121860616D01*
X186556728Y-121859768D01*
X186629063Y-121859858D01*
X186679169Y-121859691D01*
X186741222Y-121858611D01*
X186787623Y-121856204D01*
X186821025Y-121852093D01*
X186844081Y-121845902D01*
X186859445Y-121837257D01*
X186869771Y-121825781D01*
X186872523Y-121813168D01*
X186874956Y-121784432D01*
X186876631Y-121744228D01*
X186877289Y-121696973D01*
X186877019Y-121666267D01*
X186876614Y-121631745D01*
X186877844Y-121604056D01*
X186882549Y-121582454D01*
X186892571Y-121566192D01*
X186909748Y-121554521D01*
X186935921Y-121546696D01*
X186972931Y-121541970D01*
X187022617Y-121539594D01*
X187086820Y-121538821D01*
X187167379Y-121538906D01*
G37*
G36*
X207791314Y-120998116D02*
G01*
X207849248Y-120998552D01*
X207892714Y-120999527D01*
X207924544Y-121001278D01*
X207947568Y-121004040D01*
X207964618Y-121008048D01*
X207978523Y-121013537D01*
X207992116Y-121020744D01*
X207997921Y-121024288D01*
X208029876Y-121051277D01*
X208054727Y-121083227D01*
X208077447Y-121123118D01*
X208074978Y-121725325D01*
X208072510Y-122327532D01*
X208044426Y-122364345D01*
X208021649Y-122390228D01*
X207989232Y-122413866D01*
X207947823Y-122429725D01*
X207891962Y-122440533D01*
X207839744Y-122451849D01*
X207792030Y-122474502D01*
X207757884Y-122509222D01*
X207735294Y-122558181D01*
X207722247Y-122623549D01*
X207716180Y-122656876D01*
X207693603Y-122711518D01*
X207656414Y-122752818D01*
X207604124Y-122781232D01*
X207536243Y-122797219D01*
X207511686Y-122801044D01*
X207465326Y-122814169D01*
X207429809Y-122835726D01*
X207398935Y-122868953D01*
X207388223Y-122883986D01*
X207377168Y-122906462D01*
X207372080Y-122933373D01*
X207370852Y-122972486D01*
X207371268Y-122998481D01*
X207374628Y-123029148D01*
X207383148Y-123052405D01*
X207398935Y-123076020D01*
X207400265Y-123077748D01*
X207437179Y-123114750D01*
X207481770Y-123137791D01*
X207539288Y-123149624D01*
X207570415Y-123155323D01*
X207619328Y-123172851D01*
X207661311Y-123197779D01*
X207689809Y-123226749D01*
X207706023Y-123256892D01*
X207720707Y-123312348D01*
X207718911Y-123368048D01*
X207701593Y-123420042D01*
X207669712Y-123464382D01*
X207624224Y-123497116D01*
X207605005Y-123502308D01*
X207568269Y-123507001D01*
X207518672Y-123510639D01*
X207459868Y-123513206D01*
X207395508Y-123514684D01*
X207329244Y-123515055D01*
X207264730Y-123514301D01*
X207205617Y-123512404D01*
X207155558Y-123509348D01*
X207118204Y-123505113D01*
X207097209Y-123499682D01*
X207066741Y-123479049D01*
X207029062Y-123435961D01*
X207004020Y-123383195D01*
X206994799Y-123326143D01*
X206994799Y-123326084D01*
X206985705Y-123279016D01*
X206961584Y-123234917D01*
X206926489Y-123198049D01*
X206884475Y-123172671D01*
X206839597Y-123163045D01*
X206813746Y-123161216D01*
X206756879Y-123145499D01*
X206707124Y-123116054D01*
X206668567Y-123075734D01*
X206645292Y-123027391D01*
X206641894Y-123006380D01*
X206638744Y-122967189D01*
X206636311Y-122914121D01*
X206634737Y-122850390D01*
X206634168Y-122779209D01*
X206633869Y-122706060D01*
X206632555Y-122643068D01*
X206629643Y-122594792D01*
X206624551Y-122558456D01*
X206616696Y-122531283D01*
X206605494Y-122510497D01*
X206590363Y-122493321D01*
X206570720Y-122476978D01*
X206562609Y-122471213D01*
X206522575Y-122452288D01*
X206468843Y-122440533D01*
X206423449Y-122432350D01*
X206379428Y-122417792D01*
X206345558Y-122396033D01*
X206316378Y-122364345D01*
X206288295Y-122327532D01*
X206285826Y-121725325D01*
X206283358Y-121123118D01*
X206306078Y-121083227D01*
X206309640Y-121077423D01*
X206336707Y-121045510D01*
X206368689Y-121020744D01*
X206381899Y-121013720D01*
X206395756Y-121008184D01*
X206412676Y-121004136D01*
X206435488Y-121001342D01*
X206467025Y-120999565D01*
X206510117Y-120998571D01*
X206567595Y-120998123D01*
X206642289Y-120997987D01*
X206705848Y-120998193D01*
X206782287Y-120999381D01*
X206840080Y-121001604D01*
X206878769Y-121004840D01*
X206897892Y-121009070D01*
X206906902Y-121014265D01*
X206937665Y-121037547D01*
X206967566Y-121066376D01*
X206988309Y-121093047D01*
X206990237Y-121099574D01*
X206992796Y-121120353D01*
X206995105Y-121155299D01*
X206997187Y-121205250D01*
X206999064Y-121271047D01*
X207000761Y-121353531D01*
X207002298Y-121453542D01*
X207003700Y-121571919D01*
X207004988Y-121709503D01*
X207005295Y-121746009D01*
X207006316Y-121864899D01*
X207007261Y-121965776D01*
X207008197Y-122050229D01*
X207009191Y-122119849D01*
X207010314Y-122176227D01*
X207011632Y-122220953D01*
X207013214Y-122255618D01*
X207015127Y-122281811D01*
X207017441Y-122301124D01*
X207020222Y-122315146D01*
X207023540Y-122325469D01*
X207027463Y-122333682D01*
X207032058Y-122341376D01*
X207052112Y-122367335D01*
X207094355Y-122399316D01*
X207143730Y-122416774D01*
X207196047Y-122419708D01*
X207247116Y-122408121D01*
X207292746Y-122382010D01*
X207328747Y-122341376D01*
X207330097Y-122339196D01*
X207334498Y-122331517D01*
X207338245Y-122322876D01*
X207341407Y-122311684D01*
X207344052Y-122296349D01*
X207346247Y-122275281D01*
X207348062Y-122246889D01*
X207349563Y-122209584D01*
X207350820Y-122161775D01*
X207351900Y-122101872D01*
X207352871Y-122028283D01*
X207353803Y-121939419D01*
X207354762Y-121833689D01*
X207355817Y-121709503D01*
X207356697Y-121612215D01*
X207358061Y-121488010D01*
X207359554Y-121382432D01*
X207361199Y-121294639D01*
X207363019Y-121223790D01*
X207365035Y-121169047D01*
X207367272Y-121129569D01*
X207369751Y-121104516D01*
X207372495Y-121093047D01*
X207377878Y-121084874D01*
X207402595Y-121056628D01*
X207433705Y-121028792D01*
X207462912Y-121009070D01*
X207474037Y-121006038D01*
X207506746Y-121002494D01*
X207558702Y-120999957D01*
X207629445Y-120998448D01*
X207718516Y-120997987D01*
X207791314Y-120998116D01*
G37*
G36*
X185175560Y-120267538D02*
G01*
X185258817Y-120268430D01*
X185323913Y-120270123D01*
X185370223Y-120272605D01*
X185397124Y-120275864D01*
X185421048Y-120282382D01*
X185475551Y-120309914D01*
X185517400Y-120350701D01*
X185544376Y-120402122D01*
X185554262Y-120461555D01*
X185555226Y-120475500D01*
X185569105Y-120523641D01*
X185596090Y-120568727D01*
X185631869Y-120602905D01*
X185646135Y-120610684D01*
X185682122Y-120623516D01*
X185721929Y-120631658D01*
X185743791Y-120634817D01*
X185799471Y-120649536D01*
X185841908Y-120673604D01*
X185875422Y-120709205D01*
X185890298Y-120733061D01*
X185909341Y-120788588D01*
X185909840Y-120845428D01*
X185892079Y-120900006D01*
X185856344Y-120948745D01*
X185844052Y-120959816D01*
X185811030Y-120982567D01*
X185779624Y-120996665D01*
X185760974Y-120999811D01*
X185723013Y-121003021D01*
X185671173Y-121005486D01*
X185608811Y-121007053D01*
X185539282Y-121007569D01*
X185500697Y-121007486D01*
X185439250Y-121006948D01*
X185393099Y-121005707D01*
X185359105Y-121003521D01*
X185334135Y-121000144D01*
X185315049Y-120995332D01*
X185298713Y-120988842D01*
X185264061Y-120969158D01*
X185220232Y-120928146D01*
X185192879Y-120877693D01*
X185183441Y-120819908D01*
X185175322Y-120768866D01*
X185150573Y-120720442D01*
X185112436Y-120681813D01*
X185064200Y-120656242D01*
X185009154Y-120646993D01*
X185008418Y-120646995D01*
X184953261Y-120656247D01*
X184904443Y-120681502D01*
X184866118Y-120719746D01*
X184842438Y-120767966D01*
X184842129Y-120769143D01*
X184839131Y-120791392D01*
X184836551Y-120829602D01*
X184834539Y-120880049D01*
X184833249Y-120939012D01*
X184832832Y-121002767D01*
X184832926Y-121034127D01*
X184833948Y-121106436D01*
X184836553Y-121162704D01*
X184841331Y-121205843D01*
X184848871Y-121238766D01*
X184859759Y-121264389D01*
X184874586Y-121285623D01*
X184893938Y-121305382D01*
X184899276Y-121310134D01*
X184916591Y-121323023D01*
X184936491Y-121332709D01*
X184961883Y-121339638D01*
X184995679Y-121344257D01*
X185040786Y-121347010D01*
X185100116Y-121348345D01*
X185176576Y-121348706D01*
X185183904Y-121348715D01*
X185247856Y-121349350D01*
X185306825Y-121350871D01*
X185357047Y-121353114D01*
X185394753Y-121355917D01*
X185416180Y-121359115D01*
X185432621Y-121364702D01*
X185480206Y-121393358D01*
X185518705Y-121435151D01*
X185544477Y-121485319D01*
X185553877Y-121539100D01*
X185553560Y-121548078D01*
X185541661Y-121598719D01*
X185515371Y-121647057D01*
X185478538Y-121685607D01*
X185440671Y-121714515D01*
X185204301Y-121719725D01*
X185154605Y-121720905D01*
X185080127Y-121723356D01*
X185021691Y-121726782D01*
X184976734Y-121731813D01*
X184942688Y-121739078D01*
X184916987Y-121749206D01*
X184897065Y-121762826D01*
X184880356Y-121780566D01*
X184864295Y-121803056D01*
X184837624Y-121843358D01*
X184837624Y-122081737D01*
X184837709Y-122154203D01*
X184838118Y-122209685D01*
X184839097Y-122251001D01*
X184840893Y-122280972D01*
X184843753Y-122302419D01*
X184847925Y-122318161D01*
X184853654Y-122331019D01*
X184861187Y-122343812D01*
X184863063Y-122346757D01*
X184899114Y-122385735D01*
X184944274Y-122410399D01*
X184994477Y-122420978D01*
X185045653Y-122417696D01*
X185093735Y-122400780D01*
X185134653Y-122370456D01*
X185164341Y-122326951D01*
X185168019Y-122318219D01*
X185178782Y-122283376D01*
X185183221Y-122252965D01*
X185183369Y-122248119D01*
X185191435Y-122205725D01*
X185208831Y-122161869D01*
X185231436Y-122127292D01*
X185234622Y-122124048D01*
X185257409Y-122106296D01*
X185285784Y-122089336D01*
X185289470Y-122087509D01*
X185303695Y-122081740D01*
X185320916Y-122077418D01*
X185343973Y-122074339D01*
X185375710Y-122072300D01*
X185418967Y-122071101D01*
X185476587Y-122070537D01*
X185551412Y-122070407D01*
X185618173Y-122070486D01*
X185676359Y-122070866D01*
X185719873Y-122071788D01*
X185751552Y-122073493D01*
X185774234Y-122076221D01*
X185790758Y-122080214D01*
X185803959Y-122085713D01*
X185816678Y-122092960D01*
X185828823Y-122100933D01*
X185872718Y-122142272D01*
X185901200Y-122191963D01*
X185912767Y-122246478D01*
X185905914Y-122302290D01*
X185899451Y-122320127D01*
X185868734Y-122368768D01*
X185824370Y-122407036D01*
X185770325Y-122432112D01*
X185710565Y-122441175D01*
X185700683Y-122442192D01*
X185670506Y-122451086D01*
X185638856Y-122466149D01*
X185623284Y-122476786D01*
X185587683Y-122514738D01*
X185563337Y-122561490D01*
X185554317Y-122610109D01*
X185547485Y-122656023D01*
X185525261Y-122706391D01*
X185491218Y-122749051D01*
X185449068Y-122778076D01*
X185443425Y-122780092D01*
X185428128Y-122783159D01*
X185404656Y-122785595D01*
X185371316Y-122787442D01*
X185326409Y-122788743D01*
X185268241Y-122789540D01*
X185195116Y-122789875D01*
X185105338Y-122789790D01*
X184997211Y-122789328D01*
X184575425Y-122787048D01*
X184538617Y-122758965D01*
X184536679Y-122757472D01*
X184499475Y-122720082D01*
X184476312Y-122674713D01*
X184464592Y-122616359D01*
X184462049Y-122599150D01*
X184451610Y-122558541D01*
X184437663Y-122524972D01*
X184422473Y-122503603D01*
X184387428Y-122472247D01*
X184346330Y-122449966D01*
X184306369Y-122441340D01*
X184271760Y-122438195D01*
X184216642Y-122421933D01*
X184171001Y-122394546D01*
X184161825Y-122386687D01*
X184145620Y-122371038D01*
X184133273Y-122354409D01*
X184124260Y-122334076D01*
X184118059Y-122307316D01*
X184114146Y-122271406D01*
X184111998Y-122223620D01*
X184111093Y-122161236D01*
X184110907Y-122081529D01*
X184110910Y-122076113D01*
X184111453Y-121999124D01*
X184112888Y-121933022D01*
X184115120Y-121880095D01*
X184118055Y-121842632D01*
X184121599Y-121822922D01*
X184135594Y-121794489D01*
X184172189Y-121754199D01*
X184224461Y-121725886D01*
X184292793Y-121709297D01*
X184329073Y-121701833D01*
X184385172Y-121677981D01*
X184426845Y-121642052D01*
X184452798Y-121595350D01*
X184461736Y-121539178D01*
X184459247Y-121505575D01*
X184442037Y-121453308D01*
X184408678Y-121412766D01*
X184359426Y-121384213D01*
X184294538Y-121367910D01*
X184279379Y-121365474D01*
X184214687Y-121345773D01*
X184164400Y-121313294D01*
X184129486Y-121268617D01*
X184127134Y-121263990D01*
X184121696Y-121250340D01*
X184117613Y-121233150D01*
X184114696Y-121209670D01*
X184112755Y-121177148D01*
X184111603Y-121132834D01*
X184111050Y-121073975D01*
X184110907Y-120997822D01*
X184110924Y-120967929D01*
X184111194Y-120898389D01*
X184111943Y-120845142D01*
X184113360Y-120805438D01*
X184115635Y-120776526D01*
X184118955Y-120755654D01*
X184123509Y-120740071D01*
X184129486Y-120727026D01*
X184135427Y-120716769D01*
X184173615Y-120674578D01*
X184226974Y-120644706D01*
X184294538Y-120627733D01*
X184343766Y-120617378D01*
X184393457Y-120594652D01*
X184429222Y-120559580D01*
X184452884Y-120510220D01*
X184466264Y-120444628D01*
X184468344Y-120430722D01*
X184487737Y-120372098D01*
X184521764Y-120324247D01*
X184568326Y-120290341D01*
X184575171Y-120287150D01*
X184587442Y-120282693D01*
X184602872Y-120279089D01*
X184623572Y-120276221D01*
X184651653Y-120273974D01*
X184689226Y-120272234D01*
X184738402Y-120270885D01*
X184801292Y-120269811D01*
X184880007Y-120268897D01*
X184976659Y-120268028D01*
X185074766Y-120267457D01*
X185175560Y-120267538D01*
G37*
G36*
X201974449Y-122332069D02*
G01*
X201943767Y-122374597D01*
X201900705Y-122409292D01*
X201850119Y-122432665D01*
X201796868Y-122441231D01*
X201762212Y-122445226D01*
X201714717Y-122465958D01*
X201675940Y-122502502D01*
X201647884Y-122552744D01*
X201632554Y-122614569D01*
X201627784Y-122645939D01*
X201620914Y-122678085D01*
X201614270Y-122697835D01*
X201607117Y-122708640D01*
X201583684Y-122734911D01*
X201554490Y-122761197D01*
X201527048Y-122780390D01*
X201525523Y-122781091D01*
X201504943Y-122785128D01*
X201468426Y-122788267D01*
X201419518Y-122790522D01*
X201361763Y-122791907D01*
X201298706Y-122792436D01*
X201233892Y-122792122D01*
X201170865Y-122790978D01*
X201113171Y-122789020D01*
X201064355Y-122786259D01*
X201027960Y-122782711D01*
X201007533Y-122778388D01*
X200965063Y-122750452D01*
X200931220Y-122707826D01*
X200908808Y-122655052D01*
X200900459Y-122596598D01*
X200897241Y-122573338D01*
X200879747Y-122531563D01*
X200850916Y-122492681D01*
X200815162Y-122463574D01*
X200779929Y-122448845D01*
X200726215Y-122442188D01*
X200672659Y-122450969D01*
X200626032Y-122474784D01*
X200611245Y-122486656D01*
X200589595Y-122508915D01*
X200574510Y-122535019D01*
X200563299Y-122570352D01*
X200553271Y-122620294D01*
X200540523Y-122672281D01*
X200514799Y-122725878D01*
X200478154Y-122763176D01*
X200429732Y-122784972D01*
X200368679Y-122792060D01*
X200352187Y-122791389D01*
X200295134Y-122777732D01*
X200247030Y-122747947D01*
X200211332Y-122703971D01*
X200188887Y-122664035D01*
X200188887Y-122270459D01*
X200916487Y-122270459D01*
X200927703Y-122320011D01*
X200953582Y-122364601D01*
X200994255Y-122400186D01*
X201042135Y-122420849D01*
X201094977Y-122426360D01*
X201145833Y-122416295D01*
X201191304Y-122392479D01*
X201227992Y-122356736D01*
X201252497Y-122310891D01*
X201261420Y-122256768D01*
X201257928Y-122221266D01*
X201239056Y-122171157D01*
X201206588Y-122131201D01*
X201163671Y-122103201D01*
X201113450Y-122088962D01*
X201059072Y-122090287D01*
X201003683Y-122108982D01*
X200969507Y-122132450D01*
X200937520Y-122172636D01*
X200919803Y-122219987D01*
X200916487Y-122270459D01*
X200188887Y-122270459D01*
X200188887Y-121482883D01*
X200217606Y-121437598D01*
X200236694Y-121411974D01*
X200272571Y-121381843D01*
X200319722Y-121361332D01*
X200382186Y-121348248D01*
X200425730Y-121339141D01*
X200471686Y-121318337D01*
X200505364Y-121285496D01*
X200529016Y-121238204D01*
X200544895Y-121174052D01*
X200555287Y-121127623D01*
X200576001Y-121076685D01*
X200605826Y-121039201D01*
X200646904Y-121011762D01*
X200647475Y-121011480D01*
X200658291Y-121006740D01*
X200670940Y-121002874D01*
X200687447Y-120999793D01*
X200709835Y-120997411D01*
X200740127Y-120995637D01*
X200780349Y-120994383D01*
X200832522Y-120993562D01*
X200898672Y-120993085D01*
X200980821Y-120992864D01*
X201080994Y-120992810D01*
X201103186Y-120992822D01*
X201190230Y-120993097D01*
X201271219Y-120993707D01*
X201343821Y-120994610D01*
X201405705Y-120995765D01*
X201454537Y-120997130D01*
X201487987Y-120998664D01*
X201503722Y-121000325D01*
X201538119Y-121015319D01*
X201578062Y-121049044D01*
X201608158Y-121094012D01*
X201626345Y-121145724D01*
X201630564Y-121199685D01*
X201618754Y-121251398D01*
X201607901Y-121271364D01*
X201576442Y-121308029D01*
X201536333Y-121338987D01*
X201494745Y-121358071D01*
X201493088Y-121358488D01*
X201469286Y-121361689D01*
X201429669Y-121364470D01*
X201378001Y-121366666D01*
X201318050Y-121368111D01*
X201253581Y-121368642D01*
X201195313Y-121368829D01*
X201130373Y-121369926D01*
X201080542Y-121372516D01*
X201042961Y-121377174D01*
X201014774Y-121384471D01*
X200993123Y-121394981D01*
X200975151Y-121409277D01*
X200958000Y-121427933D01*
X200948623Y-121440015D01*
X200923150Y-121491327D01*
X200916052Y-121545727D01*
X200927344Y-121599550D01*
X200957043Y-121649131D01*
X200967074Y-121660793D01*
X200981041Y-121674821D01*
X200996409Y-121685543D01*
X201015842Y-121693479D01*
X201042003Y-121699147D01*
X201077556Y-121703064D01*
X201125163Y-121705751D01*
X201187489Y-121707724D01*
X201267196Y-121709503D01*
X201307197Y-121710339D01*
X201373860Y-121711861D01*
X201424606Y-121713435D01*
X201462193Y-121715371D01*
X201489374Y-121717983D01*
X201508906Y-121721582D01*
X201523542Y-121726480D01*
X201536039Y-121732988D01*
X201549151Y-121741418D01*
X201563458Y-121752215D01*
X201599079Y-121792978D01*
X201623337Y-121842469D01*
X201632297Y-121893493D01*
X201632588Y-121901105D01*
X201642345Y-121944833D01*
X201662699Y-121988584D01*
X201689233Y-122022361D01*
X201691354Y-122024223D01*
X201728342Y-122047242D01*
X201773991Y-122063924D01*
X201817812Y-122070355D01*
X201823582Y-122070465D01*
X201875280Y-122081585D01*
X201920215Y-122108554D01*
X201955984Y-122147961D01*
X201980185Y-122196393D01*
X201990413Y-122250439D01*
X201989721Y-122256768D01*
X201984267Y-122306685D01*
X201974449Y-122332069D01*
G37*
G36*
X212733520Y-123410082D02*
G01*
X212706660Y-123445294D01*
X212701619Y-123451508D01*
X212674465Y-123477885D01*
X212646518Y-123496908D01*
X212636246Y-123501166D01*
X212619073Y-123505565D01*
X212595174Y-123508809D01*
X212561885Y-123511062D01*
X212516543Y-123512491D01*
X212456484Y-123513260D01*
X212379044Y-123513537D01*
X212308215Y-123513531D01*
X212249650Y-123513199D01*
X212205654Y-123512311D01*
X212173406Y-123510640D01*
X212150080Y-123507959D01*
X212132853Y-123504042D01*
X212118902Y-123498662D01*
X212105404Y-123491593D01*
X212098144Y-123487156D01*
X212067474Y-123462081D01*
X212043897Y-123433957D01*
X212037416Y-123422660D01*
X212031880Y-123409403D01*
X212027654Y-123392468D01*
X212024470Y-123369129D01*
X212022063Y-123336657D01*
X212020164Y-123292323D01*
X212018508Y-123233400D01*
X212016827Y-123157160D01*
X212016024Y-123118750D01*
X212014495Y-123051707D01*
X212012920Y-123000639D01*
X212010989Y-122962795D01*
X212008391Y-122935421D01*
X212004818Y-122915764D01*
X211999959Y-122901069D01*
X211993504Y-122888585D01*
X211985144Y-122875558D01*
X211979633Y-122867404D01*
X211963187Y-122846112D01*
X211945162Y-122829586D01*
X211922920Y-122817168D01*
X211893824Y-122808203D01*
X211855234Y-122802036D01*
X211804513Y-122798009D01*
X211739021Y-122795468D01*
X211656122Y-122793756D01*
X211652401Y-122793694D01*
X211578493Y-122792295D01*
X211521642Y-122790688D01*
X211478984Y-122788625D01*
X211447655Y-122785856D01*
X211424793Y-122782131D01*
X211407532Y-122777201D01*
X211393011Y-122770815D01*
X211380476Y-122763664D01*
X211341151Y-122727353D01*
X211313208Y-122675326D01*
X211296267Y-122606940D01*
X211287432Y-122563585D01*
X211266944Y-122513342D01*
X211235416Y-122477766D01*
X211190341Y-122454359D01*
X211129211Y-122440626D01*
X211113617Y-122438124D01*
X211048302Y-122418391D01*
X210997854Y-122385948D01*
X210962872Y-122341151D01*
X210961811Y-122339114D01*
X210957380Y-122329014D01*
X210953763Y-122316517D01*
X210952198Y-122307381D01*
X211671010Y-122307381D01*
X211695897Y-122343701D01*
X211699935Y-122349240D01*
X211727271Y-122378165D01*
X211757404Y-122400603D01*
X211791360Y-122414917D01*
X211845531Y-122421608D01*
X211899124Y-122411215D01*
X211947756Y-122384826D01*
X211987043Y-122343533D01*
X212011815Y-122307381D01*
X212011815Y-121895675D01*
X212011795Y-121797623D01*
X212011668Y-121713405D01*
X212011338Y-121645382D01*
X212010708Y-121591589D01*
X212009681Y-121550063D01*
X212008160Y-121518839D01*
X212006049Y-121495954D01*
X212003249Y-121479441D01*
X211999666Y-121467339D01*
X211995201Y-121457682D01*
X211989757Y-121448505D01*
X211969703Y-121422546D01*
X211927460Y-121390566D01*
X211878085Y-121373108D01*
X211825768Y-121370173D01*
X211774699Y-121381761D01*
X211729069Y-121407872D01*
X211693068Y-121448505D01*
X211687816Y-121457330D01*
X211683315Y-121466932D01*
X211679699Y-121478904D01*
X211676871Y-121495208D01*
X211674735Y-121517811D01*
X211673193Y-121548675D01*
X211672149Y-121589766D01*
X211671505Y-121643047D01*
X211671166Y-121710483D01*
X211671033Y-121794038D01*
X211671010Y-121895675D01*
X211671010Y-122307381D01*
X210952198Y-122307381D01*
X210950876Y-122299664D01*
X210948640Y-122276491D01*
X210946972Y-122245040D01*
X210945790Y-122203347D01*
X210945013Y-122149452D01*
X210944559Y-122081393D01*
X210944346Y-121997210D01*
X210944293Y-121894941D01*
X210944295Y-121871456D01*
X210944375Y-121773219D01*
X210944633Y-121692648D01*
X210945149Y-121627783D01*
X210946006Y-121576662D01*
X210947285Y-121537323D01*
X210949068Y-121507807D01*
X210951436Y-121486150D01*
X210954472Y-121470393D01*
X210958257Y-121458574D01*
X210962872Y-121448731D01*
X210968924Y-121438288D01*
X211007213Y-121396063D01*
X211060841Y-121366267D01*
X211129211Y-121349256D01*
X211175771Y-121340023D01*
X211224579Y-121319619D01*
X211259375Y-121287816D01*
X211282652Y-121242094D01*
X211296903Y-121179937D01*
X211301863Y-121152822D01*
X211322959Y-121091124D01*
X211355993Y-121044599D01*
X211401712Y-121012046D01*
X211403728Y-121011060D01*
X211414648Y-121006404D01*
X211427500Y-121002611D01*
X211444298Y-120999595D01*
X211467053Y-120997267D01*
X211497779Y-120995538D01*
X211538488Y-120994321D01*
X211591193Y-120993528D01*
X211657907Y-120993070D01*
X211740642Y-120992860D01*
X211841413Y-120992810D01*
X211861974Y-120992811D01*
X211959175Y-120992885D01*
X212038722Y-120993135D01*
X212102628Y-120993650D01*
X212152907Y-120994516D01*
X212191571Y-120995823D01*
X212220632Y-120997659D01*
X212242105Y-121000111D01*
X212258000Y-121003267D01*
X212270332Y-121007216D01*
X212281113Y-121012046D01*
X212299681Y-121022620D01*
X212340585Y-121060239D01*
X212369083Y-121112278D01*
X212385922Y-121179937D01*
X212395690Y-121227579D01*
X212416374Y-121277341D01*
X212447927Y-121312530D01*
X212492842Y-121335662D01*
X212553614Y-121349256D01*
X212569002Y-121351720D01*
X212634433Y-121371448D01*
X212684967Y-121403943D01*
X212720072Y-121448887D01*
X212720890Y-121450454D01*
X212723912Y-121457186D01*
X212726565Y-121465617D01*
X212728871Y-121476970D01*
X212730849Y-121492469D01*
X212732518Y-121513335D01*
X212733898Y-121540793D01*
X212735009Y-121576066D01*
X212735870Y-121620377D01*
X212736502Y-121674950D01*
X212736924Y-121741007D01*
X212737155Y-121819772D01*
X212737216Y-121912468D01*
X212737125Y-122020318D01*
X212736903Y-122144545D01*
X212736570Y-122286374D01*
X212736514Y-122307381D01*
X212736145Y-122447026D01*
X212733520Y-123410082D01*
G37*
G36*
X106301210Y-122127887D02*
G01*
X106270394Y-122170601D01*
X106227144Y-122205446D01*
X106176338Y-122228922D01*
X106122854Y-122237525D01*
X106088047Y-122241537D01*
X106040346Y-122262359D01*
X106001399Y-122299063D01*
X105973220Y-122349524D01*
X105957824Y-122411619D01*
X105953033Y-122443126D01*
X105946133Y-122475411D01*
X105939460Y-122495248D01*
X105932276Y-122506100D01*
X105908741Y-122532485D01*
X105879420Y-122558886D01*
X105851858Y-122578162D01*
X105850326Y-122578867D01*
X105829656Y-122582921D01*
X105792980Y-122586073D01*
X105743859Y-122588339D01*
X105685852Y-122589730D01*
X105622520Y-122590261D01*
X105557424Y-122589945D01*
X105494122Y-122588797D01*
X105436177Y-122586830D01*
X105387147Y-122584057D01*
X105350594Y-122580493D01*
X105330077Y-122576151D01*
X105287423Y-122548094D01*
X105253432Y-122505282D01*
X105230922Y-122452278D01*
X105222537Y-122393570D01*
X105219305Y-122370207D01*
X105201735Y-122328251D01*
X105172778Y-122289199D01*
X105136869Y-122259966D01*
X105101482Y-122245172D01*
X105047534Y-122238486D01*
X104993743Y-122247305D01*
X104946913Y-122271225D01*
X104932062Y-122283148D01*
X104910318Y-122305503D01*
X104895167Y-122331722D01*
X104883907Y-122367209D01*
X104873835Y-122417369D01*
X104861032Y-122469582D01*
X104835196Y-122523413D01*
X104798391Y-122560874D01*
X104749758Y-122582764D01*
X104688438Y-122589883D01*
X104671875Y-122589209D01*
X104614573Y-122575492D01*
X104566259Y-122545578D01*
X104530406Y-122501410D01*
X104507862Y-122461300D01*
X104507862Y-122066008D01*
X105238635Y-122066008D01*
X105249900Y-122115776D01*
X105275892Y-122160560D01*
X105316742Y-122196301D01*
X105364831Y-122217054D01*
X105417903Y-122222589D01*
X105468980Y-122212481D01*
X105514650Y-122188560D01*
X105551498Y-122152661D01*
X105576110Y-122106616D01*
X105585072Y-122052257D01*
X105581564Y-122016601D01*
X105562610Y-121966273D01*
X105530001Y-121926143D01*
X105486896Y-121898021D01*
X105436457Y-121883720D01*
X105381841Y-121885051D01*
X105326211Y-121903827D01*
X105291886Y-121927398D01*
X105259759Y-121967759D01*
X105241965Y-122015316D01*
X105238635Y-122066008D01*
X104507862Y-122066008D01*
X104507862Y-121274999D01*
X104536707Y-121229516D01*
X104555878Y-121203781D01*
X104591912Y-121173518D01*
X104639268Y-121152917D01*
X104702004Y-121139776D01*
X104745739Y-121130630D01*
X104791894Y-121109735D01*
X104825719Y-121076750D01*
X104849474Y-121029253D01*
X104865423Y-120964821D01*
X104875860Y-120918189D01*
X104896665Y-120867030D01*
X104926619Y-120829383D01*
X104967877Y-120801823D01*
X104968450Y-120801540D01*
X104979313Y-120796779D01*
X104992017Y-120792896D01*
X105008596Y-120789803D01*
X105031082Y-120787409D01*
X105061506Y-120785628D01*
X105101903Y-120784369D01*
X105154304Y-120783545D01*
X105220742Y-120783065D01*
X105303250Y-120782843D01*
X105403859Y-120782789D01*
X105426148Y-120782800D01*
X105513571Y-120783077D01*
X105594913Y-120783690D01*
X105667832Y-120784597D01*
X105729985Y-120785757D01*
X105779031Y-120787128D01*
X105812627Y-120788668D01*
X105828430Y-120790336D01*
X105862977Y-120805396D01*
X105903094Y-120839268D01*
X105933321Y-120884432D01*
X105951588Y-120936370D01*
X105955825Y-120990566D01*
X105943964Y-121042504D01*
X105933064Y-121062557D01*
X105901467Y-121099382D01*
X105861183Y-121130475D01*
X105819414Y-121149643D01*
X105817750Y-121150061D01*
X105793844Y-121153276D01*
X105754054Y-121156069D01*
X105702161Y-121158274D01*
X105641949Y-121159726D01*
X105577198Y-121160259D01*
X105518676Y-121160447D01*
X105453453Y-121161549D01*
X105403405Y-121164151D01*
X105365660Y-121168828D01*
X105337350Y-121176157D01*
X105315605Y-121186713D01*
X105297554Y-121201072D01*
X105280329Y-121219809D01*
X105270911Y-121231943D01*
X105245327Y-121283479D01*
X105238198Y-121338116D01*
X105249540Y-121392174D01*
X105279368Y-121441971D01*
X105289442Y-121453684D01*
X105303470Y-121467773D01*
X105318905Y-121478542D01*
X105338423Y-121486513D01*
X105364698Y-121492205D01*
X105400406Y-121496140D01*
X105448221Y-121498838D01*
X105510818Y-121500820D01*
X105590873Y-121502606D01*
X105631048Y-121503446D01*
X105698001Y-121504975D01*
X105748970Y-121506555D01*
X105786720Y-121508500D01*
X105814020Y-121511124D01*
X105833636Y-121514738D01*
X105848337Y-121519657D01*
X105860888Y-121526194D01*
X105874057Y-121534661D01*
X105888427Y-121545505D01*
X105924203Y-121586445D01*
X105948566Y-121636152D01*
X105957565Y-121687399D01*
X105957858Y-121695044D01*
X105967658Y-121738963D01*
X105988100Y-121782904D01*
X106014750Y-121816828D01*
X106016880Y-121818699D01*
X106054029Y-121841818D01*
X106099877Y-121858573D01*
X106143889Y-121865032D01*
X106149685Y-121865142D01*
X106201608Y-121876311D01*
X106246739Y-121903398D01*
X106282664Y-121942976D01*
X106306970Y-121991620D01*
X106317244Y-122045900D01*
X106316549Y-122052257D01*
X106311070Y-122102392D01*
X106301210Y-122127887D01*
G37*
G36*
X103171622Y-120057938D02*
G01*
X103269926Y-120058004D01*
X103350372Y-120058245D01*
X103414995Y-120058750D01*
X103465832Y-120059609D01*
X103504921Y-120060913D01*
X103534297Y-120062752D01*
X103555999Y-120065216D01*
X103572061Y-120068394D01*
X103584522Y-120072378D01*
X103595418Y-120077258D01*
X103614066Y-120087877D01*
X103655149Y-120125661D01*
X103683770Y-120177927D01*
X103700684Y-120245880D01*
X103710494Y-120293730D01*
X103731268Y-120343709D01*
X103762959Y-120379051D01*
X103808070Y-120402284D01*
X103869107Y-120415938D01*
X103884562Y-120418412D01*
X103950277Y-120438226D01*
X104001032Y-120470863D01*
X104036290Y-120516003D01*
X104037112Y-120517576D01*
X104040147Y-120524338D01*
X104042812Y-120532806D01*
X104045128Y-120544209D01*
X104047114Y-120559774D01*
X104048790Y-120580732D01*
X104050176Y-120608310D01*
X104051292Y-120643737D01*
X104052158Y-120688241D01*
X104052792Y-120743051D01*
X104053215Y-120809396D01*
X104053448Y-120888505D01*
X104053508Y-120981605D01*
X104053418Y-121089925D01*
X104053195Y-121214694D01*
X104052860Y-121357141D01*
X104052433Y-121518494D01*
X104049797Y-122485749D01*
X104022820Y-122521114D01*
X104017757Y-122527355D01*
X103990485Y-122553847D01*
X103962416Y-122572953D01*
X103952098Y-122577229D01*
X103934851Y-122581648D01*
X103910848Y-122584905D01*
X103877414Y-122587169D01*
X103831874Y-122588604D01*
X103771553Y-122589377D01*
X103693775Y-122589654D01*
X103620365Y-122589647D01*
X103562138Y-122589306D01*
X103518438Y-122588401D01*
X103486426Y-122586700D01*
X103463261Y-122583974D01*
X103446104Y-122579992D01*
X103432114Y-122574524D01*
X103418452Y-122567340D01*
X103411402Y-122563003D01*
X103379448Y-122535790D01*
X103354160Y-122503534D01*
X103329979Y-122462272D01*
X103329979Y-121889250D01*
X103329976Y-121872666D01*
X103329755Y-121751812D01*
X103329202Y-121641704D01*
X103328337Y-121543682D01*
X103327184Y-121459088D01*
X103325762Y-121389263D01*
X103324095Y-121335549D01*
X103322203Y-121299286D01*
X103320110Y-121281815D01*
X103315898Y-121269624D01*
X103291249Y-121228451D01*
X103255452Y-121193560D01*
X103213883Y-121169360D01*
X103171918Y-121160259D01*
X103143586Y-121157965D01*
X103089385Y-121142029D01*
X103040246Y-121113661D01*
X103001135Y-121076113D01*
X102977014Y-121032635D01*
X102972679Y-121016744D01*
X102968755Y-120962301D01*
X102979067Y-120908399D01*
X103002437Y-120862895D01*
X103003767Y-120861162D01*
X103042931Y-120821042D01*
X103088851Y-120796002D01*
X103147201Y-120782908D01*
X103168734Y-120779275D01*
X103209589Y-120768247D01*
X103242387Y-120754565D01*
X103272042Y-120733392D01*
X103305166Y-120691872D01*
X103323233Y-120642840D01*
X103325628Y-120590474D01*
X103311737Y-120538953D01*
X103280945Y-120492453D01*
X103263677Y-120474736D01*
X103246552Y-120460826D01*
X103227076Y-120450652D01*
X103202286Y-120443629D01*
X103169217Y-120439176D01*
X103124907Y-120436709D01*
X103066391Y-120435648D01*
X102990705Y-120435408D01*
X102977896Y-120435385D01*
X102913034Y-120434691D01*
X102853498Y-120433144D01*
X102802991Y-120430901D01*
X102765213Y-120428119D01*
X102743867Y-120424954D01*
X102727354Y-120419342D01*
X102679562Y-120390562D01*
X102640895Y-120348586D01*
X102615011Y-120298200D01*
X102605570Y-120244184D01*
X102608006Y-120218335D01*
X102624660Y-120168694D01*
X102653825Y-120123103D01*
X102691645Y-120086915D01*
X102734263Y-120065485D01*
X102736388Y-120065063D01*
X102756809Y-120063422D01*
X102794444Y-120061920D01*
X102846950Y-120060597D01*
X102911984Y-120059496D01*
X102987204Y-120058658D01*
X103070268Y-120058124D01*
X103158834Y-120057937D01*
X103171622Y-120057938D01*
G37*
G36*
X95105695Y-120782823D02*
G01*
X95170005Y-120783371D01*
X95227814Y-120784502D01*
X95275714Y-120786110D01*
X95310296Y-120788090D01*
X95328153Y-120790336D01*
X95337210Y-120793443D01*
X95373724Y-120814734D01*
X95408418Y-120846261D01*
X95433683Y-120881453D01*
X95441283Y-120900867D01*
X95450734Y-120936796D01*
X95457557Y-120976237D01*
X95463833Y-121009791D01*
X95486610Y-121065122D01*
X95522314Y-121106060D01*
X95569760Y-121131460D01*
X95627761Y-121140181D01*
X95633695Y-121140092D01*
X95691043Y-121129234D01*
X95739509Y-121101905D01*
X95776890Y-121060470D01*
X95800984Y-121007296D01*
X95809590Y-120944751D01*
X95814584Y-120915925D01*
X95833812Y-120875362D01*
X95863347Y-120837824D01*
X95898755Y-120810009D01*
X95909691Y-120804301D01*
X95965379Y-120787102D01*
X96021467Y-120787081D01*
X96073977Y-120803153D01*
X96118929Y-120834231D01*
X96152346Y-120879230D01*
X96155771Y-120886322D01*
X96159011Y-120894756D01*
X96161790Y-120905317D01*
X96164135Y-120919391D01*
X96166077Y-120938362D01*
X96167644Y-120963615D01*
X96168866Y-120996537D01*
X96169773Y-121038512D01*
X96170393Y-121090925D01*
X96170756Y-121155161D01*
X96170891Y-121232607D01*
X96170827Y-121324646D01*
X96170594Y-121432664D01*
X96170220Y-121558046D01*
X96169736Y-121702178D01*
X96167038Y-122485751D01*
X96140061Y-122521116D01*
X96134999Y-122527355D01*
X96107726Y-122553847D01*
X96079657Y-122572953D01*
X96069340Y-122577229D01*
X96052092Y-122581648D01*
X96028089Y-122584905D01*
X95994655Y-122587169D01*
X95949116Y-122588604D01*
X95888795Y-122589377D01*
X95811017Y-122589654D01*
X95739879Y-122589648D01*
X95681058Y-122589316D01*
X95636871Y-122588424D01*
X95604482Y-122586745D01*
X95581054Y-122584052D01*
X95563752Y-122580118D01*
X95549741Y-122574715D01*
X95536183Y-122567615D01*
X95528892Y-122563158D01*
X95498088Y-122537974D01*
X95474408Y-122509728D01*
X95473010Y-122507469D01*
X95468599Y-122499760D01*
X95464842Y-122491072D01*
X95461673Y-122479809D01*
X95459021Y-122464373D01*
X95456820Y-122443170D01*
X95455001Y-122414603D01*
X95453495Y-122377075D01*
X95452235Y-122328990D01*
X95451151Y-122268753D01*
X95450176Y-122194766D01*
X95449242Y-122105434D01*
X95448279Y-121999161D01*
X95447220Y-121874349D01*
X95442187Y-121274590D01*
X95417191Y-121238124D01*
X95408171Y-121226059D01*
X95366575Y-121188834D01*
X95317555Y-121166956D01*
X95265133Y-121160482D01*
X95213333Y-121169467D01*
X95166179Y-121193969D01*
X95127695Y-121234045D01*
X95119209Y-121249450D01*
X95105541Y-121287897D01*
X95096054Y-121333153D01*
X95093572Y-121349916D01*
X95085389Y-121391046D01*
X95074082Y-121420607D01*
X95056532Y-121445064D01*
X95029624Y-121470878D01*
X95007312Y-121488675D01*
X94975241Y-121505428D01*
X94938419Y-121512074D01*
X94889610Y-121510669D01*
X94886516Y-121510393D01*
X94829727Y-121496571D01*
X94785105Y-121466830D01*
X94751847Y-121420647D01*
X94745850Y-121407915D01*
X94740894Y-121393449D01*
X94737330Y-121375493D01*
X94734989Y-121351272D01*
X94733701Y-121318015D01*
X94733296Y-121272946D01*
X94733604Y-121213293D01*
X94734457Y-121136283D01*
X94737470Y-120891912D01*
X94764587Y-120856385D01*
X94766027Y-120854506D01*
X94784429Y-120832441D01*
X94803358Y-120815407D01*
X94825614Y-120802758D01*
X94853996Y-120793853D01*
X94891304Y-120788047D01*
X94940340Y-120784697D01*
X95003904Y-120783158D01*
X95084795Y-120782789D01*
X95105695Y-120782823D01*
G37*
G36*
X106972006Y-122227487D02*
G01*
X107041826Y-122227945D01*
X107095764Y-122229421D01*
X107136653Y-122232505D01*
X107167328Y-122237782D01*
X107190621Y-122245840D01*
X107209366Y-122257265D01*
X107226398Y-122272645D01*
X107244550Y-122292566D01*
X107263209Y-122316092D01*
X107279490Y-122347936D01*
X107285873Y-122384708D01*
X107284383Y-122433578D01*
X107283996Y-122437734D01*
X107269243Y-122494320D01*
X107238698Y-122540260D01*
X107194045Y-122572953D01*
X107183727Y-122577229D01*
X107166480Y-122581648D01*
X107142477Y-122584905D01*
X107109043Y-122587169D01*
X107063503Y-122588604D01*
X107003182Y-122589377D01*
X106925404Y-122589654D01*
X106851994Y-122589647D01*
X106793767Y-122589306D01*
X106750067Y-122588401D01*
X106718055Y-122586700D01*
X106694890Y-122583974D01*
X106677733Y-122579992D01*
X106663743Y-122574524D01*
X106650081Y-122567340D01*
X106642160Y-122562598D01*
X106601142Y-122525708D01*
X106574329Y-122478892D01*
X106562178Y-122426327D01*
X106565144Y-122372191D01*
X106583685Y-122320663D01*
X106618256Y-122275918D01*
X106618742Y-122275464D01*
X106635955Y-122260679D01*
X106653804Y-122249270D01*
X106675075Y-122240802D01*
X106702551Y-122234845D01*
X106739019Y-122230964D01*
X106787264Y-122228728D01*
X106850070Y-122227703D01*
X106930223Y-122227458D01*
X106972006Y-122227487D01*
G37*
G36*
X109303381Y-120780053D02*
G01*
X109365463Y-120784746D01*
X109414167Y-120793352D01*
X109451825Y-120806486D01*
X109480767Y-120824765D01*
X109503324Y-120848808D01*
X109521826Y-120879230D01*
X109525252Y-120886322D01*
X109528492Y-120894756D01*
X109531270Y-120905317D01*
X109533616Y-120919391D01*
X109535557Y-120938362D01*
X109537125Y-120963615D01*
X109538347Y-120996537D01*
X109539254Y-121038512D01*
X109539874Y-121090925D01*
X109540237Y-121155161D01*
X109540371Y-121232607D01*
X109540308Y-121324646D01*
X109540074Y-121432664D01*
X109539701Y-121558046D01*
X109539216Y-121702178D01*
X109536519Y-122485751D01*
X109509542Y-122521116D01*
X109504480Y-122527355D01*
X109477207Y-122553847D01*
X109449138Y-122572953D01*
X109438821Y-122577229D01*
X109421573Y-122581648D01*
X109397570Y-122584905D01*
X109364136Y-122587169D01*
X109318596Y-122588604D01*
X109258275Y-122589377D01*
X109180498Y-122589654D01*
X109109360Y-122589648D01*
X109050539Y-122589316D01*
X109006352Y-122588424D01*
X108973962Y-122586745D01*
X108950535Y-122584052D01*
X108933233Y-122580118D01*
X108919222Y-122574715D01*
X108905664Y-122567615D01*
X108898372Y-122563158D01*
X108867569Y-122537974D01*
X108843889Y-122509728D01*
X108837980Y-122499539D01*
X108832226Y-122486290D01*
X108827837Y-122469572D01*
X108824538Y-122446610D01*
X108822052Y-122414624D01*
X108820101Y-122370839D01*
X108818410Y-122312475D01*
X108816701Y-122236756D01*
X108816060Y-122206662D01*
X108814492Y-122138333D01*
X108812901Y-122086289D01*
X108810966Y-122047724D01*
X108808365Y-122019836D01*
X108804777Y-121999820D01*
X108799881Y-121984871D01*
X108793356Y-121972186D01*
X108784881Y-121958960D01*
X108774121Y-121944461D01*
X108733106Y-121908916D01*
X108684385Y-121888555D01*
X108632145Y-121883379D01*
X108580571Y-121893388D01*
X108533849Y-121918582D01*
X108496163Y-121958960D01*
X108492767Y-121964114D01*
X108485053Y-121976811D01*
X108479171Y-121990010D01*
X108474799Y-122006514D01*
X108471615Y-122029127D01*
X108469299Y-122060653D01*
X108467529Y-122103898D01*
X108465984Y-122161664D01*
X108464343Y-122236756D01*
X108462937Y-122300012D01*
X108461263Y-122361340D01*
X108459381Y-122407584D01*
X108457013Y-122441519D01*
X108453883Y-122465923D01*
X108449714Y-122483575D01*
X108444231Y-122497250D01*
X108437155Y-122509728D01*
X108432656Y-122516320D01*
X108406179Y-122544811D01*
X108375380Y-122567615D01*
X108362656Y-122574321D01*
X108348746Y-122579826D01*
X108331719Y-122583848D01*
X108308737Y-122586617D01*
X108276965Y-122588361D01*
X108233566Y-122589306D01*
X108175706Y-122589683D01*
X108100546Y-122589718D01*
X108026696Y-122589586D01*
X107968587Y-122589146D01*
X107924987Y-122588163D01*
X107893059Y-122586403D01*
X107869962Y-122583628D01*
X107852858Y-122579603D01*
X107838907Y-122574093D01*
X107825269Y-122566861D01*
X107793334Y-122542644D01*
X107761233Y-122498902D01*
X107742849Y-122446611D01*
X107739647Y-122390475D01*
X107753093Y-122335201D01*
X107767267Y-122310030D01*
X107799402Y-122274541D01*
X107838468Y-122246971D01*
X107877703Y-122232873D01*
X107938677Y-122221752D01*
X107991758Y-122207073D01*
X108027491Y-122190589D01*
X108035404Y-122184688D01*
X108063370Y-122150633D01*
X108084884Y-122102590D01*
X108097712Y-122045189D01*
X108107080Y-121997922D01*
X108130117Y-121945437D01*
X108166266Y-121906795D01*
X108217125Y-121880453D01*
X108284291Y-121864868D01*
X108321115Y-121857293D01*
X108377543Y-121833291D01*
X108419359Y-121797136D01*
X108445343Y-121750059D01*
X108454275Y-121693292D01*
X108451932Y-121661731D01*
X108434567Y-121609218D01*
X108400864Y-121567932D01*
X108351519Y-121538585D01*
X108287228Y-121521890D01*
X108234231Y-121510988D01*
X108180470Y-121488050D01*
X108141480Y-121453345D01*
X108115253Y-121404934D01*
X108099780Y-121340877D01*
X108089279Y-121290367D01*
X108067080Y-121237388D01*
X108033706Y-121199340D01*
X107987108Y-121174095D01*
X107925239Y-121159526D01*
X107869997Y-121147186D01*
X107813316Y-121120371D01*
X107772487Y-121081427D01*
X107747787Y-121030638D01*
X107739491Y-120968290D01*
X107739862Y-120955442D01*
X107752542Y-120896837D01*
X107782798Y-120847811D01*
X107829990Y-120809487D01*
X107875401Y-120782789D01*
X108101917Y-120782789D01*
X108136423Y-120782809D01*
X108207600Y-120783218D01*
X108262687Y-120784592D01*
X108304550Y-120787496D01*
X108336058Y-120792499D01*
X108360077Y-120800165D01*
X108379476Y-120811061D01*
X108397122Y-120825754D01*
X108415882Y-120844811D01*
X108426997Y-120857213D01*
X108439748Y-120875056D01*
X108449237Y-120895642D01*
X108455939Y-120921871D01*
X108460326Y-120956639D01*
X108462874Y-121002845D01*
X108464055Y-121063386D01*
X108464343Y-121141159D01*
X108464587Y-121210091D01*
X108465538Y-121270068D01*
X108467372Y-121315214D01*
X108470264Y-121348315D01*
X108474390Y-121372159D01*
X108479924Y-121389534D01*
X108497269Y-121423443D01*
X108535020Y-121467131D01*
X108582978Y-121493665D01*
X108640522Y-121502606D01*
X108675839Y-121499438D01*
X108727762Y-121479989D01*
X108769729Y-121443208D01*
X108801120Y-121389534D01*
X108806165Y-121374149D01*
X108810424Y-121351080D01*
X108813433Y-121319034D01*
X108815365Y-121275224D01*
X108816396Y-121216861D01*
X108816701Y-121141159D01*
X108816831Y-121084802D01*
X108817694Y-121019390D01*
X108819781Y-120969183D01*
X108823566Y-120931284D01*
X108829522Y-120902795D01*
X108838125Y-120880818D01*
X108849847Y-120862456D01*
X108865162Y-120844811D01*
X108876399Y-120833236D01*
X108895658Y-120816031D01*
X108916020Y-120803236D01*
X108940658Y-120794115D01*
X108972744Y-120787928D01*
X109015449Y-120783938D01*
X109071945Y-120781407D01*
X109145404Y-120779596D01*
X109225591Y-120778655D01*
X109303381Y-120780053D01*
G37*
G36*
X115643610Y-120063069D02*
G01*
X115717423Y-120063958D01*
X115775191Y-120066309D01*
X115819487Y-120070766D01*
X115852887Y-120077971D01*
X115877964Y-120088565D01*
X115897292Y-120103192D01*
X115913445Y-120122493D01*
X115928998Y-120147111D01*
X115954727Y-120191015D01*
X115952084Y-121338381D01*
X115949440Y-122485747D01*
X115922463Y-122521114D01*
X115917400Y-122527355D01*
X115890128Y-122553847D01*
X115862059Y-122572953D01*
X115851742Y-122577229D01*
X115834494Y-122581648D01*
X115810491Y-122584905D01*
X115777057Y-122587169D01*
X115731517Y-122588604D01*
X115671196Y-122589377D01*
X115593419Y-122589654D01*
X115522281Y-122589648D01*
X115463460Y-122589316D01*
X115419273Y-122588424D01*
X115386884Y-122586745D01*
X115363456Y-122584052D01*
X115346154Y-122580118D01*
X115332143Y-122574715D01*
X115318585Y-122567615D01*
X115311294Y-122563158D01*
X115280490Y-122537974D01*
X115256810Y-122509728D01*
X115255412Y-122507469D01*
X115251001Y-122499760D01*
X115247244Y-122491072D01*
X115244075Y-122479809D01*
X115241423Y-122464373D01*
X115239222Y-122443170D01*
X115237403Y-122414603D01*
X115235897Y-122377075D01*
X115234637Y-122328990D01*
X115233553Y-122268753D01*
X115232578Y-122194766D01*
X115231644Y-122105434D01*
X115230681Y-121999161D01*
X115229622Y-121874349D01*
X115224589Y-121274590D01*
X115199593Y-121238124D01*
X115191337Y-121226973D01*
X115149369Y-121188701D01*
X115100050Y-121166481D01*
X115047283Y-121160313D01*
X114994967Y-121170198D01*
X114947003Y-121196135D01*
X114907293Y-121238124D01*
X114882298Y-121274590D01*
X114877264Y-121874349D01*
X114876946Y-121912193D01*
X114875922Y-122031516D01*
X114874974Y-122132759D01*
X114874035Y-122217520D01*
X114873036Y-122287394D01*
X114871908Y-122343977D01*
X114870585Y-122388865D01*
X114868996Y-122423656D01*
X114867074Y-122449945D01*
X114864750Y-122469328D01*
X114861957Y-122483401D01*
X114858626Y-122493762D01*
X114854688Y-122502005D01*
X114850076Y-122509728D01*
X114845010Y-122517067D01*
X114818371Y-122545357D01*
X114787408Y-122568117D01*
X114783187Y-122570469D01*
X114770165Y-122577034D01*
X114756331Y-122581964D01*
X114738924Y-122585448D01*
X114715184Y-122587678D01*
X114682351Y-122588844D01*
X114637666Y-122589137D01*
X114578369Y-122588749D01*
X114501698Y-122587868D01*
X114256502Y-122584850D01*
X114220975Y-122557733D01*
X114216925Y-122554661D01*
X114203633Y-122544533D01*
X114192302Y-122534711D01*
X114182777Y-122523623D01*
X114174901Y-122509696D01*
X114168517Y-122491359D01*
X114163469Y-122467038D01*
X114159600Y-122435161D01*
X114156755Y-122394156D01*
X114154777Y-122342451D01*
X114153509Y-122278474D01*
X114152794Y-122200651D01*
X114152478Y-122107410D01*
X114152403Y-121997180D01*
X114152413Y-121868387D01*
X114152418Y-121809220D01*
X114152482Y-121693354D01*
X114152659Y-121595287D01*
X114152995Y-121513416D01*
X114153538Y-121446136D01*
X114154337Y-121391843D01*
X114155438Y-121348934D01*
X114156889Y-121315803D01*
X114158739Y-121290848D01*
X114161034Y-121272464D01*
X114163823Y-121259047D01*
X114167153Y-121248993D01*
X114171072Y-121240697D01*
X114177039Y-121230395D01*
X114215394Y-121188021D01*
X114268985Y-121158019D01*
X114336844Y-121140972D01*
X114392042Y-121129082D01*
X114439738Y-121106341D01*
X114473768Y-121071587D01*
X114496233Y-121022577D01*
X114509236Y-120957068D01*
X114511463Y-120942459D01*
X114531100Y-120883793D01*
X114565268Y-120836000D01*
X114611825Y-120802308D01*
X114613123Y-120801678D01*
X114628206Y-120795548D01*
X114646663Y-120790744D01*
X114671288Y-120787018D01*
X114704874Y-120784122D01*
X114750214Y-120781811D01*
X114810102Y-120779838D01*
X114887331Y-120777954D01*
X114950724Y-120776475D01*
X115017743Y-120774346D01*
X115069295Y-120771379D01*
X115108022Y-120766909D01*
X115136567Y-120760269D01*
X115157570Y-120750793D01*
X115173676Y-120737816D01*
X115187525Y-120720670D01*
X115201760Y-120698691D01*
X115208949Y-120686184D01*
X115214554Y-120672778D01*
X115218816Y-120655776D01*
X115222010Y-120632422D01*
X115224412Y-120599959D01*
X115226297Y-120555633D01*
X115227942Y-120496686D01*
X115229622Y-120420363D01*
X115230694Y-120370459D01*
X115232508Y-120301959D01*
X115234796Y-120249237D01*
X115238062Y-120209576D01*
X115242807Y-120180257D01*
X115249535Y-120158561D01*
X115258749Y-120141768D01*
X115270951Y-120127161D01*
X115286643Y-120112021D01*
X115293488Y-120105743D01*
X115309893Y-120091999D01*
X115326597Y-120081564D01*
X115346434Y-120073985D01*
X115372237Y-120068806D01*
X115406841Y-120065570D01*
X115453078Y-120063822D01*
X115513782Y-120063108D01*
X115591787Y-120062971D01*
X115643610Y-120063069D01*
G37*
G36*
X99544996Y-120782856D02*
G01*
X99625441Y-120783096D01*
X99690064Y-120783601D01*
X99740902Y-120784460D01*
X99779990Y-120785764D01*
X99809367Y-120787603D01*
X99831068Y-120790067D01*
X99847131Y-120793246D01*
X99859591Y-120797230D01*
X99870487Y-120802109D01*
X99889136Y-120812729D01*
X99930218Y-120850512D01*
X99958840Y-120902778D01*
X99975753Y-120970732D01*
X99985564Y-121018581D01*
X100006338Y-121068561D01*
X100038028Y-121103903D01*
X100083139Y-121127136D01*
X100144176Y-121140789D01*
X100164261Y-121144123D01*
X100228841Y-121164609D01*
X100278334Y-121198116D01*
X100313173Y-121244914D01*
X100319651Y-121259066D01*
X100325038Y-121276316D01*
X100329104Y-121298666D01*
X100332145Y-121329124D01*
X100334453Y-121370696D01*
X100336325Y-121426388D01*
X100338053Y-121499208D01*
X100339073Y-121551261D01*
X100339838Y-121613068D01*
X100339592Y-121659906D01*
X100338188Y-121694845D01*
X100335477Y-121720952D01*
X100331312Y-121741297D01*
X100325545Y-121758949D01*
X100308797Y-121791063D01*
X100280341Y-121826767D01*
X100247708Y-121854857D01*
X100216457Y-121869689D01*
X100212303Y-121870287D01*
X100188970Y-121871895D01*
X100150049Y-121873515D01*
X100098815Y-121875043D01*
X100038543Y-121876375D01*
X99972508Y-121877408D01*
X99902098Y-121878446D01*
X99844116Y-121879816D01*
X99800584Y-121881701D01*
X99768573Y-121884350D01*
X99745153Y-121888010D01*
X99727396Y-121892927D01*
X99712374Y-121899348D01*
X99709029Y-121901076D01*
X99670006Y-121931695D01*
X99638709Y-121974634D01*
X99620455Y-122022751D01*
X99618313Y-122061517D01*
X99630713Y-122111684D01*
X99657396Y-122157449D01*
X99695316Y-122193944D01*
X99741430Y-122216297D01*
X99764378Y-122219871D01*
X99804356Y-122222959D01*
X99857920Y-122225369D01*
X99921779Y-122226955D01*
X99992643Y-122227567D01*
X100028464Y-122227624D01*
X100090924Y-122227953D01*
X100137743Y-122228796D01*
X100171973Y-122230430D01*
X100196664Y-122233133D01*
X100214870Y-122237182D01*
X100229641Y-122242854D01*
X100244029Y-122250428D01*
X100281488Y-122277815D01*
X100315919Y-122321748D01*
X100334542Y-122372077D01*
X100337293Y-122425299D01*
X100324111Y-122477912D01*
X100294932Y-122526413D01*
X100249695Y-122567299D01*
X100215272Y-122590496D01*
X99356808Y-122584850D01*
X99319839Y-122556644D01*
X99294688Y-122534636D01*
X99270522Y-122501995D01*
X99254362Y-122460404D01*
X99243441Y-122404346D01*
X99238972Y-122379497D01*
X99226988Y-122337762D01*
X99212350Y-122307898D01*
X99199210Y-122292601D01*
X99163726Y-122265074D01*
X99122702Y-122245169D01*
X99084463Y-122237469D01*
X99049398Y-122234133D01*
X98995522Y-122217709D01*
X98950620Y-122190636D01*
X98939176Y-122180779D01*
X98923573Y-122165301D01*
X98911695Y-122148533D01*
X98903035Y-122127781D01*
X98897086Y-122100355D01*
X98893341Y-122063562D01*
X98891294Y-122014711D01*
X98890437Y-121951109D01*
X98890264Y-121870066D01*
X98890290Y-121832530D01*
X98890695Y-121760034D01*
X98891945Y-121703783D01*
X98894489Y-121661072D01*
X98898775Y-121629196D01*
X98905251Y-121605449D01*
X98914365Y-121587128D01*
X98926565Y-121571527D01*
X98942299Y-121555941D01*
X98953575Y-121545907D01*
X98973573Y-121531413D01*
X98996257Y-121520523D01*
X99024536Y-121512737D01*
X99061313Y-121507554D01*
X99109498Y-121504471D01*
X99171995Y-121502989D01*
X99251711Y-121502606D01*
X99319192Y-121502151D01*
X99382630Y-121500732D01*
X99434289Y-121498471D01*
X99471385Y-121495493D01*
X99491135Y-121491922D01*
X99497640Y-121489312D01*
X99543262Y-121460242D01*
X99576406Y-121419640D01*
X99595975Y-121371631D01*
X99600872Y-121320342D01*
X99590000Y-121269898D01*
X99562262Y-121224425D01*
X99560166Y-121222043D01*
X99541827Y-121202330D01*
X99524158Y-121187329D01*
X99504186Y-121176397D01*
X99478940Y-121168891D01*
X99445448Y-121164167D01*
X99400737Y-121161583D01*
X99341837Y-121160494D01*
X99265774Y-121160259D01*
X99252965Y-121160237D01*
X99188103Y-121159543D01*
X99128568Y-121157996D01*
X99078060Y-121155752D01*
X99040282Y-121152970D01*
X99018936Y-121149805D01*
X99002424Y-121144194D01*
X98954631Y-121115413D01*
X98915964Y-121073438D01*
X98890080Y-121023051D01*
X98880639Y-120969035D01*
X98883075Y-120943186D01*
X98899729Y-120893546D01*
X98928894Y-120847954D01*
X98966714Y-120811766D01*
X99009332Y-120790336D01*
X99011457Y-120789914D01*
X99031879Y-120788273D01*
X99069514Y-120786771D01*
X99122019Y-120785448D01*
X99187053Y-120784347D01*
X99262273Y-120783509D01*
X99345337Y-120782976D01*
X99433903Y-120782789D01*
X99446691Y-120782789D01*
X99544996Y-120782856D01*
G37*
G36*
X98422131Y-123210600D02*
G01*
X98395154Y-123245966D01*
X98390092Y-123252206D01*
X98362819Y-123278698D01*
X98334750Y-123297804D01*
X98324433Y-123302081D01*
X98307185Y-123306499D01*
X98283182Y-123309757D01*
X98249748Y-123312020D01*
X98204209Y-123313455D01*
X98143888Y-123314228D01*
X98066110Y-123314506D01*
X97994972Y-123314500D01*
X97936151Y-123314167D01*
X97891964Y-123313275D01*
X97859575Y-123311596D01*
X97836147Y-123308904D01*
X97818846Y-123304969D01*
X97804834Y-123299566D01*
X97791276Y-123292467D01*
X97783985Y-123288009D01*
X97753181Y-123262826D01*
X97729501Y-123234579D01*
X97722992Y-123223233D01*
X97717433Y-123209918D01*
X97713188Y-123192910D01*
X97709990Y-123169468D01*
X97707572Y-123136854D01*
X97705665Y-123092328D01*
X97704002Y-123033148D01*
X97702314Y-122956576D01*
X97701507Y-122917998D01*
X97699972Y-122850662D01*
X97698390Y-122799372D01*
X97696450Y-122761363D01*
X97693841Y-122733869D01*
X97690252Y-122714126D01*
X97685372Y-122699368D01*
X97678889Y-122686830D01*
X97670493Y-122673746D01*
X97664958Y-122665556D01*
X97648439Y-122644171D01*
X97630336Y-122627573D01*
X97607998Y-122615101D01*
X97578774Y-122606097D01*
X97540016Y-122599903D01*
X97489074Y-122595858D01*
X97423297Y-122593306D01*
X97340036Y-122591586D01*
X97336299Y-122591525D01*
X97262069Y-122590119D01*
X97204970Y-122588506D01*
X97162125Y-122586434D01*
X97130660Y-122583652D01*
X97107698Y-122579911D01*
X97090363Y-122574959D01*
X97075778Y-122568546D01*
X97063188Y-122561364D01*
X97023691Y-122524894D01*
X96995626Y-122472640D01*
X96978612Y-122403956D01*
X96969738Y-122360412D01*
X96949161Y-122309951D01*
X96917496Y-122274219D01*
X96872224Y-122250710D01*
X96810828Y-122236917D01*
X96795166Y-122234404D01*
X96729566Y-122214585D01*
X96678898Y-122182000D01*
X96643763Y-122137008D01*
X96642698Y-122134963D01*
X96638248Y-122124818D01*
X96634614Y-122112267D01*
X96633043Y-122103091D01*
X97354989Y-122103091D01*
X97379984Y-122139569D01*
X97384040Y-122145132D01*
X97411495Y-122174184D01*
X97441759Y-122196719D01*
X97475864Y-122211096D01*
X97530270Y-122217816D01*
X97584098Y-122207378D01*
X97632942Y-122180874D01*
X97672400Y-122139400D01*
X97697280Y-122103091D01*
X97697280Y-121689591D01*
X97697259Y-121591111D01*
X97697132Y-121506525D01*
X97696801Y-121438206D01*
X97696168Y-121384179D01*
X97695137Y-121342472D01*
X97693609Y-121311112D01*
X97691488Y-121288126D01*
X97688677Y-121271542D01*
X97685078Y-121259387D01*
X97680593Y-121249687D01*
X97675126Y-121240471D01*
X97654984Y-121214399D01*
X97612557Y-121182279D01*
X97562967Y-121164745D01*
X97510421Y-121161797D01*
X97459130Y-121173436D01*
X97413301Y-121199660D01*
X97377143Y-121240471D01*
X97371869Y-121249334D01*
X97367348Y-121258978D01*
X97363716Y-121271002D01*
X97360876Y-121287378D01*
X97358730Y-121310079D01*
X97357181Y-121341078D01*
X97356133Y-121382348D01*
X97355486Y-121435861D01*
X97355145Y-121503591D01*
X97355012Y-121587510D01*
X97354989Y-121689591D01*
X97354989Y-122103091D01*
X96633043Y-122103091D01*
X96631716Y-122095340D01*
X96629469Y-122072067D01*
X96627794Y-122040478D01*
X96626607Y-121998603D01*
X96625826Y-121944473D01*
X96625370Y-121876118D01*
X96625157Y-121791568D01*
X96625104Y-121688853D01*
X96625106Y-121665266D01*
X96625186Y-121566600D01*
X96625445Y-121485678D01*
X96625963Y-121420530D01*
X96626824Y-121369186D01*
X96628108Y-121329676D01*
X96629899Y-121300031D01*
X96632278Y-121278280D01*
X96635327Y-121262454D01*
X96639128Y-121250583D01*
X96643763Y-121240697D01*
X96649842Y-121230209D01*
X96688297Y-121187800D01*
X96742159Y-121157874D01*
X96810828Y-121140789D01*
X96857591Y-121131515D01*
X96906612Y-121111023D01*
X96941559Y-121079081D01*
X96964937Y-121033160D01*
X96979251Y-120970732D01*
X96984232Y-120943499D01*
X97005421Y-120881532D01*
X97038598Y-120834803D01*
X97084517Y-120802109D01*
X97086541Y-120801118D01*
X97097509Y-120796442D01*
X97110418Y-120792633D01*
X97127288Y-120789603D01*
X97150143Y-120787265D01*
X97181002Y-120785529D01*
X97221889Y-120784306D01*
X97274824Y-120783510D01*
X97341828Y-120783050D01*
X97424925Y-120782839D01*
X97526134Y-120782789D01*
X97546786Y-120782790D01*
X97644410Y-120782864D01*
X97724304Y-120783115D01*
X97788489Y-120783632D01*
X97838987Y-120784502D01*
X97877819Y-120785815D01*
X97907007Y-120787659D01*
X97928573Y-120790121D01*
X97944539Y-120793292D01*
X97956924Y-120797258D01*
X97967752Y-120802109D01*
X97986401Y-120812729D01*
X98027483Y-120850512D01*
X98056105Y-120902778D01*
X98073018Y-120970732D01*
X98082829Y-121018581D01*
X98103603Y-121068561D01*
X98135293Y-121103903D01*
X98180404Y-121127136D01*
X98241441Y-121140789D01*
X98256896Y-121143264D01*
X98322612Y-121163078D01*
X98373366Y-121195715D01*
X98408625Y-121240854D01*
X98409446Y-121242428D01*
X98412481Y-121249190D01*
X98415146Y-121257658D01*
X98417462Y-121269060D01*
X98419449Y-121284626D01*
X98421125Y-121305583D01*
X98422511Y-121333161D01*
X98423627Y-121368588D01*
X98424492Y-121413092D01*
X98425126Y-121467903D01*
X98425550Y-121534248D01*
X98425782Y-121613356D01*
X98425843Y-121706456D01*
X98425752Y-121814776D01*
X98425529Y-121939546D01*
X98425195Y-122081992D01*
X98425139Y-122103091D01*
X98424768Y-122243345D01*
X98422131Y-123210600D01*
G37*
G36*
X93211681Y-121937459D02*
G01*
X93210658Y-121998650D01*
X93208848Y-122046963D01*
X93206025Y-122084358D01*
X93201966Y-122112793D01*
X93196446Y-122134223D01*
X93189241Y-122150608D01*
X93180127Y-122163905D01*
X93168879Y-122176071D01*
X93155273Y-122189065D01*
X93140568Y-122201759D01*
X93090955Y-122228768D01*
X93033572Y-122237525D01*
X93007568Y-122240357D01*
X92961994Y-122255355D01*
X92919819Y-122279614D01*
X92889399Y-122308990D01*
X92880273Y-122325877D01*
X92867825Y-122362179D01*
X92859085Y-122404346D01*
X92851254Y-122448063D01*
X92836649Y-122492734D01*
X92814724Y-122527088D01*
X92782710Y-122556644D01*
X92745765Y-122584850D01*
X92508363Y-122589883D01*
X92437642Y-122591461D01*
X92378163Y-122593123D01*
X92333367Y-122595025D01*
X92300428Y-122597456D01*
X92276519Y-122600705D01*
X92258811Y-122605062D01*
X92244478Y-122610814D01*
X92230692Y-122618250D01*
X92191610Y-122646093D01*
X92162786Y-122682870D01*
X92144078Y-122732458D01*
X92139232Y-122780965D01*
X92150400Y-122833669D01*
X92176482Y-122880996D01*
X92214937Y-122918481D01*
X92263221Y-122941660D01*
X92266120Y-122942343D01*
X92291285Y-122945476D01*
X92332122Y-122948191D01*
X92384935Y-122950331D01*
X92446025Y-122951737D01*
X92511695Y-122952253D01*
X92563318Y-122952300D01*
X92621368Y-122952620D01*
X92664524Y-122953509D01*
X92695861Y-122955271D01*
X92718451Y-122958206D01*
X92735367Y-122962615D01*
X92749682Y-122968801D01*
X92764468Y-122977065D01*
X92770332Y-122980583D01*
X92808030Y-123009899D01*
X92833116Y-123046150D01*
X92850261Y-123095803D01*
X92852889Y-123108085D01*
X92853532Y-123165156D01*
X92836466Y-123218678D01*
X92803636Y-123264428D01*
X92756988Y-123298184D01*
X92749209Y-123301491D01*
X92736683Y-123304944D01*
X92719267Y-123307694D01*
X92695055Y-123309799D01*
X92662141Y-123311318D01*
X92618621Y-123312309D01*
X92562590Y-123312830D01*
X92492141Y-123312940D01*
X92405369Y-123312697D01*
X92300369Y-123312159D01*
X91876744Y-123309701D01*
X91839776Y-123281495D01*
X91814625Y-123259488D01*
X91790459Y-123226847D01*
X91774299Y-123185255D01*
X91763378Y-123129197D01*
X91758908Y-123104349D01*
X91746925Y-123062614D01*
X91732287Y-123032750D01*
X91719147Y-123017452D01*
X91683663Y-122989926D01*
X91642638Y-122970020D01*
X91604399Y-122962320D01*
X91603519Y-122962317D01*
X91546497Y-122953888D01*
X91494340Y-122931269D01*
X91451876Y-122897330D01*
X91423933Y-122854946D01*
X91421368Y-122845779D01*
X91419074Y-122830109D01*
X91417100Y-122806847D01*
X91415424Y-122774740D01*
X91414025Y-122732533D01*
X91412882Y-122678972D01*
X91411974Y-122612803D01*
X91411279Y-122532771D01*
X91410775Y-122437622D01*
X91410442Y-122326101D01*
X91410258Y-122196955D01*
X91410201Y-122048928D01*
X91410203Y-121995141D01*
X91410240Y-121858643D01*
X91410281Y-121813908D01*
X92136471Y-121813908D01*
X92136793Y-121906866D01*
X92137852Y-121981151D01*
X92139661Y-122037395D01*
X92142233Y-122076230D01*
X92145579Y-122098289D01*
X92150034Y-122111921D01*
X92176523Y-122157333D01*
X92215492Y-122194019D01*
X92261367Y-122216297D01*
X92282340Y-122221779D01*
X92311086Y-122226121D01*
X92337370Y-122223099D01*
X92371636Y-122212336D01*
X92415848Y-122188141D01*
X92453904Y-122147628D01*
X92477291Y-122096774D01*
X92480338Y-122075972D01*
X92482936Y-122033881D01*
X92484736Y-121971731D01*
X92485736Y-121889553D01*
X92485936Y-121787381D01*
X92485336Y-121665244D01*
X92482377Y-121274580D01*
X92457381Y-121238119D01*
X92449137Y-121226984D01*
X92407169Y-121188708D01*
X92357849Y-121166484D01*
X92305080Y-121160313D01*
X92252762Y-121170196D01*
X92204795Y-121196131D01*
X92165082Y-121238119D01*
X92140086Y-121274580D01*
X92137127Y-121665244D01*
X92136875Y-121701643D01*
X92136471Y-121813908D01*
X91410281Y-121813908D01*
X91410349Y-121740396D01*
X91410560Y-121639015D01*
X91410908Y-121553114D01*
X91411422Y-121481307D01*
X91412136Y-121422210D01*
X91413081Y-121374436D01*
X91414290Y-121336600D01*
X91415793Y-121307317D01*
X91417624Y-121285201D01*
X91419814Y-121268867D01*
X91422396Y-121256928D01*
X91425401Y-121248000D01*
X91428860Y-121240697D01*
X91434939Y-121230209D01*
X91473394Y-121187800D01*
X91527256Y-121157874D01*
X91595925Y-121140789D01*
X91642688Y-121131515D01*
X91691709Y-121111023D01*
X91726656Y-121079081D01*
X91750034Y-121033160D01*
X91764348Y-120970732D01*
X91769330Y-120943499D01*
X91790518Y-120881532D01*
X91823695Y-120834803D01*
X91869614Y-120802109D01*
X91871638Y-120801118D01*
X91882606Y-120796442D01*
X91895515Y-120792633D01*
X91912385Y-120789603D01*
X91935240Y-120787265D01*
X91966099Y-120785529D01*
X92006986Y-120784306D01*
X92059921Y-120783510D01*
X92126926Y-120783050D01*
X92210022Y-120782839D01*
X92311231Y-120782789D01*
X92331883Y-120782790D01*
X92429507Y-120782864D01*
X92509401Y-120783115D01*
X92573586Y-120783632D01*
X92624084Y-120784502D01*
X92662916Y-120785815D01*
X92692105Y-120787659D01*
X92713671Y-120790121D01*
X92729636Y-120793292D01*
X92742021Y-120797258D01*
X92752849Y-120802109D01*
X92771498Y-120812729D01*
X92812580Y-120850512D01*
X92841202Y-120902778D01*
X92858115Y-120970732D01*
X92867926Y-121018581D01*
X92888700Y-121068561D01*
X92920390Y-121103903D01*
X92965502Y-121127136D01*
X93026538Y-121140789D01*
X93042200Y-121143302D01*
X93107800Y-121163121D01*
X93158468Y-121195706D01*
X93193602Y-121240697D01*
X93194856Y-121243115D01*
X93199259Y-121253283D01*
X93202854Y-121265929D01*
X93205722Y-121283014D01*
X93207944Y-121306501D01*
X93209602Y-121338351D01*
X93210776Y-121380525D01*
X93211548Y-121434987D01*
X93211999Y-121503697D01*
X93212210Y-121588619D01*
X93212262Y-121691713D01*
X93212260Y-121768620D01*
X93212236Y-121787381D01*
X93212140Y-121861435D01*
X93211681Y-121937459D01*
G37*
G36*
X113881947Y-122127887D02*
G01*
X113851131Y-122170601D01*
X113807881Y-122205446D01*
X113757075Y-122228922D01*
X113703591Y-122237525D01*
X113668784Y-122241537D01*
X113621083Y-122262359D01*
X113582136Y-122299063D01*
X113553958Y-122349524D01*
X113538561Y-122411619D01*
X113533770Y-122443126D01*
X113526870Y-122475411D01*
X113520198Y-122495248D01*
X113513013Y-122506100D01*
X113489478Y-122532485D01*
X113460157Y-122558886D01*
X113432595Y-122578162D01*
X113431063Y-122578867D01*
X113410393Y-122582921D01*
X113373718Y-122586073D01*
X113324596Y-122588339D01*
X113266589Y-122589730D01*
X113203257Y-122590261D01*
X113138161Y-122589945D01*
X113074859Y-122588797D01*
X113016914Y-122586830D01*
X112967884Y-122584057D01*
X112931331Y-122580493D01*
X112910815Y-122576151D01*
X112868160Y-122548094D01*
X112834169Y-122505282D01*
X112811659Y-122452278D01*
X112803274Y-122393570D01*
X112800042Y-122370207D01*
X112782472Y-122328251D01*
X112753516Y-122289199D01*
X112717606Y-122259966D01*
X112682219Y-122245172D01*
X112628271Y-122238486D01*
X112574481Y-122247305D01*
X112527650Y-122271225D01*
X112512799Y-122283148D01*
X112491055Y-122305503D01*
X112475904Y-122331722D01*
X112464645Y-122367209D01*
X112454573Y-122417369D01*
X112441769Y-122469582D01*
X112415933Y-122523413D01*
X112379128Y-122560874D01*
X112330495Y-122582764D01*
X112269176Y-122589883D01*
X112252612Y-122589209D01*
X112195310Y-122575492D01*
X112146996Y-122545578D01*
X112111143Y-122501410D01*
X112088600Y-122461300D01*
X112088600Y-122066008D01*
X112819372Y-122066008D01*
X112830637Y-122115776D01*
X112856629Y-122160560D01*
X112897479Y-122196301D01*
X112945568Y-122217054D01*
X112998640Y-122222589D01*
X113049718Y-122212481D01*
X113095387Y-122188560D01*
X113132235Y-122152661D01*
X113156847Y-122106616D01*
X113165809Y-122052257D01*
X113162301Y-122016601D01*
X113143348Y-121966273D01*
X113110738Y-121926143D01*
X113067634Y-121898021D01*
X113017194Y-121883720D01*
X112962578Y-121885051D01*
X112906948Y-121903827D01*
X112872623Y-121927398D01*
X112840496Y-121967759D01*
X112822702Y-122015316D01*
X112819372Y-122066008D01*
X112088600Y-122066008D01*
X112088600Y-121274999D01*
X112117444Y-121229516D01*
X112136615Y-121203781D01*
X112172649Y-121173518D01*
X112220005Y-121152917D01*
X112282742Y-121139776D01*
X112326476Y-121130630D01*
X112372632Y-121109735D01*
X112406456Y-121076750D01*
X112430212Y-121029253D01*
X112446160Y-120964821D01*
X112456597Y-120918189D01*
X112477402Y-120867030D01*
X112507357Y-120829383D01*
X112548614Y-120801823D01*
X112549187Y-120801540D01*
X112560050Y-120796779D01*
X112572754Y-120792896D01*
X112589333Y-120789803D01*
X112611819Y-120787409D01*
X112642244Y-120785628D01*
X112682640Y-120784369D01*
X112735041Y-120783545D01*
X112801479Y-120783065D01*
X112883987Y-120782843D01*
X112984597Y-120782789D01*
X113006885Y-120782800D01*
X113094308Y-120783077D01*
X113175650Y-120783690D01*
X113248569Y-120784597D01*
X113310723Y-120785757D01*
X113359768Y-120787128D01*
X113393364Y-120788668D01*
X113409167Y-120790336D01*
X113443714Y-120805396D01*
X113483832Y-120839268D01*
X113514058Y-120884432D01*
X113532325Y-120936370D01*
X113536562Y-120990566D01*
X113524701Y-121042504D01*
X113513801Y-121062557D01*
X113482204Y-121099382D01*
X113441920Y-121130475D01*
X113400151Y-121149643D01*
X113398487Y-121150061D01*
X113374582Y-121153276D01*
X113334791Y-121156069D01*
X113282899Y-121158274D01*
X113222686Y-121159726D01*
X113157935Y-121160259D01*
X113099414Y-121160447D01*
X113034191Y-121161549D01*
X112984142Y-121164151D01*
X112946397Y-121168828D01*
X112918087Y-121176157D01*
X112896342Y-121186713D01*
X112878291Y-121201072D01*
X112861066Y-121219809D01*
X112851648Y-121231943D01*
X112826064Y-121283479D01*
X112818935Y-121338116D01*
X112830277Y-121392174D01*
X112860105Y-121441971D01*
X112870180Y-121453684D01*
X112884207Y-121467773D01*
X112899642Y-121478542D01*
X112919160Y-121486513D01*
X112945435Y-121492205D01*
X112981143Y-121496140D01*
X113028958Y-121498838D01*
X113091556Y-121500820D01*
X113171610Y-121502606D01*
X113211786Y-121503446D01*
X113278739Y-121504975D01*
X113329707Y-121506555D01*
X113367457Y-121508500D01*
X113394757Y-121511124D01*
X113414374Y-121514738D01*
X113429074Y-121519657D01*
X113441625Y-121526194D01*
X113454794Y-121534661D01*
X113469164Y-121545505D01*
X113504940Y-121586445D01*
X113529303Y-121636152D01*
X113538302Y-121687399D01*
X113538595Y-121695044D01*
X113548395Y-121738963D01*
X113568837Y-121782904D01*
X113595487Y-121816828D01*
X113597618Y-121818699D01*
X113634766Y-121841818D01*
X113680614Y-121858573D01*
X113724627Y-121865032D01*
X113730422Y-121865142D01*
X113782345Y-121876311D01*
X113827476Y-121903398D01*
X113863402Y-121942976D01*
X113887708Y-121991620D01*
X113897981Y-122045900D01*
X113897286Y-122052257D01*
X113891807Y-122102392D01*
X113881947Y-122127887D01*
G37*
G36*
X111281680Y-120807849D02*
G01*
X111309487Y-120827979D01*
X111342402Y-120864486D01*
X111365268Y-120905495D01*
X111373872Y-120944751D01*
X111378964Y-120989676D01*
X111397823Y-121041878D01*
X111427893Y-121086057D01*
X111466313Y-121118233D01*
X111510223Y-121134427D01*
X111516383Y-121135366D01*
X111581893Y-121147736D01*
X111631051Y-121162931D01*
X111667340Y-121182815D01*
X111694243Y-121209251D01*
X111715243Y-121244103D01*
X111718235Y-121250455D01*
X111722944Y-121262118D01*
X111726753Y-121275577D01*
X111729756Y-121292871D01*
X111732049Y-121316035D01*
X111733728Y-121347109D01*
X111734887Y-121388130D01*
X111735623Y-121441135D01*
X111736030Y-121508162D01*
X111736204Y-121591249D01*
X111736241Y-121692432D01*
X111736235Y-121739748D01*
X111736142Y-121832722D01*
X111735864Y-121908479D01*
X111735309Y-121969040D01*
X111734384Y-122016426D01*
X111732998Y-122052659D01*
X111731058Y-122079758D01*
X111728471Y-122099745D01*
X111725145Y-122114640D01*
X111720988Y-122126465D01*
X111715908Y-122137241D01*
X111712650Y-122143239D01*
X111679009Y-122184075D01*
X111633423Y-122215215D01*
X111582714Y-122231814D01*
X111582201Y-122231892D01*
X111545463Y-122237494D01*
X111510022Y-122242959D01*
X111503853Y-122244150D01*
X111463714Y-122261380D01*
X111426237Y-122291441D01*
X111398664Y-122328751D01*
X111391034Y-122348669D01*
X111381821Y-122383831D01*
X111374634Y-122423063D01*
X111370868Y-122445268D01*
X111353621Y-122499641D01*
X111325641Y-122539950D01*
X111284916Y-122569479D01*
X111280637Y-122571662D01*
X111270123Y-122576106D01*
X111257246Y-122579726D01*
X111240030Y-122582608D01*
X111216503Y-122584839D01*
X111184688Y-122586507D01*
X111142611Y-122587698D01*
X111088298Y-122588500D01*
X111019773Y-122588999D01*
X110935064Y-122589283D01*
X110832194Y-122589438D01*
X110733475Y-122589455D01*
X110644668Y-122589216D01*
X110572515Y-122588655D01*
X110515210Y-122587713D01*
X110470948Y-122586335D01*
X110437923Y-122584461D01*
X110414328Y-122582036D01*
X110398358Y-122579000D01*
X110388207Y-122575297D01*
X110364386Y-122559636D01*
X110331200Y-122527186D01*
X110305281Y-122489753D01*
X110292069Y-122454189D01*
X110292007Y-122453794D01*
X110286395Y-122417794D01*
X110280660Y-122380985D01*
X110279000Y-122371760D01*
X110258682Y-122318572D01*
X110222360Y-122277029D01*
X110170887Y-122247855D01*
X110105117Y-122231775D01*
X110091729Y-122229902D01*
X110043443Y-122218676D01*
X110006131Y-122199978D01*
X109972574Y-122170469D01*
X109952870Y-122145874D01*
X109929396Y-122093772D01*
X109924824Y-122037060D01*
X109939598Y-121978335D01*
X109957427Y-121943080D01*
X109986081Y-121910162D01*
X110027908Y-121883583D01*
X110036167Y-121879598D01*
X110050378Y-121874290D01*
X110067715Y-121870440D01*
X110091014Y-121867875D01*
X110123108Y-121866425D01*
X110166830Y-121865916D01*
X110225015Y-121866177D01*
X110300496Y-121867036D01*
X110318872Y-121867275D01*
X110389357Y-121868287D01*
X110443138Y-121869426D01*
X110483015Y-121870984D01*
X110511789Y-121873251D01*
X110532262Y-121876518D01*
X110547235Y-121881078D01*
X110559508Y-121887219D01*
X110571882Y-121895234D01*
X110603572Y-121925204D01*
X110631579Y-121966756D01*
X110651468Y-122012095D01*
X110659032Y-122053579D01*
X110666624Y-122101827D01*
X110690123Y-122148567D01*
X110726018Y-122186323D01*
X110770724Y-122212331D01*
X110820657Y-122223826D01*
X110872236Y-122218044D01*
X110881559Y-122215144D01*
X110926818Y-122195932D01*
X110959045Y-122170016D01*
X110984285Y-122132797D01*
X110989837Y-122121826D01*
X110994625Y-122109748D01*
X110998441Y-122095020D01*
X111001424Y-122075457D01*
X111003712Y-122048874D01*
X111005445Y-122013085D01*
X111006761Y-121965905D01*
X111007799Y-121905147D01*
X111008697Y-121828626D01*
X111009595Y-121734156D01*
X111009744Y-121717458D01*
X111010518Y-121612713D01*
X111010748Y-121525857D01*
X111010310Y-121454928D01*
X111009079Y-121397967D01*
X111006928Y-121353015D01*
X111003734Y-121318110D01*
X110999370Y-121291293D01*
X110993711Y-121270605D01*
X110986633Y-121254084D01*
X110978010Y-121239771D01*
X110954927Y-121209815D01*
X110922572Y-121183075D01*
X110883329Y-121169271D01*
X110831172Y-121165349D01*
X110803188Y-121165820D01*
X110772805Y-121169250D01*
X110749742Y-121177773D01*
X110726338Y-121193444D01*
X110716807Y-121200908D01*
X110692491Y-121223873D01*
X110676575Y-121249060D01*
X110666073Y-121282437D01*
X110657995Y-121329973D01*
X110655621Y-121344703D01*
X110635871Y-121408798D01*
X110603205Y-121459059D01*
X110558515Y-121494014D01*
X110554390Y-121496123D01*
X110540704Y-121501667D01*
X110523560Y-121505831D01*
X110500181Y-121508807D01*
X110467786Y-121510787D01*
X110423596Y-121511963D01*
X110364831Y-121512528D01*
X110288713Y-121512674D01*
X110283503Y-121512673D01*
X110204169Y-121512358D01*
X110142526Y-121511392D01*
X110096271Y-121509651D01*
X110063101Y-121507010D01*
X110040713Y-121503344D01*
X110026804Y-121498529D01*
X109984440Y-121467418D01*
X109950343Y-121421924D01*
X109930016Y-121368686D01*
X109925220Y-121312457D01*
X109937714Y-121257992D01*
X109941961Y-121248825D01*
X109973742Y-121206103D01*
X110019017Y-121171674D01*
X110072677Y-121148673D01*
X110129610Y-121140237D01*
X110136337Y-121140000D01*
X110180667Y-121127862D01*
X110221506Y-121100280D01*
X110255200Y-121061320D01*
X110278095Y-121015048D01*
X110286539Y-120965533D01*
X110286540Y-120965018D01*
X110290596Y-120929231D01*
X110300140Y-120895566D01*
X110316901Y-120867694D01*
X110347080Y-120834559D01*
X110382124Y-120806704D01*
X110415082Y-120790485D01*
X110417227Y-120790056D01*
X110437761Y-120788383D01*
X110475505Y-120786851D01*
X110528113Y-120785502D01*
X110593237Y-120784378D01*
X110668532Y-120783524D01*
X110751650Y-120782979D01*
X110840245Y-120782789D01*
X111237906Y-120782789D01*
X111281680Y-120807849D01*
G37*
G36*
X94095481Y-120058014D02*
G01*
X94150440Y-120058419D01*
X94191350Y-120059425D01*
X94221146Y-120061304D01*
X94242767Y-120064329D01*
X94259148Y-120068771D01*
X94273227Y-120074903D01*
X94287942Y-120082998D01*
X94331404Y-120117300D01*
X94361956Y-120162124D01*
X94377935Y-120212706D01*
X94379717Y-120265431D01*
X94367676Y-120316687D01*
X94342189Y-120362860D01*
X94303629Y-120400335D01*
X94252374Y-120425499D01*
X94248708Y-120426324D01*
X94224882Y-120428716D01*
X94185421Y-120430612D01*
X94133761Y-120431914D01*
X94073337Y-120432527D01*
X94007585Y-120432354D01*
X93941430Y-120431625D01*
X93883612Y-120430489D01*
X93840295Y-120428776D01*
X93808503Y-120426241D01*
X93785256Y-120422638D01*
X93767576Y-120417719D01*
X93752485Y-120411239D01*
X93750396Y-120410182D01*
X93707197Y-120377460D01*
X93676590Y-120333015D01*
X93659447Y-120281330D01*
X93656635Y-120226890D01*
X93669025Y-120174179D01*
X93697487Y-120127679D01*
X93707841Y-120116035D01*
X93726139Y-120097331D01*
X93744554Y-120083143D01*
X93765947Y-120072846D01*
X93793177Y-120065818D01*
X93829102Y-120061436D01*
X93876584Y-120059077D01*
X93938481Y-120058118D01*
X94017652Y-120057937D01*
X94023533Y-120057937D01*
X94095481Y-120058014D01*
G37*
G36*
X100896354Y-120066093D02*
G01*
X100931853Y-120076991D01*
X100965293Y-120100226D01*
X101001835Y-120144305D01*
X101025855Y-120198455D01*
X101034560Y-120257763D01*
X101037039Y-120284674D01*
X101055460Y-120332361D01*
X101090282Y-120371353D01*
X101139638Y-120399882D01*
X101201664Y-120416180D01*
X101208356Y-120417176D01*
X101272386Y-120433294D01*
X101321641Y-120460076D01*
X101359109Y-120499095D01*
X101366154Y-120509795D01*
X101371839Y-120521862D01*
X101376152Y-120537621D01*
X101379380Y-120559811D01*
X101381811Y-120591172D01*
X101383729Y-120634446D01*
X101385421Y-120692371D01*
X101387174Y-120767688D01*
X101387234Y-120770409D01*
X101389126Y-120847211D01*
X101391126Y-120906743D01*
X101393475Y-120951784D01*
X101396419Y-120985111D01*
X101400199Y-121009503D01*
X101405059Y-121027737D01*
X101411242Y-121042592D01*
X101420262Y-121059041D01*
X101454487Y-121098959D01*
X101501250Y-121125704D01*
X101563032Y-121140882D01*
X101596757Y-121146814D01*
X101632611Y-121155609D01*
X101656857Y-121164434D01*
X101687704Y-121185452D01*
X101725262Y-121228526D01*
X101750339Y-121280837D01*
X101759468Y-121336572D01*
X101759919Y-121346902D01*
X101772366Y-121395144D01*
X101798673Y-121439477D01*
X101834542Y-121472138D01*
X101851963Y-121480875D01*
X101889431Y-121493805D01*
X101929148Y-121502399D01*
X101983070Y-121513594D01*
X102030955Y-121534088D01*
X102067782Y-121564571D01*
X102072986Y-121570377D01*
X102086619Y-121587076D01*
X102097122Y-121604278D01*
X102104981Y-121624788D01*
X102110681Y-121651410D01*
X102114710Y-121686947D01*
X102117553Y-121734205D01*
X102119697Y-121795988D01*
X102121629Y-121875099D01*
X102123208Y-121942428D01*
X102124939Y-122002522D01*
X102126878Y-122047734D01*
X102129311Y-122080858D01*
X102132526Y-122104689D01*
X102136811Y-122122021D01*
X102142452Y-122135648D01*
X102149737Y-122148364D01*
X102155970Y-122157578D01*
X102190137Y-122190261D01*
X102238345Y-122213143D01*
X102302941Y-122227434D01*
X102341319Y-122233951D01*
X102373833Y-122243957D01*
X102399583Y-122259682D01*
X102425791Y-122284479D01*
X102455187Y-122326374D01*
X102472222Y-122378781D01*
X102473504Y-122433371D01*
X102459597Y-122485862D01*
X102431065Y-122531974D01*
X102388474Y-122567424D01*
X102380527Y-122571674D01*
X102331067Y-122586866D01*
X102276078Y-122589128D01*
X102222847Y-122578843D01*
X102178659Y-122556394D01*
X102177157Y-122555240D01*
X102139758Y-122517753D01*
X102116435Y-122472128D01*
X102104627Y-122413416D01*
X102102062Y-122396047D01*
X102091653Y-122355513D01*
X102077786Y-122322181D01*
X102062054Y-122300514D01*
X102023478Y-122268278D01*
X101976574Y-122245903D01*
X101928629Y-122237525D01*
X101923494Y-122237423D01*
X101872097Y-122226407D01*
X101823014Y-122199600D01*
X101782703Y-122160414D01*
X101754434Y-122123386D01*
X101749400Y-121880184D01*
X101748568Y-121840240D01*
X101747038Y-121773062D01*
X101745457Y-121721892D01*
X101743516Y-121683971D01*
X101740906Y-121656540D01*
X101737317Y-121636840D01*
X101732439Y-121622112D01*
X101725963Y-121609597D01*
X101717580Y-121596536D01*
X101708770Y-121584256D01*
X101674126Y-121551386D01*
X101628555Y-121529676D01*
X101568066Y-121517003D01*
X101546867Y-121513669D01*
X101512115Y-121505766D01*
X101487648Y-121497160D01*
X101454556Y-121473899D01*
X101419539Y-121431744D01*
X101395748Y-121381293D01*
X101386975Y-121328884D01*
X101386938Y-121325841D01*
X101377161Y-121277772D01*
X101352776Y-121232989D01*
X101317678Y-121195700D01*
X101275764Y-121170110D01*
X101230930Y-121160425D01*
X101183759Y-121155709D01*
X101125421Y-121135608D01*
X101078041Y-121101313D01*
X101044655Y-121054549D01*
X101044043Y-121053277D01*
X101037424Y-121037629D01*
X101032485Y-121020210D01*
X101028985Y-120997958D01*
X101026683Y-120967813D01*
X101025336Y-120926716D01*
X101024706Y-120871605D01*
X101024549Y-120799422D01*
X101024280Y-120726586D01*
X101023310Y-120667072D01*
X101021466Y-120622280D01*
X101018575Y-120589439D01*
X101014467Y-120565781D01*
X101008967Y-120548536D01*
X100992866Y-120516930D01*
X100955814Y-120472842D01*
X100909607Y-120445074D01*
X100856420Y-120435243D01*
X100849721Y-120434963D01*
X100813313Y-120428549D01*
X100777898Y-120416378D01*
X100745979Y-120398321D01*
X100702957Y-120358816D01*
X100675045Y-120311524D01*
X100662360Y-120259824D01*
X100665017Y-120207091D01*
X100683133Y-120156701D01*
X100716823Y-120112030D01*
X100766205Y-120076454D01*
X100769415Y-120074886D01*
X100806027Y-120065011D01*
X100851376Y-120062090D01*
X100896354Y-120066093D01*
G37*
G36*
X94088050Y-120787894D02*
G01*
X94146757Y-120788279D01*
X94190827Y-120789213D01*
X94223116Y-120790932D01*
X94246482Y-120793671D01*
X94263780Y-120797666D01*
X94277869Y-120803152D01*
X94291605Y-120810366D01*
X94298345Y-120814495D01*
X94330518Y-120841827D01*
X94356078Y-120874481D01*
X94380441Y-120916054D01*
X94377743Y-121700115D01*
X94375044Y-122484176D01*
X94351583Y-122517070D01*
X94348967Y-122520566D01*
X94322072Y-122547826D01*
X94291178Y-122569479D01*
X94285011Y-122572580D01*
X94270935Y-122578149D01*
X94253561Y-122582321D01*
X94230084Y-122585303D01*
X94197699Y-122587299D01*
X94153597Y-122588517D01*
X94094974Y-122589162D01*
X94019023Y-122589438D01*
X93945064Y-122589498D01*
X93886983Y-122589210D01*
X93843406Y-122588342D01*
X93811494Y-122586668D01*
X93788407Y-122583958D01*
X93771305Y-122579985D01*
X93757349Y-122574522D01*
X93743700Y-122567340D01*
X93736650Y-122563003D01*
X93704696Y-122535790D01*
X93679408Y-122503534D01*
X93655227Y-122462272D01*
X93655227Y-121696174D01*
X93655308Y-121565485D01*
X93655656Y-121414268D01*
X93656279Y-121282886D01*
X93657181Y-121171172D01*
X93658362Y-121078957D01*
X93659826Y-121006074D01*
X93661575Y-120952355D01*
X93663610Y-120917631D01*
X93665935Y-120901736D01*
X93666957Y-120899190D01*
X93682533Y-120871692D01*
X93703687Y-120844811D01*
X93712493Y-120835645D01*
X93728925Y-120820322D01*
X93746020Y-120808677D01*
X93766561Y-120800205D01*
X93793329Y-120794404D01*
X93829105Y-120790769D01*
X93876671Y-120788796D01*
X93938809Y-120787982D01*
X94018299Y-120787822D01*
X94088050Y-120787894D01*
G37*
G36*
X120307612Y-118346377D02*
G01*
X120400181Y-118346903D01*
X120471181Y-118347976D01*
X120523427Y-118349738D01*
X120559732Y-118352336D01*
X120582910Y-118355912D01*
X120595774Y-118360611D01*
X120601137Y-118366577D01*
X120601314Y-118367078D01*
X120606090Y-118387100D01*
X120614964Y-118429676D01*
X120627224Y-118491187D01*
X120642158Y-118568016D01*
X120659056Y-118656545D01*
X120677204Y-118753157D01*
X120678714Y-118761244D01*
X120697111Y-118857093D01*
X120714725Y-118944320D01*
X120730770Y-119019355D01*
X120744457Y-119078627D01*
X120754998Y-119118565D01*
X120761605Y-119135599D01*
X120769242Y-119141067D01*
X120799991Y-119157149D01*
X120848242Y-119179292D01*
X120909310Y-119205628D01*
X120978511Y-119234295D01*
X121051159Y-119263426D01*
X121122570Y-119291157D01*
X121188059Y-119315622D01*
X121242940Y-119334958D01*
X121282530Y-119347298D01*
X121302144Y-119350778D01*
X121302572Y-119350679D01*
X121321494Y-119341103D01*
X121359135Y-119318255D01*
X121412352Y-119284177D01*
X121478005Y-119240913D01*
X121552953Y-119190502D01*
X121634054Y-119134989D01*
X121640116Y-119130807D01*
X121720263Y-119075975D01*
X121793505Y-119026686D01*
X121856815Y-118984914D01*
X121907166Y-118952634D01*
X121941533Y-118931818D01*
X121956887Y-118924441D01*
X121958336Y-118924880D01*
X121975799Y-118937868D01*
X122009029Y-118967105D01*
X122055476Y-119010192D01*
X122112587Y-119064732D01*
X122177811Y-119128327D01*
X122248595Y-119198577D01*
X122256867Y-119206862D01*
X122342211Y-119293100D01*
X122409006Y-119362254D01*
X122458286Y-119415473D01*
X122491086Y-119453908D01*
X122508440Y-119478712D01*
X122511381Y-119491034D01*
X122501129Y-119506496D01*
X122477691Y-119541045D01*
X122443197Y-119591564D01*
X122399760Y-119654963D01*
X122349494Y-119728153D01*
X122294513Y-119808043D01*
X122240061Y-119887970D01*
X122190981Y-119961713D01*
X122149357Y-120026003D01*
X122117189Y-120077700D01*
X122096474Y-120113663D01*
X122089209Y-120130754D01*
X122093368Y-120149869D01*
X122107126Y-120189931D01*
X122128587Y-120244862D01*
X122155769Y-120310242D01*
X122186689Y-120381652D01*
X122219366Y-120454672D01*
X122251816Y-120524881D01*
X122282057Y-120587862D01*
X122308107Y-120639193D01*
X122327983Y-120674455D01*
X122339704Y-120689229D01*
X122356283Y-120693844D01*
X122396427Y-120702872D01*
X122455802Y-120715273D01*
X122530615Y-120730274D01*
X122617074Y-120747101D01*
X122711386Y-120764981D01*
X122798407Y-120781584D01*
X122883895Y-120798570D01*
X122957354Y-120813875D01*
X123015173Y-120826725D01*
X123053745Y-120836342D01*
X123069461Y-120841952D01*
X123071109Y-120846610D01*
X123074561Y-120874296D01*
X123077847Y-120922637D01*
X123080886Y-120987379D01*
X123083599Y-121064273D01*
X123085904Y-121149065D01*
X123087723Y-121237505D01*
X123088973Y-121325340D01*
X123089576Y-121408319D01*
X123089450Y-121482190D01*
X123088516Y-121542701D01*
X123086693Y-121585601D01*
X123083901Y-121606638D01*
X123079734Y-121613959D01*
X123069483Y-121622371D01*
X123050798Y-121630743D01*
X123020670Y-121639850D01*
X122976089Y-121650471D01*
X122914045Y-121663383D01*
X122831528Y-121679364D01*
X122725529Y-121699189D01*
X122639657Y-121715462D01*
X122552082Y-121732847D01*
X122475770Y-121748824D01*
X122414527Y-121762569D01*
X122372154Y-121773258D01*
X122352455Y-121780066D01*
X122350236Y-121782027D01*
X122335798Y-121804506D01*
X122314602Y-121846581D01*
X122288419Y-121903835D01*
X122259023Y-121971856D01*
X122228187Y-122046226D01*
X122197681Y-122122532D01*
X122169280Y-122196358D01*
X122144756Y-122263290D01*
X122125880Y-122318912D01*
X122114427Y-122358809D01*
X122112168Y-122378566D01*
X122117370Y-122388246D01*
X122136262Y-122418623D01*
X122166676Y-122465501D01*
X122206426Y-122525555D01*
X122253325Y-122595463D01*
X122305187Y-122671901D01*
X122341214Y-122724834D01*
X122390802Y-122798097D01*
X122434385Y-122862962D01*
X122469663Y-122915986D01*
X122494334Y-122953722D01*
X122506097Y-122972725D01*
X122508412Y-122977957D01*
X122509401Y-122988426D01*
X122504623Y-123002058D01*
X122492165Y-123021095D01*
X122470114Y-123047785D01*
X122436558Y-123084371D01*
X122389584Y-123133097D01*
X122327280Y-123196210D01*
X122247733Y-123275952D01*
X122231611Y-123292055D01*
X122162218Y-123360911D01*
X122099326Y-123422601D01*
X122045420Y-123474738D01*
X122002986Y-123514934D01*
X121974510Y-123540803D01*
X121962476Y-123549957D01*
X121949674Y-123543151D01*
X121917575Y-123522965D01*
X121869297Y-123491386D01*
X121807860Y-123450410D01*
X121736285Y-123402037D01*
X121657589Y-123348263D01*
X121581981Y-123296690D01*
X121509507Y-123247991D01*
X121446814Y-123206626D01*
X121396977Y-123174597D01*
X121363070Y-123153910D01*
X121348170Y-123146569D01*
X121334990Y-123150665D01*
X121301874Y-123165157D01*
X121255182Y-123187652D01*
X121200453Y-123215563D01*
X121154557Y-123238555D01*
X121105515Y-123260649D01*
X121068742Y-123274369D01*
X121049874Y-123277400D01*
X121048627Y-123276270D01*
X121037615Y-123256932D01*
X121017749Y-123215668D01*
X120990073Y-123154859D01*
X120955627Y-123076886D01*
X120915457Y-122984128D01*
X120870603Y-122878966D01*
X120822110Y-122763780D01*
X120771020Y-122640950D01*
X120510815Y-122011656D01*
X120550153Y-121981361D01*
X120620401Y-121926931D01*
X120687183Y-121873940D01*
X120738808Y-121830854D01*
X120778826Y-121794412D01*
X120810789Y-121761350D01*
X120838247Y-121728406D01*
X120864752Y-121692317D01*
X120916793Y-121608531D01*
X120964075Y-121498390D01*
X120991040Y-121379676D01*
X120999603Y-121246053D01*
X120999461Y-121228247D01*
X120996094Y-121152656D01*
X120989002Y-121082406D01*
X120979193Y-121028245D01*
X120946896Y-120930017D01*
X120883875Y-120807753D01*
X120801331Y-120699649D01*
X120702149Y-120607513D01*
X120589215Y-120533157D01*
X120465411Y-120478391D01*
X120333624Y-120445027D01*
X120196736Y-120434874D01*
X120057633Y-120449743D01*
X119970590Y-120471059D01*
X119849612Y-120517599D01*
X119741600Y-120583165D01*
X119640309Y-120671067D01*
X119598150Y-120716303D01*
X119513016Y-120832909D01*
X119451859Y-120957285D01*
X119414380Y-121086922D01*
X119400282Y-121219312D01*
X119409267Y-121351948D01*
X119441037Y-121482320D01*
X119495293Y-121607920D01*
X119571739Y-121726241D01*
X119670075Y-121834774D01*
X119790003Y-121931010D01*
X119802463Y-121939708D01*
X119844236Y-121972049D01*
X119872910Y-121999456D01*
X119883563Y-122017382D01*
X119880703Y-122027968D01*
X119868227Y-122062651D01*
X119846436Y-122119365D01*
X119815969Y-122196532D01*
X119777467Y-122292574D01*
X119731569Y-122405913D01*
X119678915Y-122534970D01*
X119620144Y-122678168D01*
X119555897Y-122833928D01*
X119486813Y-123000673D01*
X119413532Y-123176823D01*
X119388715Y-123231116D01*
X119366097Y-123268274D01*
X119349028Y-123281032D01*
X119336668Y-123277826D01*
X119303432Y-123263988D01*
X119256971Y-123241730D01*
X119203247Y-123213800D01*
X119164111Y-123193186D01*
X119115632Y-123169111D01*
X119078985Y-123152660D01*
X119059999Y-123146569D01*
X119055196Y-123148138D01*
X119030212Y-123161765D01*
X118988180Y-123187587D01*
X118932536Y-123223410D01*
X118866716Y-123267042D01*
X118794158Y-123316287D01*
X118766826Y-123335036D01*
X118692617Y-123385867D01*
X118624244Y-123432597D01*
X118565789Y-123472443D01*
X118521333Y-123502620D01*
X118494957Y-123520346D01*
X118443064Y-123554687D01*
X118168289Y-123280158D01*
X118151956Y-123263813D01*
X118082951Y-123194151D01*
X118021130Y-123130783D01*
X117968885Y-123076227D01*
X117928607Y-123033004D01*
X117902687Y-123003632D01*
X117893515Y-122990633D01*
X117900308Y-122976867D01*
X117920487Y-122943807D01*
X117952065Y-122894659D01*
X117993044Y-122832487D01*
X118041425Y-122760356D01*
X118095209Y-122681332D01*
X118146664Y-122605568D01*
X118195397Y-122532406D01*
X118236795Y-122468780D01*
X118268850Y-122417825D01*
X118289555Y-122382673D01*
X118296903Y-122366459D01*
X118295765Y-122360701D01*
X118286584Y-122332127D01*
X118269392Y-122284351D01*
X118245627Y-122221229D01*
X118216729Y-122146618D01*
X118184138Y-122064373D01*
X118148685Y-121977255D01*
X118111454Y-121890061D01*
X118082175Y-121827286D01*
X118060558Y-121788318D01*
X118046314Y-121772541D01*
X118032269Y-121768678D01*
X117994014Y-121760176D01*
X117936298Y-121748287D01*
X117862992Y-121733788D01*
X117777968Y-121717454D01*
X117685098Y-121700064D01*
X117608674Y-121685656D01*
X117522945Y-121668786D01*
X117448671Y-121653393D01*
X117389607Y-121640285D01*
X117349509Y-121630268D01*
X117332133Y-121624152D01*
X117329032Y-121619484D01*
X117324440Y-121600638D01*
X117320901Y-121566308D01*
X117318316Y-121514214D01*
X117316590Y-121442075D01*
X117315626Y-121347611D01*
X117315326Y-121228541D01*
X117315326Y-120846680D01*
X117345580Y-120833973D01*
X117362127Y-120829282D01*
X117402776Y-120820104D01*
X117462664Y-120807693D01*
X117537887Y-120792836D01*
X117624538Y-120776318D01*
X117718714Y-120758924D01*
X117754251Y-120752418D01*
X117868635Y-120730661D01*
X117957683Y-120712224D01*
X118022426Y-120696866D01*
X118063896Y-120684350D01*
X118083124Y-120674435D01*
X118085162Y-120671887D01*
X118099062Y-120647541D01*
X118120872Y-120603454D01*
X118148685Y-120543695D01*
X118180596Y-120472336D01*
X118214699Y-120393445D01*
X118244396Y-120323187D01*
X118273830Y-120251817D01*
X118294308Y-120198957D01*
X118306943Y-120161194D01*
X118312846Y-120135115D01*
X118313131Y-120117305D01*
X118308910Y-120104351D01*
X118299157Y-120088399D01*
X118275717Y-120052462D01*
X118241196Y-120000633D01*
X118197810Y-119936214D01*
X118147772Y-119862509D01*
X118093297Y-119782819D01*
X118043457Y-119709586D01*
X117994850Y-119636950D01*
X117953538Y-119573924D01*
X117921535Y-119523625D01*
X117900856Y-119489170D01*
X117893515Y-119473678D01*
X117898390Y-119464788D01*
X117919851Y-119438620D01*
X117955680Y-119399083D01*
X118002880Y-119349158D01*
X118058457Y-119291828D01*
X118119415Y-119230075D01*
X118182759Y-119166881D01*
X118245494Y-119105227D01*
X118304624Y-119048096D01*
X118357154Y-118998470D01*
X118400089Y-118959331D01*
X118430433Y-118933660D01*
X118445192Y-118924441D01*
X118460653Y-118931396D01*
X118495273Y-118951830D01*
X118545767Y-118983738D01*
X118609018Y-119025108D01*
X118681904Y-119073931D01*
X118761305Y-119128195D01*
X118836648Y-119179845D01*
X118911660Y-119230569D01*
X118977826Y-119274597D01*
X119031844Y-119309753D01*
X119070414Y-119333865D01*
X119090233Y-119344759D01*
X119095785Y-119346438D01*
X119113256Y-119347431D01*
X119138601Y-119343011D01*
X119175171Y-119332098D01*
X119226314Y-119313614D01*
X119295382Y-119286479D01*
X119385726Y-119249616D01*
X119441542Y-119226335D01*
X119532054Y-119186949D01*
X119598547Y-119155455D01*
X119640536Y-119132090D01*
X119657533Y-119117092D01*
X119661617Y-119101613D01*
X119670062Y-119062270D01*
X119681787Y-119003576D01*
X119696047Y-118929357D01*
X119712095Y-118843436D01*
X119729187Y-118749639D01*
X119743922Y-118668858D01*
X119760439Y-118580851D01*
X119775415Y-118503706D01*
X119788073Y-118441328D01*
X119797638Y-118397626D01*
X119803333Y-118376505D01*
X119815755Y-118346251D01*
X120204546Y-118346251D01*
X120307612Y-118346377D01*
G37*
%TD*%
D11*
%TO.C,LS1*%
X121920000Y-77460000D03*
X121920000Y-69860000D03*
%TD*%
D12*
%TO.C,J2*%
X185913000Y-63754000D03*
X180863000Y-63754000D03*
X185913000Y-66294000D03*
X180863000Y-66294000D03*
X185913000Y-68834000D03*
X180863000Y-68834000D03*
%TD*%
D13*
%TO.C,U1*%
X127000000Y-83185000D03*
X177800000Y-112395000D03*
X127000000Y-112395000D03*
X177800000Y-83185000D03*
D14*
X127000000Y-109220000D03*
X127000000Y-106680000D03*
X127000000Y-104140000D03*
X127000000Y-101600000D03*
X127000000Y-99060000D03*
X127000000Y-96520000D03*
X127000000Y-93980000D03*
X127000000Y-91440000D03*
X127000000Y-88900000D03*
X127000000Y-86360000D03*
%TD*%
D15*
%TO.C,SW4*%
X114300000Y-104140000D03*
X114300000Y-91640000D03*
X119300000Y-91640000D03*
X119300000Y-104140000D03*
%TD*%
%TO.C,SW8*%
X210820000Y-91640000D03*
X210820000Y-104140000D03*
X215820000Y-91640000D03*
X215820000Y-104140000D03*
%TD*%
%TO.C,SW3*%
X101600000Y-116840000D03*
X101600000Y-104340000D03*
X106600000Y-116840000D03*
X106600000Y-104340000D03*
%TD*%
D13*
%TO.C,*%
X212852000Y-85217000D03*
%TD*%
%TO.C,*%
X91948000Y-110363000D03*
%TD*%
%TO.C,*%
X116332000Y-85979000D03*
%TD*%
%TO.C,*%
X188468000Y-109601000D03*
%TD*%
%TO.C,*%
X91948000Y-85979000D03*
%TD*%
D15*
%TO.C,SW5*%
X198120000Y-91440000D03*
X198120000Y-78940000D03*
X203120000Y-78940000D03*
X203120000Y-91440000D03*
%TD*%
%TO.C,SW7*%
X198120000Y-116790000D03*
X198120000Y-104290000D03*
X203120000Y-104290000D03*
X203120000Y-116790000D03*
%TD*%
%TO.C,SW1*%
X101600000Y-78940000D03*
X101600000Y-91440000D03*
X106600000Y-78940000D03*
X106600000Y-91440000D03*
%TD*%
D13*
%TO.C,*%
X116332000Y-110363000D03*
%TD*%
D15*
%TO.C,SW2*%
X88900000Y-104140000D03*
X88900000Y-91640000D03*
X93900000Y-104140000D03*
X93900000Y-91640000D03*
%TD*%
D13*
%TO.C,*%
X212852000Y-109601000D03*
%TD*%
D15*
%TO.C,SW6*%
X185420000Y-104090000D03*
X185420000Y-91590000D03*
X190420000Y-104090000D03*
X190420000Y-91590000D03*
%TD*%
D13*
%TO.C,*%
X188468000Y-85217000D03*
%TD*%
D16*
%TO.C,J1*%
X151714400Y-115798600D03*
D17*
X147244000Y-120269000D03*
X147244000Y-63881000D03*
X136068000Y-63881000D03*
X136068000Y-120269000D03*
%TD*%
D18*
%TO.C,U5*%
X156210000Y-62230000D03*
X156210000Y-64770000D03*
D19*
X156210000Y-67310000D03*
D18*
X156210000Y-69850000D03*
X156210000Y-72390000D03*
X156210000Y-74930000D03*
X156210000Y-77470000D03*
D19*
X156210000Y-80010000D03*
D18*
X156210000Y-82550000D03*
X156210000Y-85090000D03*
X156210000Y-87630000D03*
X156210000Y-90170000D03*
D19*
X156210000Y-92710000D03*
D18*
X156210000Y-95250000D03*
X156210000Y-97790000D03*
X156210000Y-100330000D03*
X156210000Y-102870000D03*
D19*
X156210000Y-105410000D03*
D18*
X156210000Y-107950000D03*
X156210000Y-110490000D03*
X173990000Y-110490000D03*
X173990000Y-107950000D03*
D19*
X173990000Y-105410000D03*
D18*
X173990000Y-102870000D03*
X173990000Y-100330000D03*
X173990000Y-97790000D03*
X173990000Y-95250000D03*
D19*
X173990000Y-92710000D03*
D18*
X173990000Y-90170000D03*
X173990000Y-87630000D03*
X173990000Y-85090000D03*
X173990000Y-82550000D03*
D19*
X173990000Y-80010000D03*
D18*
X173990000Y-77470000D03*
X173990000Y-74930000D03*
X173990000Y-72390000D03*
X173990000Y-69850000D03*
D19*
X173990000Y-67310000D03*
D18*
X173990000Y-64770000D03*
X173990000Y-62230000D03*
%TD*%
M02*
