%TF.GenerationSoftware,KiCad,Pcbnew,(6.0.4-0)*%
%TF.CreationDate,2022-09-29T15:47:50-04:00*%
%TF.ProjectId,pigame_pico,70696761-6d65-45f7-9069-636f2e6b6963,rev?*%
%TF.SameCoordinates,Original*%
%TF.FileFunction,Paste,Top*%
%TF.FilePolarity,Positive*%
%FSLAX46Y46*%
G04 Gerber Fmt 4.6, Leading zero omitted, Abs format (unit mm)*
G04 Created by KiCad (PCBNEW (6.0.4-0)) date 2022-09-29 15:47:50*
%MOMM*%
%LPD*%
G01*
G04 APERTURE LIST*
G04 Aperture macros list*
%AMRoundRect*
0 Rectangle with rounded corners*
0 $1 Rounding radius*
0 $2 $3 $4 $5 $6 $7 $8 $9 X,Y pos of 4 corners*
0 Add a 4 corners polygon primitive as box body*
4,1,4,$2,$3,$4,$5,$6,$7,$8,$9,$2,$3,0*
0 Add four circle primitives for the rounded corners*
1,1,$1+$1,$2,$3*
1,1,$1+$1,$4,$5*
1,1,$1+$1,$6,$7*
1,1,$1+$1,$8,$9*
0 Add four rect primitives between the rounded corners*
20,1,$1+$1,$2,$3,$4,$5,0*
20,1,$1+$1,$4,$5,$6,$7,0*
20,1,$1+$1,$6,$7,$8,$9,0*
20,1,$1+$1,$8,$9,$2,$3,0*%
G04 Aperture macros list end*
%TA.AperFunction,Profile*%
%ADD10C,0.100000*%
%TD*%
%ADD11C,0.010000*%
%ADD12R,1.500000X2.000000*%
%ADD13RoundRect,0.018900X0.411100X0.116100X-0.411100X0.116100X-0.411100X-0.116100X0.411100X-0.116100X0*%
%ADD14RoundRect,0.018900X-0.116100X0.411100X-0.116100X-0.411100X0.116100X-0.411100X0.116100X0.411100X0*%
%ADD15RoundRect,0.018900X-0.411100X-0.116100X0.411100X-0.116100X0.411100X0.116100X-0.411100X0.116100X0*%
%ADD16RoundRect,0.018900X0.116100X-0.411100X0.116100X0.411100X-0.116100X0.411100X-0.116100X-0.411100X0*%
%ADD17R,2.000000X1.700000*%
%ADD18R,1.700000X2.000000*%
%ADD19R,1.200000X2.500000*%
G04 APERTURE END LIST*
D10*
X196850002Y-71120002D02*
X217170000Y-71120000D01*
X118110000Y-59690000D02*
X152400000Y-59690000D01*
X186690000Y-59690000D02*
X152400000Y-59690000D01*
X82550000Y-119380000D02*
G75*
G03*
X87630000Y-124460000I5080000J0D01*
G01*
X87630000Y-71120000D02*
X107950002Y-71120002D01*
X152400000Y-124460000D02*
X217170000Y-124460000D01*
X222250000Y-119380000D02*
X222250000Y-76200000D01*
X191770000Y-64770000D02*
X191770002Y-66040002D01*
X217170000Y-124460000D02*
G75*
G03*
X222250000Y-119380000I0J5080000D01*
G01*
X113030000Y-64770000D02*
X113030002Y-66040002D01*
X107950002Y-71120002D02*
G75*
G03*
X113030002Y-66040002I-2J5080002D01*
G01*
X191770000Y-64770000D02*
G75*
G03*
X186690000Y-59690000I-5080000J0D01*
G01*
X191769998Y-66040002D02*
G75*
G03*
X196850002Y-71120002I5080002J2D01*
G01*
X222250000Y-76200000D02*
G75*
G03*
X217170000Y-71120000I-5080000J0D01*
G01*
X82550000Y-76200000D02*
X82550000Y-119380000D01*
X87630000Y-71120000D02*
G75*
G03*
X82550000Y-76200000I0J-5080000D01*
G01*
X118110000Y-59690000D02*
G75*
G03*
X113030000Y-64770000I0J-5080000D01*
G01*
X152400000Y-124460000D02*
X87630000Y-124460000D01*
%TO.C,U2*%
G36*
X126373000Y-73960000D02*
G01*
X125595000Y-73960000D01*
X125595000Y-73182000D01*
X126373000Y-73182000D01*
X126373000Y-73960000D01*
G37*
D11*
X126373000Y-73960000D02*
X125595000Y-73960000D01*
X125595000Y-73182000D01*
X126373000Y-73182000D01*
X126373000Y-73960000D01*
%TD*%
D12*
%TO.C,D3*%
X178690000Y-75184000D03*
X181990000Y-75184000D03*
%TD*%
D13*
%TO.C,U2*%
X127419000Y-74321000D03*
X127419000Y-73821000D03*
X127419000Y-73321000D03*
X127419000Y-72821000D03*
D14*
X126734000Y-72136000D03*
X126234000Y-72136000D03*
X125734000Y-72136000D03*
X125234000Y-72136000D03*
D15*
X124549000Y-72821000D03*
X124549000Y-73321000D03*
X124549000Y-73821000D03*
X124549000Y-74321000D03*
D16*
X125234000Y-75006000D03*
X125734000Y-75006000D03*
X126234000Y-75006000D03*
X126734000Y-75006000D03*
%TD*%
D17*
%TO.C,C2*%
X114935000Y-72542400D03*
X118935000Y-72542400D03*
%TD*%
D18*
%TO.C,C1*%
X122555000Y-88360000D03*
X122555000Y-84360000D03*
%TD*%
D17*
%TO.C,R3*%
X203740000Y-74295000D03*
X207740000Y-74295000D03*
%TD*%
%TO.C,R1*%
X114967000Y-68707000D03*
X118967000Y-68707000D03*
%TD*%
%TO.C,D2*%
X89014800Y-74269600D03*
X93014800Y-74269600D03*
%TD*%
%TO.C,C3*%
X114840000Y-76327000D03*
X118840000Y-76327000D03*
%TD*%
D18*
%TO.C,C4*%
X152908000Y-64072000D03*
X152908000Y-68072000D03*
%TD*%
D19*
%TO.C,SW9*%
X180405400Y-63500000D03*
X180405400Y-68961000D03*
X182945400Y-63500000D03*
X182945400Y-68961000D03*
X185485400Y-63500000D03*
X185485400Y-68961000D03*
%TD*%
D17*
%TO.C,D1*%
X215360000Y-74295000D03*
X211360000Y-74295000D03*
%TD*%
%TO.C,R4*%
X100425000Y-74295000D03*
X96425000Y-74295000D03*
%TD*%
M02*
