%TF.GenerationSoftware,KiCad,Pcbnew,(6.0.0)*%
%TF.CreationDate,2022-08-16T21:22:32+02:00*%
%TF.ProjectId,pigame_pico,70696761-6d65-45f7-9069-636f2e6b6963,rev?*%
%TF.SameCoordinates,Original*%
%TF.FileFunction,Legend,Top*%
%TF.FilePolarity,Positive*%
%FSLAX46Y46*%
G04 Gerber Fmt 4.6, Leading zero omitted, Abs format (unit mm)*
G04 Created by KiCad (PCBNEW (6.0.0)) date 2022-08-16 21:22:32*
%MOMM*%
%LPD*%
G01*
G04 APERTURE LIST*
%TA.AperFunction,Profile*%
%ADD10C,0.100000*%
%TD*%
%ADD11C,0.150000*%
%ADD12C,0.120000*%
%ADD13C,0.127000*%
%ADD14C,0.200000*%
G04 APERTURE END LIST*
D10*
X196850002Y-71120002D02*
X217170000Y-71120000D01*
X118110000Y-59690000D02*
X152400000Y-59690000D01*
X186690000Y-59690000D02*
X152400000Y-59690000D01*
X82550000Y-119380000D02*
G75*
G03*
X87630000Y-124460000I5080002J2D01*
G01*
X87630000Y-71120000D02*
X107950002Y-71120002D01*
X152400000Y-124460000D02*
X217170000Y-124460000D01*
X222250000Y-119380000D02*
X222250000Y-76200000D01*
X191770000Y-64770000D02*
X191770002Y-66040002D01*
X217170000Y-124460000D02*
G75*
G03*
X222250000Y-119380000I-2J5080002D01*
G01*
X113030000Y-64770000D02*
X113030002Y-66040002D01*
X107950002Y-71120002D02*
G75*
G03*
X113030002Y-66040002I-2J5080002D01*
G01*
X191770000Y-64770000D02*
G75*
G03*
X186690000Y-59690000I-5080002J-2D01*
G01*
X191770002Y-66040002D02*
G75*
G03*
X196850002Y-71120002I5080002J2D01*
G01*
X222250000Y-76200000D02*
G75*
G03*
X217170000Y-71120000I-5080002J-2D01*
G01*
X82550000Y-76200000D02*
X82550000Y-119380000D01*
X87630000Y-71120000D02*
G75*
G03*
X82550000Y-76200000I2J-5080002D01*
G01*
X118110000Y-59690000D02*
G75*
G03*
X113030000Y-64770000I2J-5080002D01*
G01*
X152400000Y-124460000D02*
X87630000Y-124460000D01*
D11*
X178752619Y-71207380D02*
X178943095Y-71207380D01*
X179038333Y-71255000D01*
X179133571Y-71350238D01*
X179181190Y-71540714D01*
X179181190Y-71874047D01*
X179133571Y-72064523D01*
X179038333Y-72159761D01*
X178943095Y-72207380D01*
X178752619Y-72207380D01*
X178657380Y-72159761D01*
X178562142Y-72064523D01*
X178514523Y-71874047D01*
X178514523Y-71540714D01*
X178562142Y-71350238D01*
X178657380Y-71255000D01*
X178752619Y-71207380D01*
X179943095Y-71683571D02*
X179609761Y-71683571D01*
X179609761Y-72207380D02*
X179609761Y-71207380D01*
X180085952Y-71207380D01*
X180800238Y-71683571D02*
X180466904Y-71683571D01*
X180466904Y-72207380D02*
X180466904Y-71207380D01*
X180943095Y-71207380D01*
X186070952Y-71207380D02*
X186261428Y-71207380D01*
X186356666Y-71255000D01*
X186451904Y-71350238D01*
X186499523Y-71540714D01*
X186499523Y-71874047D01*
X186451904Y-72064523D01*
X186356666Y-72159761D01*
X186261428Y-72207380D01*
X186070952Y-72207380D01*
X185975714Y-72159761D01*
X185880476Y-72064523D01*
X185832857Y-71874047D01*
X185832857Y-71540714D01*
X185880476Y-71350238D01*
X185975714Y-71255000D01*
X186070952Y-71207380D01*
X186928095Y-72207380D02*
X186928095Y-71207380D01*
X187499523Y-72207380D01*
X187499523Y-71207380D01*
%TO.C,U1*%
X153434146Y-95363431D02*
X153434146Y-96172955D01*
X153481765Y-96268193D01*
X153529384Y-96315812D01*
X153624622Y-96363431D01*
X153815098Y-96363431D01*
X153910336Y-96315812D01*
X153957955Y-96268193D01*
X154005574Y-96172955D01*
X154005574Y-95363431D01*
X155005574Y-96363431D02*
X154434146Y-96363431D01*
X154719860Y-96363431D02*
X154719860Y-95363431D01*
X154624622Y-95506289D01*
X154529384Y-95601527D01*
X154434146Y-95649146D01*
X129240595Y-94432380D02*
X129240595Y-93432380D01*
X129478690Y-93432380D01*
X129621547Y-93480000D01*
X129716785Y-93575238D01*
X129764404Y-93670476D01*
X129812023Y-93860952D01*
X129812023Y-94003809D01*
X129764404Y-94194285D01*
X129716785Y-94289523D01*
X129621547Y-94384761D01*
X129478690Y-94432380D01*
X129240595Y-94432380D01*
X130954880Y-93384761D02*
X130097738Y-94670476D01*
X131859642Y-94337142D02*
X131812023Y-94384761D01*
X131669166Y-94432380D01*
X131573928Y-94432380D01*
X131431071Y-94384761D01*
X131335833Y-94289523D01*
X131288214Y-94194285D01*
X131240595Y-94003809D01*
X131240595Y-93860952D01*
X131288214Y-93670476D01*
X131335833Y-93575238D01*
X131431071Y-93480000D01*
X131573928Y-93432380D01*
X131669166Y-93432380D01*
X131812023Y-93480000D01*
X131859642Y-93527619D01*
X129240595Y-107132380D02*
X129240595Y-106132380D01*
X129573928Y-106846666D01*
X129907261Y-106132380D01*
X129907261Y-107132380D01*
X130383452Y-107132380D02*
X130383452Y-106132380D01*
X130812023Y-107084761D02*
X130954880Y-107132380D01*
X131192976Y-107132380D01*
X131288214Y-107084761D01*
X131335833Y-107037142D01*
X131383452Y-106941904D01*
X131383452Y-106846666D01*
X131335833Y-106751428D01*
X131288214Y-106703809D01*
X131192976Y-106656190D01*
X131002500Y-106608571D01*
X130907261Y-106560952D01*
X130859642Y-106513333D01*
X130812023Y-106418095D01*
X130812023Y-106322857D01*
X130859642Y-106227619D01*
X130907261Y-106180000D01*
X131002500Y-106132380D01*
X131240595Y-106132380D01*
X131383452Y-106180000D01*
X132002500Y-106132380D02*
X132192976Y-106132380D01*
X132288214Y-106180000D01*
X132383452Y-106275238D01*
X132431071Y-106465714D01*
X132431071Y-106799047D01*
X132383452Y-106989523D01*
X132288214Y-107084761D01*
X132192976Y-107132380D01*
X132002500Y-107132380D01*
X131907261Y-107084761D01*
X131812023Y-106989523D01*
X131764404Y-106799047D01*
X131764404Y-106465714D01*
X131812023Y-106275238D01*
X131907261Y-106180000D01*
X132002500Y-106132380D01*
X129097738Y-98512380D02*
X129669166Y-98512380D01*
X129383452Y-99512380D02*
X129383452Y-98512380D01*
X130335833Y-98988571D02*
X130002500Y-98988571D01*
X130002500Y-99512380D02*
X130002500Y-98512380D01*
X130478690Y-98512380D01*
X130716785Y-98512380D02*
X131288214Y-98512380D01*
X131002500Y-99512380D02*
X131002500Y-98512380D01*
X131383452Y-99607619D02*
X132145357Y-99607619D01*
X132954880Y-99417142D02*
X132907261Y-99464761D01*
X132764404Y-99512380D01*
X132669166Y-99512380D01*
X132526309Y-99464761D01*
X132431071Y-99369523D01*
X132383452Y-99274285D01*
X132335833Y-99083809D01*
X132335833Y-98940952D01*
X132383452Y-98750476D01*
X132431071Y-98655238D01*
X132526309Y-98560000D01*
X132669166Y-98512380D01*
X132764404Y-98512380D01*
X132907261Y-98560000D01*
X132954880Y-98607619D01*
X133335833Y-99464761D02*
X133478690Y-99512380D01*
X133716785Y-99512380D01*
X133812023Y-99464761D01*
X133859642Y-99417142D01*
X133907261Y-99321904D01*
X133907261Y-99226666D01*
X133859642Y-99131428D01*
X133812023Y-99083809D01*
X133716785Y-99036190D01*
X133526309Y-98988571D01*
X133431071Y-98940952D01*
X133383452Y-98893333D01*
X133335833Y-98798095D01*
X133335833Y-98702857D01*
X133383452Y-98607619D01*
X133431071Y-98560000D01*
X133526309Y-98512380D01*
X133764404Y-98512380D01*
X133907261Y-98560000D01*
X129192976Y-104544761D02*
X129335833Y-104592380D01*
X129573928Y-104592380D01*
X129669166Y-104544761D01*
X129716785Y-104497142D01*
X129764404Y-104401904D01*
X129764404Y-104306666D01*
X129716785Y-104211428D01*
X129669166Y-104163809D01*
X129573928Y-104116190D01*
X129383452Y-104068571D01*
X129288214Y-104020952D01*
X129240595Y-103973333D01*
X129192976Y-103878095D01*
X129192976Y-103782857D01*
X129240595Y-103687619D01*
X129288214Y-103640000D01*
X129383452Y-103592380D01*
X129621547Y-103592380D01*
X129764404Y-103640000D01*
X130764404Y-104497142D02*
X130716785Y-104544761D01*
X130573928Y-104592380D01*
X130478690Y-104592380D01*
X130335833Y-104544761D01*
X130240595Y-104449523D01*
X130192976Y-104354285D01*
X130145357Y-104163809D01*
X130145357Y-104020952D01*
X130192976Y-103830476D01*
X130240595Y-103735238D01*
X130335833Y-103640000D01*
X130478690Y-103592380D01*
X130573928Y-103592380D01*
X130716785Y-103640000D01*
X130764404Y-103687619D01*
X131192976Y-104592380D02*
X131192976Y-103592380D01*
X131764404Y-104592380D02*
X131335833Y-104020952D01*
X131764404Y-103592380D02*
X131192976Y-104163809D01*
X129764404Y-85860000D02*
X129669166Y-85812380D01*
X129526309Y-85812380D01*
X129383452Y-85860000D01*
X129288214Y-85955238D01*
X129240595Y-86050476D01*
X129192976Y-86240952D01*
X129192976Y-86383809D01*
X129240595Y-86574285D01*
X129288214Y-86669523D01*
X129383452Y-86764761D01*
X129526309Y-86812380D01*
X129621547Y-86812380D01*
X129764404Y-86764761D01*
X129812023Y-86717142D01*
X129812023Y-86383809D01*
X129621547Y-86383809D01*
X130240595Y-86812380D02*
X130240595Y-85812380D01*
X130812023Y-86812380D01*
X130812023Y-85812380D01*
X131288214Y-86812380D02*
X131288214Y-85812380D01*
X131526309Y-85812380D01*
X131669166Y-85860000D01*
X131764404Y-85955238D01*
X131812023Y-86050476D01*
X131859642Y-86240952D01*
X131859642Y-86383809D01*
X131812023Y-86574285D01*
X131764404Y-86669523D01*
X131669166Y-86764761D01*
X131526309Y-86812380D01*
X131288214Y-86812380D01*
X129240595Y-102052380D02*
X129240595Y-101052380D01*
X129573928Y-101766666D01*
X129907261Y-101052380D01*
X129907261Y-102052380D01*
X130573928Y-101052380D02*
X130764404Y-101052380D01*
X130859642Y-101100000D01*
X130954880Y-101195238D01*
X131002500Y-101385714D01*
X131002500Y-101719047D01*
X130954880Y-101909523D01*
X130859642Y-102004761D01*
X130764404Y-102052380D01*
X130573928Y-102052380D01*
X130478690Y-102004761D01*
X130383452Y-101909523D01*
X130335833Y-101719047D01*
X130335833Y-101385714D01*
X130383452Y-101195238D01*
X130478690Y-101100000D01*
X130573928Y-101052380D01*
X131383452Y-102004761D02*
X131526309Y-102052380D01*
X131764404Y-102052380D01*
X131859642Y-102004761D01*
X131907261Y-101957142D01*
X131954880Y-101861904D01*
X131954880Y-101766666D01*
X131907261Y-101671428D01*
X131859642Y-101623809D01*
X131764404Y-101576190D01*
X131573928Y-101528571D01*
X131478690Y-101480952D01*
X131431071Y-101433333D01*
X131383452Y-101338095D01*
X131383452Y-101242857D01*
X131431071Y-101147619D01*
X131478690Y-101100000D01*
X131573928Y-101052380D01*
X131812023Y-101052380D01*
X131954880Y-101100000D01*
X132383452Y-102052380D02*
X132383452Y-101052380D01*
X129812023Y-91892380D02*
X129478690Y-91416190D01*
X129240595Y-91892380D02*
X129240595Y-90892380D01*
X129621547Y-90892380D01*
X129716785Y-90940000D01*
X129764404Y-90987619D01*
X129812023Y-91082857D01*
X129812023Y-91225714D01*
X129764404Y-91320952D01*
X129716785Y-91368571D01*
X129621547Y-91416190D01*
X129240595Y-91416190D01*
X130240595Y-91368571D02*
X130573928Y-91368571D01*
X130716785Y-91892380D02*
X130240595Y-91892380D01*
X130240595Y-90892380D01*
X130716785Y-90892380D01*
X131097738Y-91844761D02*
X131240595Y-91892380D01*
X131478690Y-91892380D01*
X131573928Y-91844761D01*
X131621547Y-91797142D01*
X131669166Y-91701904D01*
X131669166Y-91606666D01*
X131621547Y-91511428D01*
X131573928Y-91463809D01*
X131478690Y-91416190D01*
X131288214Y-91368571D01*
X131192976Y-91320952D01*
X131145357Y-91273333D01*
X131097738Y-91178095D01*
X131097738Y-91082857D01*
X131145357Y-90987619D01*
X131192976Y-90940000D01*
X131288214Y-90892380D01*
X131526309Y-90892380D01*
X131669166Y-90940000D01*
X132097738Y-91368571D02*
X132431071Y-91368571D01*
X132573928Y-91892380D02*
X132097738Y-91892380D01*
X132097738Y-90892380D01*
X132573928Y-90892380D01*
X132859642Y-90892380D02*
X133431071Y-90892380D01*
X133145357Y-91892380D02*
X133145357Y-90892380D01*
X129097738Y-88352380D02*
X129431071Y-89352380D01*
X129764404Y-88352380D01*
X130669166Y-89257142D02*
X130621547Y-89304761D01*
X130478690Y-89352380D01*
X130383452Y-89352380D01*
X130240595Y-89304761D01*
X130145357Y-89209523D01*
X130097738Y-89114285D01*
X130050119Y-88923809D01*
X130050119Y-88780952D01*
X130097738Y-88590476D01*
X130145357Y-88495238D01*
X130240595Y-88400000D01*
X130383452Y-88352380D01*
X130478690Y-88352380D01*
X130621547Y-88400000D01*
X130669166Y-88447619D01*
X131669166Y-89257142D02*
X131621547Y-89304761D01*
X131478690Y-89352380D01*
X131383452Y-89352380D01*
X131240595Y-89304761D01*
X131145357Y-89209523D01*
X131097738Y-89114285D01*
X131050119Y-88923809D01*
X131050119Y-88780952D01*
X131097738Y-88590476D01*
X131145357Y-88495238D01*
X131240595Y-88400000D01*
X131383452Y-88352380D01*
X131478690Y-88352380D01*
X131621547Y-88400000D01*
X131669166Y-88447619D01*
X129716785Y-109672380D02*
X129240595Y-109672380D01*
X129240595Y-108672380D01*
X130050119Y-109672380D02*
X130050119Y-108672380D01*
X130383452Y-108672380D02*
X130954880Y-108672380D01*
X130669166Y-109672380D02*
X130669166Y-108672380D01*
X131288214Y-109148571D02*
X131621547Y-109148571D01*
X131764404Y-109672380D02*
X131288214Y-109672380D01*
X131288214Y-108672380D01*
X131764404Y-108672380D01*
X129812023Y-96877142D02*
X129764404Y-96924761D01*
X129621547Y-96972380D01*
X129526309Y-96972380D01*
X129383452Y-96924761D01*
X129288214Y-96829523D01*
X129240595Y-96734285D01*
X129192976Y-96543809D01*
X129192976Y-96400952D01*
X129240595Y-96210476D01*
X129288214Y-96115238D01*
X129383452Y-96020000D01*
X129526309Y-95972380D01*
X129621547Y-95972380D01*
X129764404Y-96020000D01*
X129812023Y-96067619D01*
X130192976Y-96686666D02*
X130669166Y-96686666D01*
X130097738Y-96972380D02*
X130431071Y-95972380D01*
X130764404Y-96972380D01*
X131669166Y-96972380D02*
X131335833Y-96496190D01*
X131097738Y-96972380D02*
X131097738Y-95972380D01*
X131478690Y-95972380D01*
X131573928Y-96020000D01*
X131621547Y-96067619D01*
X131669166Y-96162857D01*
X131669166Y-96305714D01*
X131621547Y-96400952D01*
X131573928Y-96448571D01*
X131478690Y-96496190D01*
X131097738Y-96496190D01*
X132097738Y-96972380D02*
X132097738Y-95972380D01*
X132335833Y-95972380D01*
X132478690Y-96020000D01*
X132573928Y-96115238D01*
X132621547Y-96210476D01*
X132669166Y-96400952D01*
X132669166Y-96543809D01*
X132621547Y-96734285D01*
X132573928Y-96829523D01*
X132478690Y-96924761D01*
X132335833Y-96972380D01*
X132097738Y-96972380D01*
X132859642Y-97067619D02*
X133621547Y-97067619D01*
X134431071Y-96877142D02*
X134383452Y-96924761D01*
X134240595Y-96972380D01*
X134145357Y-96972380D01*
X134002500Y-96924761D01*
X133907261Y-96829523D01*
X133859642Y-96734285D01*
X133812023Y-96543809D01*
X133812023Y-96400952D01*
X133859642Y-96210476D01*
X133907261Y-96115238D01*
X134002500Y-96020000D01*
X134145357Y-95972380D01*
X134240595Y-95972380D01*
X134383452Y-96020000D01*
X134431071Y-96067619D01*
X134812023Y-96924761D02*
X134954880Y-96972380D01*
X135192976Y-96972380D01*
X135288214Y-96924761D01*
X135335833Y-96877142D01*
X135383452Y-96781904D01*
X135383452Y-96686666D01*
X135335833Y-96591428D01*
X135288214Y-96543809D01*
X135192976Y-96496190D01*
X135002500Y-96448571D01*
X134907261Y-96400952D01*
X134859642Y-96353333D01*
X134812023Y-96258095D01*
X134812023Y-96162857D01*
X134859642Y-96067619D01*
X134907261Y-96020000D01*
X135002500Y-95972380D01*
X135240595Y-95972380D01*
X135383452Y-96020000D01*
%TO.C,SW4*%
X116792095Y-89402380D02*
X116792095Y-88402380D01*
X117030190Y-88402380D01*
X117173047Y-88450000D01*
X117268285Y-88545238D01*
X117315904Y-88640476D01*
X117363523Y-88830952D01*
X117363523Y-88973809D01*
X117315904Y-89164285D01*
X117268285Y-89259523D01*
X117173047Y-89354761D01*
X117030190Y-89402380D01*
X116792095Y-89402380D01*
%TO.C,D3*%
X179474904Y-77922380D02*
X179474904Y-76922380D01*
X179713000Y-76922380D01*
X179855857Y-76970000D01*
X179951095Y-77065238D01*
X179998714Y-77160476D01*
X180046333Y-77350952D01*
X180046333Y-77493809D01*
X179998714Y-77684285D01*
X179951095Y-77779523D01*
X179855857Y-77874761D01*
X179713000Y-77922380D01*
X179474904Y-77922380D01*
X180379666Y-76922380D02*
X180998714Y-76922380D01*
X180665380Y-77303333D01*
X180808238Y-77303333D01*
X180903476Y-77350952D01*
X180951095Y-77398571D01*
X180998714Y-77493809D01*
X180998714Y-77731904D01*
X180951095Y-77827142D01*
X180903476Y-77874761D01*
X180808238Y-77922380D01*
X180522523Y-77922380D01*
X180427285Y-77874761D01*
X180379666Y-77827142D01*
%TO.C,U2*%
X125222095Y-76033380D02*
X125222095Y-76842904D01*
X125269714Y-76938142D01*
X125317333Y-76985761D01*
X125412571Y-77033380D01*
X125603047Y-77033380D01*
X125698285Y-76985761D01*
X125745904Y-76938142D01*
X125793523Y-76842904D01*
X125793523Y-76033380D01*
X126222095Y-76128619D02*
X126269714Y-76081000D01*
X126364952Y-76033380D01*
X126603047Y-76033380D01*
X126698285Y-76081000D01*
X126745904Y-76128619D01*
X126793523Y-76223857D01*
X126793523Y-76319095D01*
X126745904Y-76461952D01*
X126174476Y-77033380D01*
X126793523Y-77033380D01*
%TO.C,SW8*%
X213669523Y-89352380D02*
X213193333Y-89352380D01*
X213193333Y-88352380D01*
%TO.C,SW3*%
X103814285Y-102308761D02*
X103957142Y-102356380D01*
X104195238Y-102356380D01*
X104290476Y-102308761D01*
X104338095Y-102261142D01*
X104385714Y-102165904D01*
X104385714Y-102070666D01*
X104338095Y-101975428D01*
X104290476Y-101927809D01*
X104195238Y-101880190D01*
X104004761Y-101832571D01*
X103909523Y-101784952D01*
X103861904Y-101737333D01*
X103814285Y-101642095D01*
X103814285Y-101546857D01*
X103861904Y-101451619D01*
X103909523Y-101404000D01*
X104004761Y-101356380D01*
X104242857Y-101356380D01*
X104385714Y-101404000D01*
%TO.C,*%
%TO.C,C2*%
X116768333Y-71049542D02*
X116720714Y-71097161D01*
X116577857Y-71144780D01*
X116482619Y-71144780D01*
X116339761Y-71097161D01*
X116244523Y-71001923D01*
X116196904Y-70906685D01*
X116149285Y-70716209D01*
X116149285Y-70573352D01*
X116196904Y-70382876D01*
X116244523Y-70287638D01*
X116339761Y-70192400D01*
X116482619Y-70144780D01*
X116577857Y-70144780D01*
X116720714Y-70192400D01*
X116768333Y-70240019D01*
X117149285Y-70240019D02*
X117196904Y-70192400D01*
X117292142Y-70144780D01*
X117530238Y-70144780D01*
X117625476Y-70192400D01*
X117673095Y-70240019D01*
X117720714Y-70335257D01*
X117720714Y-70430495D01*
X117673095Y-70573352D01*
X117101666Y-71144780D01*
X117720714Y-71144780D01*
%TO.C,C1*%
X120880142Y-86526666D02*
X120927761Y-86574285D01*
X120975380Y-86717142D01*
X120975380Y-86812380D01*
X120927761Y-86955238D01*
X120832523Y-87050476D01*
X120737285Y-87098095D01*
X120546809Y-87145714D01*
X120403952Y-87145714D01*
X120213476Y-87098095D01*
X120118238Y-87050476D01*
X120023000Y-86955238D01*
X119975380Y-86812380D01*
X119975380Y-86717142D01*
X120023000Y-86574285D01*
X120070619Y-86526666D01*
X120975380Y-85574285D02*
X120975380Y-86145714D01*
X120975380Y-85860000D02*
X119975380Y-85860000D01*
X120118238Y-85955238D01*
X120213476Y-86050476D01*
X120261095Y-86145714D01*
%TO.C,*%
%TO.C,R3*%
X205573333Y-72897380D02*
X205240000Y-72421190D01*
X205001904Y-72897380D02*
X205001904Y-71897380D01*
X205382857Y-71897380D01*
X205478095Y-71945000D01*
X205525714Y-71992619D01*
X205573333Y-72087857D01*
X205573333Y-72230714D01*
X205525714Y-72325952D01*
X205478095Y-72373571D01*
X205382857Y-72421190D01*
X205001904Y-72421190D01*
X205906666Y-71897380D02*
X206525714Y-71897380D01*
X206192380Y-72278333D01*
X206335238Y-72278333D01*
X206430476Y-72325952D01*
X206478095Y-72373571D01*
X206525714Y-72468809D01*
X206525714Y-72706904D01*
X206478095Y-72802142D01*
X206430476Y-72849761D01*
X206335238Y-72897380D01*
X206049523Y-72897380D01*
X205954285Y-72849761D01*
X205906666Y-72802142D01*
%TO.C,*%
%TO.C,SW5*%
X200660000Y-76652380D02*
X200660000Y-75652380D01*
%TO.C,R1*%
X116800333Y-67309380D02*
X116467000Y-66833190D01*
X116228904Y-67309380D02*
X116228904Y-66309380D01*
X116609857Y-66309380D01*
X116705095Y-66357000D01*
X116752714Y-66404619D01*
X116800333Y-66499857D01*
X116800333Y-66642714D01*
X116752714Y-66737952D01*
X116705095Y-66785571D01*
X116609857Y-66833190D01*
X116228904Y-66833190D01*
X117752714Y-67309380D02*
X117181285Y-67309380D01*
X117467000Y-67309380D02*
X117467000Y-66309380D01*
X117371761Y-66452238D01*
X117276523Y-66547476D01*
X117181285Y-66595095D01*
%TO.C,SW7*%
X200398095Y-102052380D02*
X200398095Y-101052380D01*
X200969523Y-102052380D02*
X200540952Y-101480952D01*
X200969523Y-101052380D02*
X200398095Y-101623809D01*
%TO.C,SW1*%
X103671428Y-75702380D02*
X103909523Y-76702380D01*
X104100000Y-75988095D01*
X104290476Y-76702380D01*
X104528571Y-75702380D01*
%TO.C,*%
%TO.C,SW2*%
X91161904Y-88862666D02*
X91638095Y-88862666D01*
X91066666Y-89148380D02*
X91400000Y-88148380D01*
X91733333Y-89148380D01*
%TO.C,*%
%TO.C,D2*%
X90193904Y-72588380D02*
X90193904Y-71588380D01*
X90432000Y-71588380D01*
X90574857Y-71636000D01*
X90670095Y-71731238D01*
X90717714Y-71826476D01*
X90765333Y-72016952D01*
X90765333Y-72159809D01*
X90717714Y-72350285D01*
X90670095Y-72445523D01*
X90574857Y-72540761D01*
X90432000Y-72588380D01*
X90193904Y-72588380D01*
X91146285Y-71683619D02*
X91193904Y-71636000D01*
X91289142Y-71588380D01*
X91527238Y-71588380D01*
X91622476Y-71636000D01*
X91670095Y-71683619D01*
X91717714Y-71778857D01*
X91717714Y-71874095D01*
X91670095Y-72016952D01*
X91098666Y-72588380D01*
X91717714Y-72588380D01*
%TO.C,C3*%
X116673333Y-74834142D02*
X116625714Y-74881761D01*
X116482857Y-74929380D01*
X116387619Y-74929380D01*
X116244761Y-74881761D01*
X116149523Y-74786523D01*
X116101904Y-74691285D01*
X116054285Y-74500809D01*
X116054285Y-74357952D01*
X116101904Y-74167476D01*
X116149523Y-74072238D01*
X116244761Y-73977000D01*
X116387619Y-73929380D01*
X116482857Y-73929380D01*
X116625714Y-73977000D01*
X116673333Y-74024619D01*
X117006666Y-73929380D02*
X117625714Y-73929380D01*
X117292380Y-74310333D01*
X117435238Y-74310333D01*
X117530476Y-74357952D01*
X117578095Y-74405571D01*
X117625714Y-74500809D01*
X117625714Y-74738904D01*
X117578095Y-74834142D01*
X117530476Y-74881761D01*
X117435238Y-74929380D01*
X117149523Y-74929380D01*
X117054285Y-74881761D01*
X117006666Y-74834142D01*
%TO.C,C4*%
X155115142Y-66238666D02*
X155162761Y-66286285D01*
X155210380Y-66429142D01*
X155210380Y-66524380D01*
X155162761Y-66667238D01*
X155067523Y-66762476D01*
X154972285Y-66810095D01*
X154781809Y-66857714D01*
X154638952Y-66857714D01*
X154448476Y-66810095D01*
X154353238Y-66762476D01*
X154258000Y-66667238D01*
X154210380Y-66524380D01*
X154210380Y-66429142D01*
X154258000Y-66286285D01*
X154305619Y-66238666D01*
X154543714Y-65381523D02*
X155210380Y-65381523D01*
X154162761Y-65619619D02*
X154877047Y-65857714D01*
X154877047Y-65238666D01*
%TO.C,SW9*%
X181866066Y-66647961D02*
X182008923Y-66695580D01*
X182247019Y-66695580D01*
X182342257Y-66647961D01*
X182389876Y-66600342D01*
X182437495Y-66505104D01*
X182437495Y-66409866D01*
X182389876Y-66314628D01*
X182342257Y-66267009D01*
X182247019Y-66219390D01*
X182056542Y-66171771D01*
X181961304Y-66124152D01*
X181913685Y-66076533D01*
X181866066Y-65981295D01*
X181866066Y-65886057D01*
X181913685Y-65790819D01*
X181961304Y-65743200D01*
X182056542Y-65695580D01*
X182294638Y-65695580D01*
X182437495Y-65743200D01*
X182770828Y-65695580D02*
X183008923Y-66695580D01*
X183199400Y-65981295D01*
X183389876Y-66695580D01*
X183627971Y-65695580D01*
X184056542Y-66695580D02*
X184247019Y-66695580D01*
X184342257Y-66647961D01*
X184389876Y-66600342D01*
X184485114Y-66457485D01*
X184532733Y-66267009D01*
X184532733Y-65886057D01*
X184485114Y-65790819D01*
X184437495Y-65743200D01*
X184342257Y-65695580D01*
X184151780Y-65695580D01*
X184056542Y-65743200D01*
X184008923Y-65790819D01*
X183961304Y-65886057D01*
X183961304Y-66124152D01*
X184008923Y-66219390D01*
X184056542Y-66267009D01*
X184151780Y-66314628D01*
X184342257Y-66314628D01*
X184437495Y-66267009D01*
X184485114Y-66219390D01*
X184532733Y-66124152D01*
%TO.C,D1*%
X212748904Y-72842380D02*
X212748904Y-71842380D01*
X212987000Y-71842380D01*
X213129857Y-71890000D01*
X213225095Y-71985238D01*
X213272714Y-72080476D01*
X213320333Y-72270952D01*
X213320333Y-72413809D01*
X213272714Y-72604285D01*
X213225095Y-72699523D01*
X213129857Y-72794761D01*
X212987000Y-72842380D01*
X212748904Y-72842380D01*
X214272714Y-72842380D02*
X213701285Y-72842380D01*
X213987000Y-72842380D02*
X213987000Y-71842380D01*
X213891761Y-71985238D01*
X213796523Y-72080476D01*
X213701285Y-72128095D01*
%TO.C,SW6*%
X188102857Y-88352380D02*
X188102857Y-89066666D01*
X188055238Y-89209523D01*
X187960000Y-89304761D01*
X187817142Y-89352380D01*
X187721904Y-89352380D01*
%TO.C,R4*%
X98258333Y-72588380D02*
X97925000Y-72112190D01*
X97686904Y-72588380D02*
X97686904Y-71588380D01*
X98067857Y-71588380D01*
X98163095Y-71636000D01*
X98210714Y-71683619D01*
X98258333Y-71778857D01*
X98258333Y-71921714D01*
X98210714Y-72016952D01*
X98163095Y-72064571D01*
X98067857Y-72112190D01*
X97686904Y-72112190D01*
X99115476Y-71921714D02*
X99115476Y-72588380D01*
X98877380Y-71540761D02*
X98639285Y-72255047D01*
X99258333Y-72255047D01*
%TO.C,*%
D12*
%TO.C,SW4*%
X115830000Y-91740000D02*
X117770000Y-91740000D01*
X110650000Y-91740000D02*
X112770000Y-91740000D01*
X110650000Y-104040000D02*
X110650000Y-91740000D01*
X117770000Y-104040000D02*
X115830000Y-104040000D01*
X122950000Y-104040000D02*
X120830000Y-104040000D01*
X122950000Y-91740000D02*
X122950000Y-104040000D01*
X112770000Y-104040000D02*
X110650000Y-104040000D01*
X120830000Y-91740000D02*
X122950000Y-91740000D01*
X121419050Y-97790000D02*
G75*
G03*
X121419050Y-97790000I-4579050J0D01*
G01*
%TO.C,D3*%
X178590000Y-73934000D02*
X182090000Y-73934000D01*
X178590000Y-76434000D02*
X182090000Y-76434000D01*
D13*
%TO.C,U2*%
X124485400Y-75069600D02*
X124739400Y-75069600D01*
X127482600Y-75069600D02*
X127482600Y-74815600D01*
X124739400Y-72072400D02*
X124485400Y-72072400D01*
X127482600Y-72326400D02*
X127482600Y-72072400D01*
X124485400Y-72072400D02*
X124485400Y-72326400D01*
X127482600Y-72072400D02*
X127228600Y-72072400D01*
X124485400Y-74815600D02*
X124485400Y-75069600D01*
X127228600Y-75069600D02*
X127482600Y-75069600D01*
D14*
X128445803Y-74771000D02*
G75*
G03*
X128445803Y-74771000I-111803J0D01*
G01*
D12*
%TO.C,SW8*%
X207170000Y-104040000D02*
X207170000Y-91740000D01*
X212350000Y-91740000D02*
X214290000Y-91740000D01*
X207170000Y-91740000D02*
X209290000Y-91740000D01*
X214290000Y-104040000D02*
X212350000Y-104040000D01*
X209290000Y-104040000D02*
X207170000Y-104040000D01*
X219470000Y-91740000D02*
X219470000Y-104040000D01*
X219470000Y-104040000D02*
X217350000Y-104040000D01*
X217350000Y-91740000D02*
X219470000Y-91740000D01*
X217939050Y-97790000D02*
G75*
G03*
X217939050Y-97790000I-4579050J0D01*
G01*
%TO.C,SW3*%
X105070000Y-116740000D02*
X103130000Y-116740000D01*
X100070000Y-116740000D02*
X97950000Y-116740000D01*
X97950000Y-116740000D02*
X97950000Y-104440000D01*
X110250000Y-116740000D02*
X108130000Y-116740000D01*
X110250000Y-104440000D02*
X110250000Y-116740000D01*
X108130000Y-104440000D02*
X110250000Y-104440000D01*
X103130000Y-104440000D02*
X105070000Y-104440000D01*
X97950000Y-104440000D02*
X100070000Y-104440000D01*
X108719050Y-110490000D02*
G75*
G03*
X108719050Y-110490000I-4579050J0D01*
G01*
%TO.C,G\u002A\u002A\u002A*%
G36*
X131785467Y-118905992D02*
G01*
X131843033Y-118925994D01*
X131914336Y-118985101D01*
X131963083Y-119067320D01*
X131986519Y-119161938D01*
X131981890Y-119258239D01*
X131949610Y-119340521D01*
X131886885Y-119414243D01*
X131788945Y-119491521D01*
X131659300Y-119569855D01*
X131552384Y-119623594D01*
X131479416Y-119657405D01*
X131420906Y-119683798D01*
X131385112Y-119699083D01*
X131378142Y-119701420D01*
X131370215Y-119683623D01*
X131353626Y-119634478D01*
X131330391Y-119560348D01*
X131302526Y-119467600D01*
X131284171Y-119404788D01*
X131198365Y-119108156D01*
X131246168Y-119069448D01*
X131347087Y-119002039D01*
X131460384Y-118949848D01*
X131577150Y-118915016D01*
X131688481Y-118899684D01*
X131785467Y-118905992D01*
G37*
G36*
X118378503Y-118315014D02*
G01*
X118408288Y-118328225D01*
X118430844Y-118362286D01*
X118446877Y-118420921D01*
X118457094Y-118507853D01*
X118462201Y-118626805D01*
X118463030Y-118760679D01*
X118460913Y-118946876D01*
X118456411Y-119095921D01*
X118449340Y-119209800D01*
X118439519Y-119290497D01*
X118426766Y-119339997D01*
X118410897Y-119360283D01*
X118407901Y-119360966D01*
X118372847Y-119359939D01*
X118314429Y-119354191D01*
X118270710Y-119348514D01*
X118203132Y-119339374D01*
X118111606Y-119327635D01*
X118011125Y-119315201D01*
X117960834Y-119309155D01*
X117867850Y-119297007D01*
X117808458Y-119286089D01*
X117777148Y-119274904D01*
X117768409Y-119261952D01*
X117769498Y-119257142D01*
X117782195Y-119233554D01*
X117812588Y-119181151D01*
X117857923Y-119104557D01*
X117915446Y-119008395D01*
X117982403Y-118897291D01*
X118056039Y-118775869D01*
X118059774Y-118769730D01*
X118145823Y-118629168D01*
X118214480Y-118519242D01*
X118268032Y-118436686D01*
X118308767Y-118378238D01*
X118338973Y-118340634D01*
X118360938Y-118320610D01*
X118376949Y-118314901D01*
X118378503Y-118315014D01*
G37*
G36*
X114604007Y-121525975D02*
G01*
X114296698Y-121480695D01*
X114006559Y-121443257D01*
X113731566Y-121413275D01*
X113469696Y-121390365D01*
X113400416Y-121385302D01*
X113212055Y-121375796D01*
X113000804Y-121371382D01*
X112777288Y-121371839D01*
X112552128Y-121376942D01*
X112335947Y-121386472D01*
X112139368Y-121400206D01*
X111999105Y-121414589D01*
X111888166Y-121429165D01*
X111771086Y-121446183D01*
X111654627Y-121464475D01*
X111545546Y-121482872D01*
X111450606Y-121500206D01*
X111376566Y-121515309D01*
X111330186Y-121527013D01*
X111318056Y-121532263D01*
X111310944Y-121556285D01*
X111300774Y-121614169D01*
X111288176Y-121700753D01*
X111273784Y-121810874D01*
X111258228Y-121939370D01*
X111242142Y-122081081D01*
X111226158Y-122230844D01*
X111210907Y-122383496D01*
X111201448Y-122484445D01*
X111192839Y-122587241D01*
X111185685Y-122692599D01*
X111179868Y-122805167D01*
X111175269Y-122929596D01*
X111171771Y-123070535D01*
X111169255Y-123232633D01*
X111167602Y-123420541D01*
X111166694Y-123638908D01*
X111166417Y-123859612D01*
X111166157Y-124852603D01*
X111068163Y-124863303D01*
X111011279Y-124868290D01*
X110926166Y-124874240D01*
X110823761Y-124880450D01*
X110714996Y-124886218D01*
X110700687Y-124886911D01*
X110431204Y-124899820D01*
X110431204Y-124588441D01*
X110438113Y-124236285D01*
X110458275Y-123854313D01*
X110490841Y-123449283D01*
X110534965Y-123027954D01*
X110589796Y-122597083D01*
X110654488Y-122163429D01*
X110728191Y-121733748D01*
X110810058Y-121314800D01*
X110884696Y-120975340D01*
X110977756Y-120601204D01*
X111088942Y-120199976D01*
X111215944Y-119778013D01*
X111220582Y-119763609D01*
X113683852Y-119763609D01*
X113697306Y-119861465D01*
X113728307Y-119939423D01*
X113776772Y-120000471D01*
X113781945Y-120005201D01*
X113838963Y-120033561D01*
X113917988Y-120044291D01*
X114005991Y-120037332D01*
X114089939Y-120012625D01*
X114102869Y-120006656D01*
X114196115Y-119947197D01*
X114291906Y-119863295D01*
X114378210Y-119766890D01*
X114442993Y-119669925D01*
X114443938Y-119668154D01*
X114473216Y-119610033D01*
X114513802Y-119525436D01*
X114561269Y-119423786D01*
X114611189Y-119314509D01*
X114635466Y-119260448D01*
X114679665Y-119161787D01*
X114718224Y-119076454D01*
X114748366Y-119010536D01*
X114767313Y-118970119D01*
X114772420Y-118960269D01*
X114792970Y-118963050D01*
X114844054Y-118976802D01*
X114919348Y-118999413D01*
X115012530Y-119028768D01*
X115117278Y-119062753D01*
X115227267Y-119099252D01*
X115336177Y-119136152D01*
X115437684Y-119171338D01*
X115525465Y-119202696D01*
X115593199Y-119228111D01*
X115634562Y-119245470D01*
X115644475Y-119251902D01*
X115641560Y-119286254D01*
X115633589Y-119351408D01*
X115621721Y-119439465D01*
X115607115Y-119542526D01*
X115590931Y-119652692D01*
X115574329Y-119762064D01*
X115558467Y-119862742D01*
X115544507Y-119946827D01*
X115534037Y-120004262D01*
X115512304Y-120164495D01*
X115516592Y-120295583D01*
X115546950Y-120397740D01*
X115603427Y-120471179D01*
X115646364Y-120499781D01*
X115712362Y-120521072D01*
X115784978Y-120516565D01*
X115874047Y-120485391D01*
X115889460Y-120478349D01*
X115919814Y-120459242D01*
X116793002Y-120459242D01*
X116794325Y-120531680D01*
X116803710Y-120579024D01*
X116824835Y-120615132D01*
X116838516Y-120630731D01*
X116901466Y-120672795D01*
X116975793Y-120680682D01*
X117058352Y-120656624D01*
X117145995Y-120602851D01*
X117235578Y-120521593D01*
X117323954Y-120415083D01*
X117407977Y-120285552D01*
X117458161Y-120191302D01*
X117535756Y-120033525D01*
X117810139Y-120044471D01*
X117951983Y-120050676D01*
X118058928Y-120056920D01*
X118135265Y-120063888D01*
X118185288Y-120072264D01*
X118213288Y-120082733D01*
X118223558Y-120095978D01*
X118221509Y-120110045D01*
X118212793Y-120138716D01*
X118196283Y-120198749D01*
X118173748Y-120283496D01*
X118146957Y-120386304D01*
X118119043Y-120495170D01*
X118083278Y-120640105D01*
X118058748Y-120753119D01*
X118045355Y-120839814D01*
X118042999Y-120905790D01*
X118051580Y-120956650D01*
X118070999Y-120997995D01*
X118101156Y-121035426D01*
X118109305Y-121043775D01*
X118146859Y-121075870D01*
X118184944Y-121089771D01*
X118240177Y-121090383D01*
X118261743Y-121088778D01*
X118361848Y-121066768D01*
X118450991Y-121018601D01*
X118521680Y-120964092D01*
X118580377Y-120903662D01*
X118629444Y-120832051D01*
X118671247Y-120743999D01*
X118708149Y-120634246D01*
X118742513Y-120497530D01*
X118776703Y-120328592D01*
X118787470Y-120269784D01*
X118794708Y-120224526D01*
X119440069Y-120224526D01*
X119448152Y-120412177D01*
X119479547Y-120663022D01*
X119533292Y-120884277D01*
X119609007Y-121075165D01*
X119706317Y-121234913D01*
X119824844Y-121362742D01*
X119954442Y-121452659D01*
X120084115Y-121509760D01*
X120221000Y-121546532D01*
X120355813Y-121561969D01*
X120479272Y-121555066D01*
X120582093Y-121524817D01*
X120589044Y-121521411D01*
X120705616Y-121448528D01*
X120790285Y-121366048D01*
X120841449Y-121277201D01*
X120857506Y-121185215D01*
X120836852Y-121093321D01*
X120818764Y-121058634D01*
X120790103Y-121017252D01*
X120768094Y-120995084D01*
X120764941Y-120993969D01*
X120739504Y-120992936D01*
X120685357Y-120991060D01*
X120612968Y-120988698D01*
X120592681Y-120988056D01*
X120447316Y-120972524D01*
X120330910Y-120933798D01*
X120238575Y-120868458D01*
X120165427Y-120773086D01*
X120108353Y-120649110D01*
X120090998Y-120596618D01*
X120079061Y-120543703D01*
X120071598Y-120481407D01*
X120067663Y-120400774D01*
X120066312Y-120292847D01*
X120066271Y-120250185D01*
X120067212Y-120130285D01*
X120070821Y-120036948D01*
X120078610Y-119957554D01*
X120092089Y-119879485D01*
X120112771Y-119790124D01*
X120128926Y-119727137D01*
X120191471Y-119504111D01*
X120253749Y-119316388D01*
X120317433Y-119160123D01*
X120384195Y-119031471D01*
X120455705Y-118926584D01*
X120498526Y-118876711D01*
X120590365Y-118797655D01*
X120682478Y-118754611D01*
X120771746Y-118747984D01*
X120855053Y-118778183D01*
X120909721Y-118823091D01*
X120979709Y-118882524D01*
X121059468Y-118928580D01*
X121135143Y-118953944D01*
X121162707Y-118956667D01*
X121217602Y-118939571D01*
X121279498Y-118891604D01*
X121281080Y-118890031D01*
X121319206Y-118848012D01*
X121339168Y-118809684D01*
X121346725Y-118759260D01*
X121347716Y-118707334D01*
X121333702Y-118563803D01*
X121289488Y-118440690D01*
X121211815Y-118329945D01*
X121182405Y-118298830D01*
X121087495Y-118219920D01*
X121034867Y-118193175D01*
X130485626Y-118193175D01*
X130488765Y-118218510D01*
X130498529Y-118252802D01*
X130519942Y-118318485D01*
X130551141Y-118410157D01*
X130590261Y-118522415D01*
X130635436Y-118649858D01*
X130684801Y-118787083D01*
X130689440Y-118799877D01*
X130746436Y-118957970D01*
X130806090Y-119125193D01*
X130864962Y-119291778D01*
X130919613Y-119447962D01*
X130966603Y-119583980D01*
X130993183Y-119662222D01*
X131030403Y-119772807D01*
X131063714Y-119871551D01*
X131090946Y-119952042D01*
X131109929Y-120007867D01*
X131118342Y-120032197D01*
X131133080Y-120046053D01*
X131169009Y-120052611D01*
X131233138Y-120052664D01*
X131279734Y-120050395D01*
X131378847Y-120040091D01*
X131469121Y-120018774D01*
X131569317Y-119981712D01*
X131594314Y-119971080D01*
X131761937Y-119892356D01*
X131901238Y-119812140D01*
X132022768Y-119723924D01*
X132091837Y-119664179D01*
X132205342Y-119544672D01*
X132281625Y-119426726D01*
X132322252Y-119306241D01*
X132328788Y-119179119D01*
X132313719Y-119083127D01*
X132261846Y-118920230D01*
X132188702Y-118781456D01*
X132097113Y-118670435D01*
X131989906Y-118590797D01*
X131901744Y-118554076D01*
X131839135Y-118533578D01*
X131808246Y-118516013D01*
X131802314Y-118496872D01*
X131804699Y-118489397D01*
X131856338Y-118342949D01*
X131888694Y-118199545D01*
X131898465Y-118092153D01*
X131895916Y-118011753D01*
X131883129Y-117945287D01*
X131855557Y-117873834D01*
X131836211Y-117833177D01*
X131778610Y-117733973D01*
X131716605Y-117667791D01*
X131642522Y-117628593D01*
X131553639Y-117610814D01*
X131415290Y-117614205D01*
X131257616Y-117649374D01*
X131082970Y-117715443D01*
X130893704Y-117811534D01*
X130706954Y-117926856D01*
X130603427Y-118002313D01*
X130534027Y-118069184D01*
X130495758Y-118131470D01*
X130485626Y-118193175D01*
X121034867Y-118193175D01*
X120983634Y-118167139D01*
X120864839Y-118139134D01*
X120725130Y-118134550D01*
X120558525Y-118152033D01*
X120544166Y-118154294D01*
X120382154Y-118195358D01*
X120238565Y-118265648D01*
X120103991Y-118369895D01*
X120090427Y-118382599D01*
X119956930Y-118528718D01*
X119838124Y-118700344D01*
X119731774Y-118901355D01*
X119635647Y-119135629D01*
X119603244Y-119228468D01*
X119510174Y-119562483D01*
X119455855Y-119893947D01*
X119440069Y-120224526D01*
X118794708Y-120224526D01*
X118851546Y-119869155D01*
X118897201Y-119484642D01*
X118924359Y-119119281D01*
X118932946Y-118776108D01*
X118922885Y-118458158D01*
X118894102Y-118168466D01*
X118846522Y-117910070D01*
X118846064Y-117908133D01*
X118789623Y-117749192D01*
X118697606Y-117602264D01*
X118636400Y-117530857D01*
X118592257Y-117490437D01*
X118548402Y-117471825D01*
X118485779Y-117467168D01*
X118481800Y-117467161D01*
X118365667Y-117485980D01*
X118250718Y-117540115D01*
X118143692Y-117626079D01*
X118114341Y-117657321D01*
X118090564Y-117685507D01*
X118067314Y-117716541D01*
X118042782Y-117753939D01*
X118015158Y-117801215D01*
X117982636Y-117861888D01*
X117943405Y-117939473D01*
X117895659Y-118037485D01*
X117837587Y-118159442D01*
X117767383Y-118308859D01*
X117683238Y-118489253D01*
X117652701Y-118554892D01*
X117597915Y-118671838D01*
X117529494Y-118816508D01*
X117451017Y-118981415D01*
X117366063Y-119159068D01*
X117278212Y-119341977D01*
X117191044Y-119522654D01*
X117128156Y-119652423D01*
X117043505Y-119826979D01*
X116974505Y-119970209D01*
X116919549Y-120085980D01*
X116877030Y-120178160D01*
X116845343Y-120250616D01*
X116822880Y-120307216D01*
X116808034Y-120351827D01*
X116799199Y-120388317D01*
X116794769Y-120420554D01*
X116793137Y-120452405D01*
X116793002Y-120459242D01*
X115919814Y-120459242D01*
X115983064Y-120419428D01*
X116075413Y-120335172D01*
X116154225Y-120237864D01*
X116190338Y-120177480D01*
X116206323Y-120136416D01*
X116230199Y-120061922D01*
X116260725Y-119958687D01*
X116296658Y-119831400D01*
X116336754Y-119684750D01*
X116379772Y-119523425D01*
X116424470Y-119352113D01*
X116469604Y-119175504D01*
X116513932Y-118998287D01*
X116556211Y-118825149D01*
X116595199Y-118660780D01*
X116614789Y-118575815D01*
X116655937Y-118390219D01*
X116693941Y-118209132D01*
X116727853Y-118037779D01*
X116756725Y-117881388D01*
X116779608Y-117745185D01*
X116795554Y-117634396D01*
X116803615Y-117554248D01*
X116804421Y-117530696D01*
X116786782Y-117432349D01*
X116738992Y-117341686D01*
X116668443Y-117266420D01*
X116582531Y-117214262D01*
X116488650Y-117192923D01*
X116480405Y-117192778D01*
X116415694Y-117199472D01*
X116354708Y-117221259D01*
X116295757Y-117260691D01*
X116237155Y-117320325D01*
X116177214Y-117402714D01*
X116114245Y-117510413D01*
X116046561Y-117645976D01*
X115972474Y-117811959D01*
X115890297Y-118010915D01*
X115817192Y-118196581D01*
X115780900Y-118289964D01*
X115749870Y-118369274D01*
X115726724Y-118427845D01*
X115714089Y-118459010D01*
X115712597Y-118462268D01*
X115693374Y-118458952D01*
X115644243Y-118445110D01*
X115572319Y-118423087D01*
X115484720Y-118395226D01*
X115388560Y-118363870D01*
X115290957Y-118331366D01*
X115199026Y-118300055D01*
X115119884Y-118272282D01*
X115060647Y-118250392D01*
X115029373Y-118237222D01*
X114972836Y-118208176D01*
X114990105Y-118067954D01*
X115003839Y-117877166D01*
X114998589Y-117693047D01*
X114975959Y-117519149D01*
X114937556Y-117359026D01*
X114884984Y-117216231D01*
X114819848Y-117094316D01*
X114743753Y-116996835D01*
X114658305Y-116927340D01*
X114565109Y-116889386D01*
X114465770Y-116886525D01*
X114457053Y-116888022D01*
X114387345Y-116915771D01*
X114314214Y-116967890D01*
X114251210Y-117033418D01*
X114222004Y-117078203D01*
X114209634Y-117115776D01*
X114193639Y-117184514D01*
X114175554Y-117276729D01*
X114156912Y-117384729D01*
X114143386Y-117472168D01*
X114096040Y-117774880D01*
X114043852Y-118073327D01*
X113988216Y-118360711D01*
X113930522Y-118630235D01*
X113872164Y-118875102D01*
X113814534Y-119088516D01*
X113807209Y-119113457D01*
X113749625Y-119320779D01*
X113709927Y-119496253D01*
X113688031Y-119642867D01*
X113683852Y-119763609D01*
X111220582Y-119763609D01*
X111356454Y-119341672D01*
X111508163Y-118897310D01*
X111668761Y-118451285D01*
X111835940Y-118009953D01*
X112007390Y-117579671D01*
X112180803Y-117166798D01*
X112353868Y-116777689D01*
X112524278Y-116418703D01*
X112581166Y-116304711D01*
X112638273Y-116193493D01*
X112682372Y-116112364D01*
X112717037Y-116055899D01*
X112745842Y-116018670D01*
X112772363Y-115995250D01*
X112792685Y-115983588D01*
X112863532Y-115963124D01*
X112922783Y-115970909D01*
X112962263Y-116004956D01*
X112971070Y-116026950D01*
X112981871Y-116063351D01*
X112988226Y-116075648D01*
X113006935Y-116067981D01*
X113053225Y-116047362D01*
X113119131Y-116017369D01*
X113164366Y-115996551D01*
X113503744Y-115858751D01*
X113872218Y-115744927D01*
X114267836Y-115655129D01*
X114688648Y-115589404D01*
X115132701Y-115547804D01*
X115598043Y-115530377D01*
X116082723Y-115537173D01*
X116584790Y-115568240D01*
X117102291Y-115623629D01*
X117633275Y-115703389D01*
X118175791Y-115807569D01*
X118427500Y-115863432D01*
X118887968Y-115976369D01*
X119349315Y-116102748D01*
X119817070Y-116244361D01*
X120296762Y-116403001D01*
X120793923Y-116580463D01*
X121314082Y-116778539D01*
X121602500Y-116893102D01*
X121927396Y-117021174D01*
X122225473Y-117132706D01*
X122504184Y-117230184D01*
X122770980Y-117316093D01*
X123033314Y-117392920D01*
X123298637Y-117463151D01*
X123348438Y-117475568D01*
X124000597Y-117616714D01*
X124659409Y-117719498D01*
X125324999Y-117783913D01*
X125997494Y-117809954D01*
X126677018Y-117797615D01*
X127363697Y-117746889D01*
X128057657Y-117657771D01*
X128759023Y-117530256D01*
X129467921Y-117364336D01*
X130184477Y-117160006D01*
X130211751Y-117151518D01*
X130769591Y-116964423D01*
X131336118Y-116749503D01*
X131903733Y-116510319D01*
X132464837Y-116250431D01*
X133011829Y-115973399D01*
X133537110Y-115682782D01*
X134033081Y-115382141D01*
X134150849Y-115306323D01*
X134253890Y-115239965D01*
X134329529Y-115193549D01*
X134382552Y-115164648D01*
X134417744Y-115150833D01*
X134439891Y-115149676D01*
X134449730Y-115154705D01*
X134474574Y-115189551D01*
X134478889Y-115208661D01*
X134471071Y-115231518D01*
X134448560Y-115286872D01*
X134412764Y-115371486D01*
X134365095Y-115482120D01*
X134306962Y-115615537D01*
X134239776Y-115768498D01*
X134164948Y-115937763D01*
X134083886Y-116120096D01*
X134008379Y-116289093D01*
X133923035Y-116480084D01*
X133842679Y-116660710D01*
X133768719Y-116827753D01*
X133702562Y-116977995D01*
X133645618Y-117108218D01*
X133599293Y-117215204D01*
X133564996Y-117295733D01*
X133544135Y-117346589D01*
X133538009Y-117364267D01*
X133551871Y-117377851D01*
X133595973Y-117385782D01*
X133674369Y-117388716D01*
X133689578Y-117388766D01*
X133757064Y-117387624D01*
X133858461Y-117384373D01*
X133988553Y-117379269D01*
X134142125Y-117372571D01*
X134313961Y-117364537D01*
X134498847Y-117355426D01*
X134691566Y-117345496D01*
X134886904Y-117335004D01*
X135079644Y-117324209D01*
X135264573Y-117313369D01*
X135436473Y-117302742D01*
X135467687Y-117300739D01*
X135617898Y-117291502D01*
X135733487Y-117285856D01*
X135818891Y-117284152D01*
X135878551Y-117286737D01*
X135916907Y-117293961D01*
X135938398Y-117306172D01*
X135947463Y-117323719D01*
X135948796Y-117338532D01*
X135935199Y-117357736D01*
X135896587Y-117400834D01*
X135836224Y-117464581D01*
X135757378Y-117545731D01*
X135663315Y-117641037D01*
X135557300Y-117747255D01*
X135442601Y-117861139D01*
X135322483Y-117979444D01*
X135200212Y-118098922D01*
X135079055Y-118216330D01*
X134962278Y-118328421D01*
X134853147Y-118431950D01*
X134772870Y-118507051D01*
X134175769Y-119048168D01*
X133580248Y-119561741D01*
X132988026Y-120046481D01*
X132400825Y-120501096D01*
X131820367Y-120924298D01*
X131248371Y-121314795D01*
X130686558Y-121671298D01*
X130136650Y-121992516D01*
X130086537Y-122020350D01*
X129575152Y-122289649D01*
X129073670Y-122526697D01*
X128583416Y-122731009D01*
X128105720Y-122902100D01*
X127641908Y-123039486D01*
X127193309Y-123142680D01*
X126861527Y-123198198D01*
X126692301Y-123218438D01*
X126499321Y-123235349D01*
X126280059Y-123249038D01*
X126031989Y-123259610D01*
X125752584Y-123267172D01*
X125439318Y-123271830D01*
X125089664Y-123273689D01*
X125061682Y-123273718D01*
X124597243Y-123270831D01*
X124162485Y-123261048D01*
X123748412Y-123243826D01*
X123346024Y-123218620D01*
X122946324Y-123184885D01*
X122540313Y-123142077D01*
X122203669Y-123100771D01*
X121948866Y-123066427D01*
X121697644Y-123029775D01*
X121446321Y-122990072D01*
X121191214Y-122946576D01*
X120928641Y-122898546D01*
X120654919Y-122845240D01*
X120366366Y-122785915D01*
X120059299Y-122719829D01*
X119730036Y-122646241D01*
X119374894Y-122564408D01*
X118990191Y-122473589D01*
X118572244Y-122373042D01*
X118476497Y-122349792D01*
X117923554Y-122216636D01*
X117406001Y-122094783D01*
X116921814Y-121983848D01*
X116468968Y-121883446D01*
X116045439Y-121793193D01*
X115649203Y-121712704D01*
X115278235Y-121641594D01*
X115121220Y-121613546D01*
X121337992Y-121613546D01*
X121355574Y-121693495D01*
X121396861Y-121755226D01*
X121457821Y-121791604D01*
X121503967Y-121798296D01*
X121590658Y-121780970D01*
X121688073Y-121732583D01*
X121790382Y-121657605D01*
X121891751Y-121560502D01*
X121986347Y-121445744D01*
X122012314Y-121408866D01*
X122068236Y-121322892D01*
X122112913Y-121244282D01*
X122151250Y-121162298D01*
X122188150Y-121066202D01*
X122228516Y-120945257D01*
X122238699Y-120913139D01*
X122310750Y-120684348D01*
X122392697Y-120671622D01*
X122452078Y-120661495D01*
X122498395Y-120652050D01*
X122506360Y-120650027D01*
X122522219Y-120653024D01*
X122538263Y-120674827D01*
X122556819Y-120720776D01*
X122580211Y-120796212D01*
X122598716Y-120862146D01*
X122619119Y-120938724D01*
X122645743Y-121041910D01*
X122676667Y-121163930D01*
X122709970Y-121297012D01*
X122743731Y-121433384D01*
X122776028Y-121565272D01*
X122804940Y-121684903D01*
X122828548Y-121784507D01*
X122844928Y-121856309D01*
X122848221Y-121871624D01*
X122872988Y-121925131D01*
X122920880Y-121986198D01*
X122981037Y-122042849D01*
X123037902Y-122080787D01*
X123109020Y-122102476D01*
X123192912Y-122107291D01*
X123274338Y-122096176D01*
X123338060Y-122070075D01*
X123349254Y-122061484D01*
X123411827Y-121980069D01*
X123449889Y-121870771D01*
X123463138Y-121736533D01*
X123451270Y-121580301D01*
X123415948Y-121412285D01*
X123378343Y-121284900D01*
X123331855Y-121147730D01*
X123279225Y-121007131D01*
X123223192Y-120869455D01*
X123166499Y-120741057D01*
X123111885Y-120628292D01*
X123095839Y-120599037D01*
X125135637Y-120599037D01*
X125157063Y-120861898D01*
X125199325Y-121104972D01*
X125261425Y-121325868D01*
X125342364Y-121522195D01*
X125441142Y-121691562D01*
X125556763Y-121831577D01*
X125688226Y-121939849D01*
X125834534Y-122013987D01*
X125845633Y-122017951D01*
X125958240Y-122043511D01*
X126091572Y-122052662D01*
X126230808Y-122045515D01*
X126361125Y-122022180D01*
X126390406Y-122013882D01*
X126534266Y-121956207D01*
X126648536Y-121882346D01*
X126730990Y-121794723D01*
X126779403Y-121695762D01*
X126791549Y-121587886D01*
X126790786Y-121577803D01*
X126771218Y-121490743D01*
X126730383Y-121434395D01*
X126667063Y-121408344D01*
X126580041Y-121412176D01*
X126468100Y-121445474D01*
X126438106Y-121457505D01*
X126317004Y-121495829D01*
X126199900Y-121510321D01*
X126096426Y-121500473D01*
X126037205Y-121478790D01*
X125945174Y-121411712D01*
X125854600Y-121311798D01*
X125769534Y-121185323D01*
X125694027Y-121038564D01*
X125632129Y-120877796D01*
X125616666Y-120827240D01*
X125597233Y-120752284D01*
X125584160Y-120680146D01*
X125576297Y-120599831D01*
X125572491Y-120500345D01*
X125571589Y-120397176D01*
X125574622Y-120243640D01*
X125585363Y-120121668D01*
X125605635Y-120024069D01*
X125637264Y-119943653D01*
X125682074Y-119873230D01*
X125714329Y-119834675D01*
X125800271Y-119754861D01*
X125884311Y-119711877D01*
X125973026Y-119704583D01*
X126072997Y-119731838D01*
X126136044Y-119761607D01*
X126241174Y-119807250D01*
X126323977Y-119821939D01*
X126383793Y-119805866D01*
X126419958Y-119759221D01*
X126431812Y-119682197D01*
X126431727Y-119676212D01*
X126410108Y-119565806D01*
X126351745Y-119456398D01*
X126261100Y-119354323D01*
X126187697Y-119291954D01*
X126942244Y-119291954D01*
X126944394Y-119361334D01*
X126952521Y-119447602D01*
X126967122Y-119554728D01*
X126988695Y-119686684D01*
X127017734Y-119847440D01*
X127054738Y-120040969D01*
X127070767Y-120122793D01*
X127102766Y-120288004D01*
X127137046Y-120469620D01*
X127171257Y-120654872D01*
X127203047Y-120830989D01*
X127230065Y-120985201D01*
X127236729Y-121024337D01*
X127263628Y-121183321D01*
X127285126Y-121308093D01*
X127302367Y-121403088D01*
X127316496Y-121472742D01*
X127328658Y-121521488D01*
X127339997Y-121553763D01*
X127351658Y-121574001D01*
X127364785Y-121586638D01*
X127380524Y-121596108D01*
X127384898Y-121598446D01*
X127444952Y-121613951D01*
X127538104Y-121615474D01*
X127660972Y-121603373D01*
X127810173Y-121578003D01*
X127982325Y-121539721D01*
X128012243Y-121532304D01*
X128155761Y-121494259D01*
X128301321Y-121452130D01*
X128442009Y-121408225D01*
X128570913Y-121364853D01*
X128681118Y-121324321D01*
X128765712Y-121288938D01*
X128810421Y-121265816D01*
X128871320Y-121213350D01*
X128913638Y-121147760D01*
X128929696Y-121081944D01*
X128928728Y-121067107D01*
X128904755Y-121025680D01*
X128851763Y-120990011D01*
X128779919Y-120965056D01*
X128700316Y-120955771D01*
X128644092Y-120961647D01*
X128563980Y-120977432D01*
X128473170Y-121000319D01*
X128425934Y-121014147D01*
X128224672Y-121071107D01*
X128050007Y-121109757D01*
X127904819Y-121129515D01*
X127842425Y-121132130D01*
X127779938Y-121130603D01*
X127744395Y-121122128D01*
X127723561Y-121100867D01*
X127708136Y-121068044D01*
X127698591Y-121031507D01*
X127685654Y-120962003D01*
X127670237Y-120865525D01*
X127653256Y-120748065D01*
X127635625Y-120615617D01*
X127620697Y-120494780D01*
X127581021Y-120194130D01*
X127537409Y-119924021D01*
X127490197Y-119685507D01*
X127439720Y-119479643D01*
X127386313Y-119307483D01*
X127330311Y-119170083D01*
X127272049Y-119068496D01*
X127211863Y-119003778D01*
X127150087Y-118976982D01*
X127138106Y-118976266D01*
X127080802Y-118994343D01*
X127025796Y-119043098D01*
X126980238Y-119114309D01*
X126953894Y-119187971D01*
X126945577Y-119235490D01*
X126942244Y-119291954D01*
X126187697Y-119291954D01*
X126176875Y-119282759D01*
X126103002Y-119237274D01*
X126026477Y-119212472D01*
X125934293Y-119202955D01*
X125894629Y-119202230D01*
X125807485Y-119204621D01*
X125741366Y-119215211D01*
X125678335Y-119237907D01*
X125634901Y-119258775D01*
X125496965Y-119347543D01*
X125382155Y-119463017D01*
X125289847Y-119606524D01*
X125219418Y-119779389D01*
X125170243Y-119982938D01*
X125141698Y-120218497D01*
X125136045Y-120318781D01*
X125135637Y-120599037D01*
X123095839Y-120599037D01*
X123062092Y-120537512D01*
X123019859Y-120475072D01*
X123004465Y-120458294D01*
X122958813Y-120415986D01*
X123154701Y-120181195D01*
X123256789Y-120055088D01*
X123354144Y-119927806D01*
X123443111Y-119804698D01*
X123520035Y-119691114D01*
X123581259Y-119592403D01*
X123623129Y-119513912D01*
X123639586Y-119471696D01*
X123658468Y-119367861D01*
X123654598Y-119281283D01*
X123629523Y-119216890D01*
X123584791Y-119179611D01*
X123545514Y-119172253D01*
X123497649Y-119180961D01*
X123433341Y-119203279D01*
X123392239Y-119221805D01*
X123318938Y-119266935D01*
X123226561Y-119337058D01*
X123120784Y-119426772D01*
X123007283Y-119530676D01*
X122891733Y-119643368D01*
X122779808Y-119759446D01*
X122677185Y-119873508D01*
X122589539Y-119980153D01*
X122573767Y-120000834D01*
X122540144Y-120042889D01*
X122517152Y-120066593D01*
X122512019Y-120068707D01*
X122511817Y-120048029D01*
X122515794Y-119996221D01*
X122523249Y-119921046D01*
X122533481Y-119830266D01*
X122533740Y-119828088D01*
X122544187Y-119718433D01*
X122552947Y-119585158D01*
X122559199Y-119443830D01*
X122562120Y-119310019D01*
X122562228Y-119288503D01*
X122560820Y-119136380D01*
X122554703Y-119016545D01*
X122542059Y-118922196D01*
X122531679Y-118884775D01*
X128512795Y-118884775D01*
X128512881Y-118895143D01*
X128515474Y-118948466D01*
X128522725Y-119007010D01*
X128535737Y-119074518D01*
X128555612Y-119154733D01*
X128583451Y-119251399D01*
X128620356Y-119368258D01*
X128667429Y-119509054D01*
X128725773Y-119677530D01*
X128796488Y-119877428D01*
X128828120Y-119966003D01*
X128901063Y-120158245D01*
X128971228Y-120316348D01*
X129041960Y-120444891D01*
X129116603Y-120548450D01*
X129198502Y-120631604D01*
X129291002Y-120698930D01*
X129397448Y-120755006D01*
X129408131Y-120759792D01*
X129549393Y-120805762D01*
X129701870Y-120826982D01*
X129853971Y-120823308D01*
X129994106Y-120794597D01*
X130062310Y-120767877D01*
X130151009Y-120712562D01*
X130223910Y-120636856D01*
X130283692Y-120536191D01*
X130333037Y-120406004D01*
X130374624Y-120241726D01*
X130376551Y-120232521D01*
X130394579Y-120098467D01*
X130396647Y-119943992D01*
X130382400Y-119766353D01*
X130351488Y-119562808D01*
X130303558Y-119330615D01*
X130238258Y-119067031D01*
X130216495Y-118986065D01*
X130163428Y-118808066D01*
X130110446Y-118665198D01*
X130055651Y-118553441D01*
X129997150Y-118468777D01*
X129949645Y-118420597D01*
X129864874Y-118362809D01*
X129789918Y-118342735D01*
X129725149Y-118360341D01*
X129670939Y-118415593D01*
X129652723Y-118447372D01*
X129631033Y-118502106D01*
X129621615Y-118560957D01*
X129625135Y-118631011D01*
X129642256Y-118719360D01*
X129673642Y-118833093D01*
X129695438Y-118903411D01*
X129747342Y-119080907D01*
X129793628Y-119266605D01*
X129833294Y-119454067D01*
X129865337Y-119636854D01*
X129888753Y-119808528D01*
X129902540Y-119962649D01*
X129905694Y-120092779D01*
X129897212Y-120192479D01*
X129896696Y-120195316D01*
X129862478Y-120304141D01*
X129807606Y-120383105D01*
X129735112Y-120430019D01*
X129648029Y-120442693D01*
X129574162Y-120428147D01*
X129522671Y-120404291D01*
X129474038Y-120366059D01*
X129426950Y-120310625D01*
X129380094Y-120235162D01*
X129332155Y-120136844D01*
X129281820Y-120012845D01*
X129227776Y-119860338D01*
X129168708Y-119676498D01*
X129103304Y-119458497D01*
X129069978Y-119343350D01*
X129021491Y-119180935D01*
X128974185Y-119035119D01*
X128929872Y-118910900D01*
X128890368Y-118813280D01*
X128857485Y-118747258D01*
X128848901Y-118733963D01*
X128794564Y-118679959D01*
X128727991Y-118645088D01*
X128662357Y-118635063D01*
X128634494Y-118640966D01*
X128575420Y-118672782D01*
X128537868Y-118718959D01*
X128518205Y-118787092D01*
X128512795Y-118884775D01*
X122531679Y-118884775D01*
X122521071Y-118846530D01*
X122489923Y-118782745D01*
X122446797Y-118724038D01*
X122397296Y-118670975D01*
X122307590Y-118594836D01*
X122225122Y-118554821D01*
X122145850Y-118549515D01*
X122093098Y-118564431D01*
X122052486Y-118585204D01*
X122019138Y-118613251D01*
X121992185Y-118652504D01*
X121970756Y-118706897D01*
X121953982Y-118780362D01*
X121940991Y-118876832D01*
X121930915Y-119000239D01*
X121922883Y-119154517D01*
X121916024Y-119343598D01*
X121915257Y-119368241D01*
X121905400Y-119617207D01*
X121891075Y-119834787D01*
X121870489Y-120028700D01*
X121841850Y-120206664D01*
X121803366Y-120376399D01*
X121753245Y-120545625D01*
X121689695Y-120722061D01*
X121610923Y-120913426D01*
X121515138Y-121127439D01*
X121498455Y-121163561D01*
X121451865Y-121266336D01*
X121409741Y-121363383D01*
X121375693Y-121446077D01*
X121353334Y-121505796D01*
X121348144Y-121522514D01*
X121337992Y-121613546D01*
X115121220Y-121613546D01*
X114930511Y-121579479D01*
X114604007Y-121525975D01*
G37*
G36*
X131414307Y-118043274D02*
G01*
X131474337Y-118066765D01*
X131486759Y-118075614D01*
X131542281Y-118141662D01*
X131564747Y-118222507D01*
X131554578Y-118312556D01*
X131512194Y-118406213D01*
X131456472Y-118478791D01*
X131407900Y-118525398D01*
X131344743Y-118577785D01*
X131275671Y-118629749D01*
X131209355Y-118675085D01*
X131154463Y-118707588D01*
X131119665Y-118721053D01*
X131117864Y-118721120D01*
X131102865Y-118704222D01*
X131075002Y-118658002D01*
X131037757Y-118588765D01*
X130994613Y-118502816D01*
X130976366Y-118464923D01*
X130854630Y-118209088D01*
X130962036Y-118161588D01*
X131113963Y-118099015D01*
X131237639Y-118058822D01*
X131336580Y-118040434D01*
X131414307Y-118043274D01*
G37*
%TO.C,C2*%
X115935000Y-71472400D02*
X117935000Y-71472400D01*
X117935000Y-73612400D02*
X115935000Y-73612400D01*
%TO.C,C1*%
X121485000Y-87360000D02*
X121485000Y-85360000D01*
X123625000Y-85360000D02*
X123625000Y-87360000D01*
%TO.C,G\u002A\u002A\u002A*%
G36*
X218443686Y-80353608D02*
G01*
X218599145Y-80359493D01*
X218728335Y-80369107D01*
X218819648Y-80382183D01*
X218860369Y-80397186D01*
X218876443Y-80442787D01*
X218889681Y-80537081D01*
X218899786Y-80668482D01*
X218906460Y-80825406D01*
X218909404Y-80996267D01*
X218908321Y-81169478D01*
X218902912Y-81333454D01*
X218892879Y-81476610D01*
X218889067Y-81512533D01*
X218837377Y-81843593D01*
X218762092Y-82135684D01*
X218658065Y-82407279D01*
X218613508Y-82501733D01*
X218447802Y-82796017D01*
X218261529Y-83043980D01*
X218047714Y-83251029D01*
X217799381Y-83422570D01*
X217509553Y-83564010D01*
X217171256Y-83680755D01*
X217048543Y-83714587D01*
X216945319Y-83739927D01*
X216846677Y-83759613D01*
X216741635Y-83774700D01*
X216619206Y-83786247D01*
X216468409Y-83795309D01*
X216278257Y-83802944D01*
X216061844Y-83809541D01*
X215363949Y-83829049D01*
X215376769Y-83451971D01*
X215397478Y-83079139D01*
X215434473Y-82748244D01*
X215490793Y-82442365D01*
X215569477Y-82144578D01*
X215660081Y-81874550D01*
X215810611Y-81537107D01*
X216000524Y-81243228D01*
X216230885Y-80992163D01*
X216502756Y-80783163D01*
X216817202Y-80615479D01*
X217175286Y-80488361D01*
X217578071Y-80401060D01*
X217791317Y-80372672D01*
X217935773Y-80360983D01*
X218100392Y-80354086D01*
X218273566Y-80351717D01*
X218443686Y-80353608D01*
G37*
G36*
X85934241Y-83592122D02*
G01*
X85928622Y-83602802D01*
X85900199Y-83631611D01*
X85894895Y-83632969D01*
X85892837Y-83613483D01*
X85898456Y-83602802D01*
X85926879Y-83573993D01*
X85932183Y-83572636D01*
X85934241Y-83592122D01*
G37*
G36*
X218399139Y-84731157D02*
G01*
X218431270Y-84759199D01*
X218433966Y-84765984D01*
X218419650Y-84778383D01*
X218389844Y-84750601D01*
X218385836Y-84744460D01*
X218382281Y-84723817D01*
X218399139Y-84731157D01*
G37*
G36*
X87502798Y-80973177D02*
G01*
X87763802Y-80995644D01*
X87991507Y-81035108D01*
X88198806Y-81093953D01*
X88398590Y-81174568D01*
X88445163Y-81196599D01*
X88684907Y-81345697D01*
X88900438Y-81546171D01*
X89089229Y-81793097D01*
X89248756Y-82081550D01*
X89376493Y-82406607D01*
X89469915Y-82763344D01*
X89526495Y-83146836D01*
X89539416Y-83330048D01*
X89548574Y-83524871D01*
X89292161Y-83578708D01*
X89121877Y-83607117D01*
X88921935Y-83628943D01*
X88709478Y-83643402D01*
X88501649Y-83649708D01*
X88315591Y-83647080D01*
X88168445Y-83634731D01*
X88145843Y-83631141D01*
X87792915Y-83543576D01*
X87480875Y-83412774D01*
X87210539Y-83239288D01*
X86982725Y-83023674D01*
X86798251Y-82766485D01*
X86755348Y-82688774D01*
X86668744Y-82509912D01*
X86595455Y-82328419D01*
X86532795Y-82134079D01*
X86478074Y-81916675D01*
X86428606Y-81665992D01*
X86381700Y-81371812D01*
X86351540Y-81154150D01*
X86332877Y-81013218D01*
X86507828Y-80988236D01*
X86598202Y-80979853D01*
X86734118Y-80972932D01*
X86900792Y-80967966D01*
X87083442Y-80965447D01*
X87195605Y-80965319D01*
X87502798Y-80973177D01*
G37*
G36*
X170097545Y-121893855D02*
G01*
X170093404Y-121911789D01*
X170077434Y-121913966D01*
X170052604Y-121902929D01*
X170057323Y-121893855D01*
X170093124Y-121890245D01*
X170097545Y-121893855D01*
G37*
G36*
X148334520Y-116351456D02*
G01*
X148450816Y-116358016D01*
X148544414Y-116372393D01*
X148634117Y-116397622D01*
X148738731Y-116436741D01*
X148754130Y-116442893D01*
X148938354Y-116525482D01*
X149117073Y-116624983D01*
X149296670Y-116746584D01*
X149483530Y-116895470D01*
X149684035Y-117076830D01*
X149904568Y-117295849D01*
X150151513Y-117557714D01*
X150224922Y-117637949D01*
X150467143Y-117907771D01*
X150670357Y-118142916D01*
X150839410Y-118350141D01*
X150979150Y-118536203D01*
X151094424Y-118707858D01*
X151190079Y-118871863D01*
X151270962Y-119034975D01*
X151334204Y-119184241D01*
X151369953Y-119280490D01*
X151393798Y-119365149D01*
X151408117Y-119454931D01*
X151415287Y-119566550D01*
X151417686Y-119716718D01*
X151417831Y-119772161D01*
X151416801Y-119936262D01*
X151411854Y-120055873D01*
X151400773Y-120146815D01*
X151381342Y-120224906D01*
X151351345Y-120305966D01*
X151338846Y-120335833D01*
X151208040Y-120590588D01*
X151038151Y-120841321D01*
X150842803Y-121070558D01*
X150635620Y-121260824D01*
X150591461Y-121294503D01*
X150493355Y-121361118D01*
X150422856Y-121392126D01*
X150363325Y-121392929D01*
X150325346Y-121380920D01*
X150281126Y-121347365D01*
X150208648Y-121275066D01*
X150115927Y-121173491D01*
X150010976Y-121052107D01*
X149901812Y-120920382D01*
X149796448Y-120787783D01*
X149702899Y-120663778D01*
X149631234Y-120560978D01*
X149440937Y-120230892D01*
X149309884Y-119911007D01*
X149238030Y-119600343D01*
X149225332Y-119297922D01*
X149271745Y-119002765D01*
X149377225Y-118713894D01*
X149535403Y-118439548D01*
X149591866Y-118353671D01*
X149627747Y-118292749D01*
X149636564Y-118267964D01*
X149634767Y-118268207D01*
X149596396Y-118287229D01*
X149522083Y-118325478D01*
X149444383Y-118366047D01*
X149138050Y-118498740D01*
X148835883Y-118572293D01*
X148536485Y-118586520D01*
X148238461Y-118541240D01*
X147940415Y-118436268D01*
X147640950Y-118271421D01*
X147400758Y-118097381D01*
X147280480Y-117995416D01*
X147146869Y-117872768D01*
X147009482Y-117739247D01*
X146877873Y-117604661D01*
X146761597Y-117478822D01*
X146670210Y-117371539D01*
X146613266Y-117292622D01*
X146608214Y-117283703D01*
X146590562Y-117246592D01*
X146587377Y-117214052D01*
X146604817Y-117176282D01*
X146649039Y-117123479D01*
X146726201Y-117045839D01*
X146806221Y-116968469D01*
X147081210Y-116734867D01*
X147371830Y-116546293D01*
X147651594Y-116415872D01*
X147746359Y-116384588D01*
X147841725Y-116364629D01*
X147955262Y-116353780D01*
X148104544Y-116349827D01*
X148176722Y-116349677D01*
X148334520Y-116351456D01*
G37*
G36*
X170109451Y-66032711D02*
G01*
X170302874Y-66061773D01*
X170485023Y-66111656D01*
X170671859Y-66185350D01*
X170798222Y-66244887D01*
X170929099Y-66313004D01*
X171037794Y-66379886D01*
X171140278Y-66457491D01*
X171252517Y-66557778D01*
X171373205Y-66675449D01*
X171688804Y-67030565D01*
X171956391Y-67417486D01*
X172105758Y-67690095D01*
X172173931Y-67834742D01*
X172241430Y-67989408D01*
X172304060Y-68143060D01*
X172357627Y-68284669D01*
X172397935Y-68403203D01*
X172420789Y-68487631D01*
X172423188Y-68524817D01*
X172389134Y-68556111D01*
X172309802Y-68605498D01*
X172195605Y-68667866D01*
X172056959Y-68738102D01*
X171904275Y-68811094D01*
X171747968Y-68881730D01*
X171598451Y-68944897D01*
X171466138Y-68995484D01*
X171460083Y-68997619D01*
X171134851Y-69094317D01*
X170800883Y-69161595D01*
X170473867Y-69197449D01*
X170169487Y-69199876D01*
X170001175Y-69184020D01*
X169638218Y-69109055D01*
X169311576Y-68990148D01*
X169014720Y-68823522D01*
X168741120Y-68605402D01*
X168484247Y-68332012D01*
X168445599Y-68284559D01*
X168286885Y-68073482D01*
X168141309Y-67851035D01*
X168000901Y-67603673D01*
X167857694Y-67317852D01*
X167785238Y-67162185D01*
X167715848Y-67010535D01*
X167651965Y-66871757D01*
X167599369Y-66758345D01*
X167563839Y-66682796D01*
X167556247Y-66667086D01*
X167528838Y-66605686D01*
X167520278Y-66574488D01*
X167520712Y-66573893D01*
X167557791Y-66556600D01*
X167639672Y-66522725D01*
X167754637Y-66476793D01*
X167890969Y-66423330D01*
X168036949Y-66366859D01*
X168180860Y-66311907D01*
X168310984Y-66262996D01*
X168415602Y-66224653D01*
X168482996Y-66201402D01*
X168493705Y-66198184D01*
X168913623Y-66100375D01*
X169329894Y-66043207D01*
X169624940Y-66025089D01*
X169888794Y-66021480D01*
X170109451Y-66032711D01*
G37*
G36*
X168658872Y-77079238D02*
G01*
X168727197Y-77140281D01*
X168816243Y-77231132D01*
X168917985Y-77342781D01*
X169024396Y-77466217D01*
X169127447Y-77592430D01*
X169219113Y-77712411D01*
X169277492Y-77795795D01*
X169472793Y-78117033D01*
X169618190Y-78417651D01*
X169716931Y-78705573D01*
X169772263Y-78988727D01*
X169774671Y-79009256D01*
X169783196Y-79339856D01*
X169733724Y-79665387D01*
X169625856Y-79986637D01*
X169459191Y-80304396D01*
X169233328Y-80619452D01*
X168947867Y-80932592D01*
X168666035Y-81191055D01*
X168514026Y-81321142D01*
X168345491Y-81465887D01*
X168181946Y-81606785D01*
X168056294Y-81715453D01*
X167774780Y-81950470D01*
X167518964Y-82143432D01*
X167278702Y-82300820D01*
X167043854Y-82429113D01*
X166804277Y-82534789D01*
X166728978Y-82563413D01*
X166618708Y-82600747D01*
X166516962Y-82626053D01*
X166405552Y-82642147D01*
X166266287Y-82651844D01*
X166125653Y-82656805D01*
X165915307Y-82658669D01*
X165752617Y-82650727D01*
X165625589Y-82632205D01*
X165582660Y-82621821D01*
X165305386Y-82520790D01*
X165017772Y-82368558D01*
X164728872Y-82171054D01*
X164447744Y-81934206D01*
X164280516Y-81769361D01*
X164145184Y-81620964D01*
X164026660Y-81478026D01*
X163931189Y-81349126D01*
X163865017Y-81242842D01*
X163834388Y-81167750D01*
X163833016Y-81154714D01*
X163856127Y-81107257D01*
X163919903Y-81032056D01*
X164016005Y-80936567D01*
X164136098Y-80828245D01*
X164271842Y-80714543D01*
X164414902Y-80602916D01*
X164556939Y-80500819D01*
X164587173Y-80480410D01*
X164943927Y-80269251D01*
X165291963Y-80116815D01*
X165630732Y-80023242D01*
X165959687Y-79988676D01*
X166278281Y-80013261D01*
X166336817Y-80024466D01*
X166542927Y-80084324D01*
X166772065Y-80178722D01*
X167005616Y-80298547D01*
X167224963Y-80434685D01*
X167328792Y-80510103D01*
X167425251Y-80583620D01*
X167502444Y-80640553D01*
X167548972Y-80672586D01*
X167557051Y-80676674D01*
X167549087Y-80652856D01*
X167516621Y-80589678D01*
X167466125Y-80499552D01*
X167451795Y-80474867D01*
X167331396Y-80237891D01*
X167232123Y-79980697D01*
X167157744Y-79718005D01*
X167112027Y-79464537D01*
X167098738Y-79235013D01*
X167106453Y-79125579D01*
X167161362Y-78833307D01*
X167250663Y-78561101D01*
X167379171Y-78300164D01*
X167551701Y-78041700D01*
X167773066Y-77776912D01*
X167939851Y-77602805D01*
X168063947Y-77483558D01*
X168194760Y-77366087D01*
X168323117Y-77257760D01*
X168439843Y-77165949D01*
X168535762Y-77098024D01*
X168601701Y-77061354D01*
X168619298Y-77057012D01*
X168658872Y-77079238D01*
G37*
G36*
X184034362Y-80626397D02*
G01*
X184030221Y-80644331D01*
X184014251Y-80646508D01*
X183989421Y-80635470D01*
X183994141Y-80626397D01*
X184029941Y-80622787D01*
X184034362Y-80626397D01*
G37*
G36*
X186926780Y-112163933D02*
G01*
X187084611Y-112172854D01*
X187243937Y-112189855D01*
X187415823Y-112216690D01*
X187611333Y-112255109D01*
X187841530Y-112306864D01*
X188117477Y-112373706D01*
X188147030Y-112381043D01*
X188328538Y-112425787D01*
X188509956Y-112469821D01*
X188674047Y-112509005D01*
X188803569Y-112539201D01*
X188840855Y-112547618D01*
X189051497Y-112605354D01*
X189289529Y-112688394D01*
X189532615Y-112787869D01*
X189758423Y-112894912D01*
X189874347Y-112957938D01*
X190064713Y-113086910D01*
X190256775Y-113250404D01*
X190436777Y-113434203D01*
X190590962Y-113624088D01*
X190705574Y-113805840D01*
X190717474Y-113829406D01*
X190790815Y-113987220D01*
X190846088Y-114128230D01*
X190885740Y-114265539D01*
X190912217Y-114412251D01*
X190927965Y-114581468D01*
X190935430Y-114786296D01*
X190937090Y-115005890D01*
X190933689Y-115281167D01*
X190922026Y-115512486D01*
X190899768Y-115715928D01*
X190864581Y-115907578D01*
X190814130Y-116103516D01*
X190746651Y-116318123D01*
X190665914Y-116559453D01*
X190530166Y-116564649D01*
X190425691Y-116560558D01*
X190295635Y-116544605D01*
X190198337Y-116526535D01*
X189744380Y-116401934D01*
X189336918Y-116238924D01*
X188975894Y-116037477D01*
X188661251Y-115797562D01*
X188508882Y-115650186D01*
X188328239Y-115436163D01*
X188186966Y-115212036D01*
X188081987Y-114968790D01*
X188010223Y-114697409D01*
X187968597Y-114388881D01*
X187954031Y-114034191D01*
X187953988Y-114025018D01*
X187952226Y-113572055D01*
X187827704Y-113848543D01*
X187636038Y-114214513D01*
X187413174Y-114531812D01*
X187160592Y-114799056D01*
X186879772Y-115014862D01*
X186572196Y-115177846D01*
X186306888Y-115269538D01*
X186161883Y-115296645D01*
X185972766Y-115314191D01*
X185754989Y-115322212D01*
X185524004Y-115320743D01*
X185295264Y-115309820D01*
X185084221Y-115289479D01*
X184938124Y-115266372D01*
X184765504Y-115228922D01*
X184599083Y-115186554D01*
X184448948Y-115142515D01*
X184325184Y-115100054D01*
X184237875Y-115062418D01*
X184197109Y-115032855D01*
X184195370Y-115027203D01*
X184204019Y-114925275D01*
X184227233Y-114781027D01*
X184261667Y-114609753D01*
X184303977Y-114426744D01*
X184350819Y-114247295D01*
X184398850Y-114086699D01*
X184405315Y-114067078D01*
X184556556Y-113666527D01*
X184725688Y-113320435D01*
X184915824Y-113024766D01*
X185130073Y-112775485D01*
X185371545Y-112568556D01*
X185643351Y-112399945D01*
X185719707Y-112361724D01*
X185942503Y-112270854D01*
X186176014Y-112209104D01*
X186435247Y-112173582D01*
X186735206Y-112161396D01*
X186759382Y-112161342D01*
X186926780Y-112163933D01*
G37*
G36*
X171536098Y-118762283D02*
G01*
X171672194Y-118768635D01*
X171826597Y-118778407D01*
X171851760Y-118780229D01*
X172268791Y-118828478D01*
X172637167Y-118908652D01*
X172960029Y-119021738D01*
X173240517Y-119168719D01*
X173365558Y-119255006D01*
X173596980Y-119465879D01*
X173801462Y-119727499D01*
X173977234Y-120035780D01*
X174122526Y-120386638D01*
X174235567Y-120775987D01*
X174314587Y-121199742D01*
X174349538Y-121525396D01*
X174369338Y-121785400D01*
X174146486Y-121834308D01*
X173834945Y-121890536D01*
X173511504Y-121927003D01*
X173193182Y-121942846D01*
X172896999Y-121937204D01*
X172646512Y-121910314D01*
X172300602Y-121826309D01*
X171977417Y-121695298D01*
X171684051Y-121521750D01*
X171427600Y-121310134D01*
X171215157Y-121064919D01*
X171149664Y-120967430D01*
X171016930Y-120733029D01*
X170906519Y-120487976D01*
X170814758Y-120220993D01*
X170737978Y-119920804D01*
X170672509Y-119576132D01*
X170650030Y-119432477D01*
X170626499Y-119275308D01*
X170604795Y-119131997D01*
X170587147Y-119017145D01*
X170575782Y-118945353D01*
X170574828Y-118939622D01*
X170559077Y-118846156D01*
X170929123Y-118809739D01*
X171079286Y-118794649D01*
X171213511Y-118780589D01*
X171317021Y-118769144D01*
X171374584Y-118761967D01*
X171432249Y-118759882D01*
X171536098Y-118762283D01*
G37*
G36*
X133830051Y-79910862D02*
G01*
X133817097Y-80127520D01*
X133805406Y-80295912D01*
X133793570Y-80428044D01*
X133780175Y-80535923D01*
X133763810Y-80631556D01*
X133743066Y-80726950D01*
X133725855Y-80797339D01*
X133620137Y-81131584D01*
X133482068Y-81416187D01*
X133308755Y-81654158D01*
X133097303Y-81848509D01*
X132844820Y-82002249D01*
X132548414Y-82118388D01*
X132422366Y-82153615D01*
X132279020Y-82181882D01*
X132101757Y-82205052D01*
X131908459Y-82221968D01*
X131717008Y-82231474D01*
X131545286Y-82232416D01*
X131411175Y-82223636D01*
X131389192Y-82220403D01*
X131268527Y-82200071D01*
X131259922Y-81792826D01*
X131262246Y-81497049D01*
X131284672Y-81243868D01*
X131329958Y-81018093D01*
X131400863Y-80804534D01*
X131466485Y-80655701D01*
X131605462Y-80410921D01*
X131769962Y-80206104D01*
X131964511Y-80038916D01*
X132193635Y-79907023D01*
X132461860Y-79808092D01*
X132773712Y-79739788D01*
X133133716Y-79699779D01*
X133340443Y-79689414D01*
X133843713Y-79672960D01*
X133830051Y-79910862D01*
G37*
G36*
X186434275Y-78042471D02*
G01*
X186824873Y-78210711D01*
X187166462Y-78383448D01*
X187470312Y-78567794D01*
X187747689Y-78770861D01*
X188009862Y-78999761D01*
X188118248Y-79105411D01*
X188254425Y-79245060D01*
X188355990Y-79357870D01*
X188433280Y-79457248D01*
X188496632Y-79556598D01*
X188556384Y-79669327D01*
X188562233Y-79681187D01*
X188657921Y-79896779D01*
X188724299Y-80101067D01*
X188765458Y-80313091D01*
X188785491Y-80551893D01*
X188789131Y-80737007D01*
X188761368Y-81188771D01*
X188676691Y-81646000D01*
X188534430Y-82111547D01*
X188375053Y-82499931D01*
X188319724Y-82615286D01*
X188277711Y-82684588D01*
X188241052Y-82718243D01*
X188201785Y-82726654D01*
X188201538Y-82726650D01*
X188146520Y-82716864D01*
X188048472Y-82691223D01*
X187921361Y-82653642D01*
X187781958Y-82608974D01*
X187393336Y-82463967D01*
X187040963Y-82300408D01*
X186736491Y-82123720D01*
X186729216Y-82118932D01*
X186468417Y-81921647D01*
X186225268Y-81689440D01*
X186008995Y-81433718D01*
X185828827Y-81165887D01*
X185693991Y-80897354D01*
X185653976Y-80789770D01*
X185621866Y-80687858D01*
X185599307Y-80598730D01*
X185584612Y-80507844D01*
X185576093Y-80400661D01*
X185572063Y-80262640D01*
X185570834Y-80079240D01*
X185570824Y-80073349D01*
X185573633Y-79864982D01*
X185584303Y-79674991D01*
X185605074Y-79493138D01*
X185638187Y-79309184D01*
X185685882Y-79112890D01*
X185750398Y-78894019D01*
X185833978Y-78642331D01*
X185938860Y-78347589D01*
X185962767Y-78282087D01*
X186099748Y-77908005D01*
X186434275Y-78042471D01*
G37*
G36*
X167956331Y-69956968D02*
G01*
X167950712Y-69967648D01*
X167922289Y-69996457D01*
X167916985Y-69997814D01*
X167914927Y-69978328D01*
X167920546Y-69967648D01*
X167948969Y-69938839D01*
X167954273Y-69937482D01*
X167956331Y-69956968D01*
G37*
G36*
X131615439Y-79002446D02*
G01*
X131600356Y-79017529D01*
X131585273Y-79002446D01*
X131600356Y-78987363D01*
X131615439Y-79002446D01*
G37*
%TO.C,R3*%
X206740000Y-75365000D02*
X204740000Y-75365000D01*
X204740000Y-73225000D02*
X206740000Y-73225000D01*
%TO.C,SW5*%
X206770000Y-79040000D02*
X206770000Y-91340000D01*
X196590000Y-91340000D02*
X194470000Y-91340000D01*
X204650000Y-79040000D02*
X206770000Y-79040000D01*
X206770000Y-91340000D02*
X204650000Y-91340000D01*
X199650000Y-79040000D02*
X201590000Y-79040000D01*
X201590000Y-91340000D02*
X199650000Y-91340000D01*
X194470000Y-79040000D02*
X196590000Y-79040000D01*
X194470000Y-91340000D02*
X194470000Y-79040000D01*
X205239050Y-85090000D02*
G75*
G03*
X205239050Y-85090000I-4579050J0D01*
G01*
%TO.C,R1*%
X115967000Y-67637000D02*
X117967000Y-67637000D01*
X117967000Y-69777000D02*
X115967000Y-69777000D01*
%TO.C,SW7*%
X194470000Y-116690000D02*
X194470000Y-104390000D01*
X194470000Y-104390000D02*
X196590000Y-104390000D01*
X196590000Y-116690000D02*
X194470000Y-116690000D01*
X206770000Y-104390000D02*
X206770000Y-116690000D01*
X201590000Y-116690000D02*
X199650000Y-116690000D01*
X206770000Y-116690000D02*
X204650000Y-116690000D01*
X204650000Y-104390000D02*
X206770000Y-104390000D01*
X199650000Y-104390000D02*
X201590000Y-104390000D01*
X205239050Y-110440000D02*
G75*
G03*
X205239050Y-110440000I-4579050J0D01*
G01*
%TO.C,SW1*%
X108130000Y-79040000D02*
X110250000Y-79040000D01*
X110250000Y-91340000D02*
X108130000Y-91340000D01*
X103130000Y-79040000D02*
X105070000Y-79040000D01*
X97950000Y-91340000D02*
X97950000Y-79040000D01*
X100070000Y-91340000D02*
X97950000Y-91340000D01*
X110250000Y-79040000D02*
X110250000Y-91340000D01*
X97950000Y-79040000D02*
X100070000Y-79040000D01*
X105070000Y-91340000D02*
X103130000Y-91340000D01*
X108719050Y-85090000D02*
G75*
G03*
X108719050Y-85090000I-4579050J0D01*
G01*
%TO.C,SW2*%
X90430000Y-91740000D02*
X92370000Y-91740000D01*
X92370000Y-104040000D02*
X90430000Y-104040000D01*
X85250000Y-91740000D02*
X87370000Y-91740000D01*
X87370000Y-104040000D02*
X85250000Y-104040000D01*
X95430000Y-91740000D02*
X97550000Y-91740000D01*
X97550000Y-104040000D02*
X95430000Y-104040000D01*
X85250000Y-104040000D02*
X85250000Y-91740000D01*
X97550000Y-91740000D02*
X97550000Y-104040000D01*
X96019050Y-97790000D02*
G75*
G03*
X96019050Y-97790000I-4579050J0D01*
G01*
%TO.C,D2*%
X87914800Y-73319600D02*
X87914800Y-75219600D01*
X87914800Y-75219600D02*
X92614800Y-75219600D01*
X87914800Y-73319600D02*
X92614800Y-73319600D01*
%TO.C,C3*%
X117840000Y-77397000D02*
X115840000Y-77397000D01*
X115840000Y-75257000D02*
X117840000Y-75257000D01*
%TO.C,C4*%
X151838000Y-67072000D02*
X151838000Y-65072000D01*
X153978000Y-65072000D02*
X153978000Y-67072000D01*
%TO.C,SW9*%
X178475000Y-62230000D02*
X187475000Y-62230000D01*
X187475000Y-62230000D02*
X187475000Y-70230000D01*
X187475000Y-70230000D02*
X178475000Y-70230000D01*
X178475000Y-70230000D02*
X178475000Y-62230000D01*
%TO.C,D1*%
X216460000Y-73345000D02*
X211760000Y-73345000D01*
X216460000Y-75245000D02*
X211760000Y-75245000D01*
X216460000Y-75245000D02*
X216460000Y-73345000D01*
%TO.C,SW6*%
X181770000Y-91690000D02*
X183890000Y-91690000D01*
X186950000Y-91690000D02*
X188890000Y-91690000D01*
X183890000Y-103990000D02*
X181770000Y-103990000D01*
X191950000Y-91690000D02*
X194070000Y-91690000D01*
X188890000Y-103990000D02*
X186950000Y-103990000D01*
X181770000Y-103990000D02*
X181770000Y-91690000D01*
X194070000Y-103990000D02*
X191950000Y-103990000D01*
X194070000Y-91690000D02*
X194070000Y-103990000D01*
X192539050Y-97740000D02*
G75*
G03*
X192539050Y-97740000I-4579050J0D01*
G01*
%TO.C,R4*%
X97425000Y-73225000D02*
X99425000Y-73225000D01*
X99425000Y-75365000D02*
X97425000Y-75365000D01*
%TD*%
M02*
